<?xml version="1.0" standalone="no"?>
<!DOCTYPE svg PUBLIC "-//W3C//DTD SVG 1.1//EN" "http://www.w3.org/Graphics/SVG/1.1/DTD/svg11.dtd" >
<svg xmlns="http://www.w3.org/2000/svg" xmlns:xlink="http://www.w3.org/1999/xlink" version="1.1">
<metadata>
Created by FontForge 20170731 at Mon Dec 13 23:51:31 2021
 By Aleksey,,,
(c) 2021 Microsoft Corporation. All Rights Reserved.
</metadata>
<defs>
<font id="CascadiaCode-Italic" horiz-adv-x="1200" >
  <font-face 
    font-family="Cascadia Code"
    font-weight="400"
    font-style="italic"
    font-stretch="normal"
    units-per-em="2048"
    panose-1="2 11 6 9 2 0 0 2 0 4"
    ascent="1638"
    descent="-410"
    x-height="1060"
    cap-height="1420"
    bbox="-278 -751 4568 2335"
    underline-thickness="100"
    underline-position="-250"
    slope="-10"
    unicode-range="U+000D-FFFD"
  />
<missing-glyph 
d="M770 0l250 1420h208l-250 -1420h-208zM135 0l34 190h743l-34 -190h-743zM35 0l250 1420h208l-250 -1420h-208zM352 1230l33 190h743l-33 -190h-743z" />
    <glyph glyph-name=".notdef" 
d="M770 0l250 1420h208l-250 -1420h-208zM135 0l34 190h743l-34 -190h-743zM35 0l250 1420h208l-250 -1420h-208zM352 1230l33 190h743l-33 -190h-743z" />
    <glyph glyph-name=".null" horiz-adv-x="0" 
 />
    <glyph glyph-name="nonmarkingreturn" horiz-adv-x="682" 
 />
    <glyph glyph-name="CR" unicode="&#xd;" 
 />
    <glyph glyph-name="space" unicode=" " 
 />
    <glyph glyph-name="exclam" unicode="!" 
d="M511 456l141 974h215l-204 -974h-152zM529 -20q-61 0 -104.5 43.5t-43.5 104.5q0 62 43.5 105t104.5 43q62 0 105 -43t43 -105q0 -61 -43 -104.5t-105 -43.5z" />
    <glyph glyph-name="quotedbl" unicode="&#x22;" 
d="M341 780l93 640h242l-143 -640h-192zM745 780l93 640h242l-143 -640h-192z" />
    <glyph glyph-name="numbersign" unicode="#" 
d="M577 0l365 1420h181l-365 -1420h-181zM70 360l30 170h1000l-30 -170h-1000zM141 0l365 1420h181l-365 -1420h-181zM163 890l30 170h1000l-30 -170h-1000z" />
    <glyph glyph-name="dollar" unicode="$" 
d="M401 -320l363 2060h141l-363 -2060h-141zM486 -20q-259 0 -438 88l62 182q205 -86 395 -86q151 0 229 47t78 138q0 56 -22 97.5t-72 81.5l-286 232q-77 63 -112.5 145.5t-35.5 161.5q0 184 116.5 278.5t338.5 94.5q277 0 438 -169l-145 -152q-73 68 -150 102.5t-155 34.5
q-110 0 -169.5 -43.5t-59.5 -128.5q0 -45 24 -98t77 -96l246 -198q95 -77 138 -150.5t43 -169.5q0 -193 -137 -292.5t-403 -99.5z" />
    <glyph glyph-name="percent" unicode="%" 
d="M158 284l-65 116l1021 722l64 -110zM387 792q-124 0 -194 71t-70 192q0 107 48 194.5t133.5 139t196.5 51.5q124 0 193.5 -69t69.5 -190q0 -107 -48.5 -195.5t-133.5 -141t-195 -52.5zM416 955q49 0 85.5 30t56.5 77t20 96q0 56 -28 87.5t-78 31.5q-51 0 -87.5 -29
t-56 -75t-19.5 -98q0 -55 28.5 -87.5t78.5 -32.5zM774 -20q-124 0 -194 71t-70 192q0 107 48.5 194.5t133.5 139t196 51.5q124 0 193.5 -69t69.5 -190q0 -107 -48.5 -195.5t-133.5 -141t-195 -52.5zM803 143q49 0 85.5 30t56.5 77t20 96q0 56 -28 87.5t-78 31.5
q-51 0 -87.5 -29t-56 -75t-19.5 -98q0 -55 28.5 -87.5t78.5 -32.5z" />
    <glyph glyph-name="ampersand" unicode="&#x26;" 
d="M767 440l195 40q3 -15 5 -32t2 -32q0 -205 -135.5 -320.5t-377.5 -115.5q-202 0 -315 95.5t-113 267.5q0 215 168 358t468 180l131 29l-2 -140q-262 -34 -408.5 -145t-146.5 -276q0 -88 64.5 -136.5t179.5 -48.5q137 0 214.5 63t77.5 175q0 9 -2 19t-5 19zM1120 678
l42 -171q-112 -47 -271.5 -79.5t-332.5 -42.5l-20 181q164 11 317.5 40.5t264.5 71.5zM1155 1283l-147 -145q-59 59 -131 88.5t-152 29.5q-101 0 -169 -47t-68 -130q0 -87 85.5 -128t221.5 -41l-281 -110v69q-103 17 -169.5 78.5t-66.5 155.5q0 106 52 181.5t150 115.5
t235 40q297 0 440 -157z" />
    <glyph glyph-name="quotesingle" unicode="'" 
d="M543 780l93 640h242l-143 -640h-192z" />
    <glyph glyph-name="parenleft" unicode="(" 
d="M1189 1620l-31 -180h-36q-155 0 -278.5 -87.5t-207 -252t-119.5 -396.5q-52 -341 40 -532.5t307 -191.5h36l-32 -180h-55q-209 0 -339 115t-173.5 330.5t6.5 518.5q34 202 106.5 360.5t179 269t243 168.5t297.5 58h56z" />
    <glyph glyph-name="parenright" unicode=")" 
d="M74 -200l31 180h28q159 0 285 87.5t211 252t120 396.5q53 341 -42 532.5t-316 191.5h-27l31 180h47q207 0 337.5 -112.5t177.5 -323.5t2 -508q-31 -207 -103 -369.5t-180 -275.5t-247.5 -172t-306.5 -59h-48z" />
    <glyph glyph-name="asterisk" unicode="*" 
d="M316 258l-151 150l412 336l105 -96zM586 626l-434 132l100 204l410 -196zM778 258l-223 390l139 86l255 -356zM550 696l46 480h221l-119 -480h-148zM638 621l-28 150l470 191l48 -204z" />
    <glyph glyph-name="plus" unicode="+" 
d="M433 190l183 1038h212l-183 -1038h-212zM115 616l33 186h1000l-33 -186h-1000z" />
    <glyph glyph-name="comma" unicode="," 
d="M266 -436l177 690h242l-232 -690h-187z" />
    <glyph glyph-name="hyphen" unicode="-" 
d="M115 616l33 186h1000l-33 -186h-1000z" />
    <glyph glyph-name="period" unicode="." 
d="M529 -20q-61 0 -104.5 43.5t-43.5 104.5q0 62 43.5 105t104.5 43q62 0 105 -43t43 -105q0 -61 -43 -104.5t-105 -43.5z" />
    <glyph glyph-name="slash" unicode="/" 
d="M-13 -190l1113 1800h220l-1113 -1800h-220z" />
    <glyph glyph-name="zero" unicode="0" 
d="M506 -20q-181 0 -282.5 128.5t-101.5 357.5q0 306 76.5 524t219.5 334t344 116q179 0 280 -125.5t101 -349.5q0 -309 -76 -529.5t-218.5 -338t-342.5 -117.5zM632 550q-67 0 -108.5 41.5t-41.5 108.5q0 68 41.5 109t108.5 41q68 0 109 -41t41 -109q0 -67 -41 -108.5
t-109 -41.5zM539 164q123 0 210 94t133.5 271t46.5 425q0 143 -52.5 222.5t-145.5 79.5q-124 0 -212.5 -93.5t-135.5 -269t-47 -422.5q0 -145 53.5 -226t149.5 -81z" />
    <glyph glyph-name="one" unicode="1" 
d="M429 0l250 1420h215l-250 -1420h-215zM77 0l33 190h371l-30 -190h-374zM623 0l30 190h339l-33 -190h-336zM291 1098l35 202l353 120l-26 -211z" />
    <glyph glyph-name="two" unicode="2" 
d="M89 0l-20 228q397 194 611 414.5t214 438.5q0 87 -50.5 131t-151.5 44q-79 0 -175 -46t-175 -126l-114 137q87 99 224.5 159t276.5 60q192 0 287.5 -83t95.5 -250q0 -252 -190 -476t-533 -417v-214h-300zM149 0l-17 190h884l-33 -190h-834z" />
    <glyph glyph-name="three" unicode="3" 
d="M426 -20q-113 0 -205 13t-161 35l59 191q58 -17 131 -36t190 -19q112 0 195 33t129.5 93t46.5 140q0 104 -98.5 159.5t-280.5 55.5h-33l-5 140l306 -34q149 -16 237 -90t88 -205q0 -144 -74 -251t-208.5 -166t-316.5 -59zM399 645l-5 140q253 32 385 115.5t132 211.5
q0 68 -51 106t-147 38q-75 0 -167 -37.5t-183 -114.5l-114 137q110 104 239.5 151.5t278.5 47.5q173 0 265.5 -70.5t92.5 -202.5q0 -138 -94.5 -250t-271.5 -152v-120h-360z" />
    <glyph glyph-name="four" unicode="4" 
d="M37 318l359 1022h217l-361 -1022h-215zM37 318l171 186h589l-31 -186h-729zM928 318l31 186h156l-33 -186h-154zM681 0l250 1420h214l-250 -1420h-214z" />
    <glyph glyph-name="five" unicode="5" 
d="M496 -20q-218 0 -320.5 110.5t-67.5 307.5h214q-19 -110 39 -172t180 -62q159 0 248.5 91t89.5 254q0 112 -66 174.5t-184 62.5q-141 0 -273 -66l28 170q92 47 178.5 63.5t168.5 16.5q171 0 266.5 -108t95.5 -300q0 -256 -158 -399t-439 -143zM244 680l130 740h214
l-107 -616l-125 -124h-112zM437 1234l15 186h708l-33 -186h-690z" />
    <glyph glyph-name="six" unicode="6" 
d="M537 -20q-206 0 -312.5 100t-106.5 296q0 330 114 559.5t337 354t549 136.5l-14 -191q-326 -14 -504 -150.5t-241 -402.5h20q51 104 154.5 161t233.5 57q161 0 244 -93t83 -266q0 -166 -70.5 -292.5t-195.5 -197.5t-291 -71zM556 164q92 0 165.5 47.5t116 128.5t42.5 183
q0 93 -52 143t-153 50t-177 -44t-118.5 -123t-42.5 -184q0 -201 219 -201z" />
    <glyph glyph-name="seven" unicode="7" 
d="M408 0l680 1420h223l-679 -1420h-224zM181 922l88 498h215l-88 -498h-215zM247 1236l22 184h1042l-175 -184h-889z" />
    <glyph glyph-name="eight" unicode="8" 
d="M500 -20q-124 0 -217.5 43t-145.5 120t-52 179q0 133 69 232t193.5 154.5t290.5 55.5q193 0 310.5 -90.5t117.5 -239.5q0 -136 -70.5 -238t-198 -159t-297.5 -57zM532 164q96 0 168 35.5t112 100t40 149.5q0 94 -64 151.5t-169 57.5q-96 0 -168 -37.5t-112 -105
t-40 -157.5q0 -87 64 -140.5t169 -53.5zM462 706l18 102h334l-18 -102h-334zM653 842q127 0 204 68.5t77 180.5q0 74 -57.5 119.5t-151.5 45.5q-118 0 -191 -65t-73 -172q0 -79 53 -128t139 -49zM635 746q-175 0 -281.5 77t-106.5 203q0 124 64 217t178.5 145t267.5 52
q176 0 283.5 -84t107.5 -222q0 -117 -64 -204t-179.5 -135.5t-269.5 -48.5z" />
    <glyph glyph-name="nine" unicode="9" 
d="M155 -6l14 191q326 14 504 151t241 402h-20q-51 -104 -154 -161t-234 -57q-160 0 -243.5 93.5t-83.5 265.5q0 166 70.5 292.5t196 197.5t290.5 71q206 0 312.5 -100t106.5 -296q0 -329 -114 -559t-337 -354t-549 -137zM598 704q101 0 177 44t118.5 123t42.5 184
q0 201 -219 201q-92 0 -165.5 -47t-116 -128.5t-42.5 -183.5q0 -93 52.5 -143t152.5 -50z" />
    <glyph glyph-name="colon" unicode=":" 
d="M670 784q-61 0 -104.5 43.5t-43.5 104.5q0 62 43.5 105t104.5 43q62 0 105 -43t43 -105q0 -61 -43 -104.5t-105 -43.5zM530 -20q-61 0 -104.5 43.5t-43.5 104.5q0 62 43.5 105t104.5 43q62 0 105 -43t43 -105q0 -61 -43 -104.5t-105 -43.5z" />
    <glyph glyph-name="semicolon" unicode=";" 
d="M670 784q-61 0 -104.5 43.5t-43.5 104.5q0 62 43.5 105t104.5 43q62 0 105 -43t43 -105q0 -61 -43 -104.5t-105 -43.5zM266 -436l177 690h242l-232 -690h-187z" />
    <glyph glyph-name="less" unicode="&#x3c;" 
d="M998 214l-888 394l36 202l1027 394l-41 -231l-750 -261l-2 -18l655 -271z" />
    <glyph glyph-name="equal" unicode="=" 
d="M159 866l33 186h1000l-33 -186h-1000zM71 366l33 186h1000l-33 -186h-1000z" />
    <glyph glyph-name="greater" unicode="&#x3e;" 
d="M90 214l41 231l750 261l2 18l-655 271l37 209l888 -394l-36 -202z" />
    <glyph glyph-name="question" unicode="?" 
d="M441 456l8 63q10 79 45.5 142.5t94.5 120t137 112.5q52 37 88 70.5t55 70t19 80.5q0 64 -45.5 99.5t-127.5 35.5l46 190q164 0 255.5 -79t91.5 -219q0 -114 -64.5 -200.5t-188.5 -173.5q-101 -71 -150 -135.5t-60 -127.5l-8 -49h-196zM345 1078l-113 153q89 95 232.5 152
t296.5 57l-46 -190q-93 0 -193 -47t-177 -125zM491 -20q-61 0 -104.5 43.5t-43.5 104.5q0 62 43.5 105t104.5 43q62 0 105 -43t43 -105q0 -61 -43 -104.5t-105 -43.5z" />
    <glyph glyph-name="at" unicode="@" 
d="M604 -243q-264 0 -390.5 134t-126.5 426q0 240 53.5 444.5t150.5 356.5t227 236.5t283 84.5q352 0 352 -371q0 -58 -20 -180t-63 -364h-170q24 137 39 225t23 140t11 81.5t3 48.5q0 142 -52 191t-153 49q-105 0 -197.5 -73.5t-163 -202.5t-110.5 -298.5t-40 -361.5
q0 -201 85 -293.5t261 -92.5q125 0 201 25l-31 -180q-72 -25 -172 -25zM618 149q-98 0 -151.5 76t-53.5 212q0 183 77 322.5t211.5 225t306.5 105.5l-29 -186q-108 -5 -195.5 -61.5t-139 -150t-51.5 -210.5q0 -73 28 -113t77 -40q51 0 95 44.5t79 130t60 206.5h170l-95 -542
h-146l28 298l57 -85h-116l54 68q-33 -143 -103.5 -221.5t-162.5 -78.5z" />
    <glyph glyph-name="A" unicode="A" 
d="M-48 0l630 1421h321q26 -113 49.5 -256.5t43 -300.5t34 -313.5t23 -298t9.5 -252.5h-212q1 92 -5.5 217t-18 265t-27 280.5t-32 266.5t-32.5 220h-18l-543 -1249h-222zM215 346l41 190h720l-41 -190h-720z" />
    <glyph glyph-name="B" unicode="B" 
d="M67 0l250 1420h208l-250 -1420h-208zM285 765l33 81h282q151 0 229 54t78 158q0 192 -335 192q-177 0 -288 -20l33 190q102 20 258 20q271 0 410.5 -86t139.5 -253q0 -166 -126.5 -251t-371.5 -85h-342zM255 0l34 190h162q227 0 334 62.5t107 195.5q0 98 -80.5 153
t-223.5 55h-212l-11 80h336q191 0 298 -83t107 -231q0 -217 -154.5 -319.5t-480.5 -102.5h-216zM308 698l17 98h421l-17 -98h-421z" />
    <glyph glyph-name="C" unicode="C" 
d="M666 -20q-187 0 -311.5 60.5t-187 181t-62.5 301.5q0 203 58.5 371t165.5 290t254.5 189t325.5 67q221 0 344 -159l-143 -147q-97 122 -230 122q-161 0 -288 -94.5t-200 -258.5t-73 -373q0 -122 42 -203.5t125 -122t207 -40.5q170 0 347 60l14 -176q-192 -68 -388 -68z
" />
    <glyph glyph-name="D" unicode="D" 
d="M228 0l34 190h79q194 0 332 76.5t211.5 221t73.5 347.5q0 196 -120 305.5t-334 109.5q-105 0 -207 -20v190q109 20 232 20q303 0 473 -155t170 -432q0 -268 -104 -459t-299 -292.5t-470 -101.5h-71zM47 0l250 1420h208l-250 -1420h-208z" />
    <glyph glyph-name="E" unicode="E" 
d="M67 0l250 1420h209l-250 -1420h-209zM67 0l34 190h938l-33 -190h-939zM176 616l33 190h759l-33 -190h-759zM284 1230l33 190h939l-33 -190h-939z" />
    <glyph glyph-name="F" unicode="F" 
d="M87 0l250 1420h208l-250 -1420h-208zM245 556l34 190h698l-33 -190h-699zM304 1230l33 190h939l-33 -190h-939z" />
    <glyph glyph-name="G" unicode="G" 
d="M591 -20q-239 0 -373.5 141t-134.5 392q0 200 55.5 369t159.5 294.5t251 194.5t331 69q142 0 228.5 -50.5t140.5 -127.5l-155 -138q-45 56 -108 94t-146 38q-115 0 -214 -52.5t-173 -148.5t-115 -227t-41 -289q0 -375 340 -375q102 0 184 18.5t135 31.5l47 -174
q-46 -13 -159 -36.5t-253 -23.5zM795 40l118 670h208l-118 -670h-208zM611 520l33 190h471l-33 -190h-471z" />
    <glyph glyph-name="H" unicode="H" 
d="M759 0l250 1420h208l-250 -1420h-208zM47 0l250 1420h208l-250 -1420h-208zM197 612l33 190h841l-33 -190h-841z" />
    <glyph glyph-name="I" unicode="I" 
d="M403 0l250 1420h208l-250 -1420h-208zM75 0l33 190h863l-33 -190h-863zM292 1230l33 190h863l-33 -190h-863z" />
    <glyph glyph-name="J" unicode="J" 
d="M498 -20q-244 0 -357 130.5t-64 365.5h208q-25 -148 34 -230t195 -82q140 0 221 76t109 236l166 944h208l-166 -944q-45 -255 -178.5 -375.5t-375.5 -120.5zM617 1230l34 190h461l-33 -190h-462z" />
    <glyph glyph-name="K" unicode="K" 
d="M223 332l13 198q245 37 409 162t259 313.5t133 414.5h214q-46 -284 -178.5 -517.5t-346 -384t-503.5 -186.5zM57 0l250 1420h208l-250 -1420h-208zM837 0l-213 622l183 102l262 -724h-232z" />
    <glyph glyph-name="L" unicode="L" 
d="M67 0l250 1420h209l-250 -1420h-209zM67 0l34 190h939l-33 -190h-940z" />
    <glyph glyph-name="M" unicode="M" 
d="M577 580l71 230h12l254 610h142l-44 -252h-58l-256 -588h-121zM40 0l245 1420h210l-250 -1420h-205zM527 579l-50 589h-58l44 252h117l64 -610h8l-21 -230zM774 0l250 1420h205l-250 -1420h-205z" />
    <glyph glyph-name="N" unicode="N" 
d="M716 0l-245 1080h-92l62 340h107l245 -1080h50l-62 -340h-65zM55 0l250 1420h208l-250 -1420h-208zM751 0l250 1420h208l-250 -1420h-208z" />
    <glyph glyph-name="O" unicode="O" 
d="M513 -20q-195 0 -304 128.5t-109 357.5q0 306 77.5 524t223.5 334t351 116q194 0 303 -125.5t109 -349.5q0 -309 -77.5 -529.5t-223 -338t-350.5 -117.5zM539 164q129 0 221 92.5t141 266t49 417.5q0 149 -57.5 232.5t-161.5 83.5q-131 0 -224.5 -91t-143 -262
t-49.5 -412q0 -154 59.5 -240.5t165.5 -86.5z" />
    <glyph glyph-name="P" unicode="P" 
d="M67 0l250 1420h208l-250 -1420h-208zM181 360l33 190h112q320 0 485 108.5t165 319.5q0 134 -92.5 203t-271.5 69q-200 0 -328 -20l33 190q128 20 328 20q269 0 407 -114t138 -335q0 -311 -227 -471t-670 -160h-112z" />
    <glyph glyph-name="Q" unicode="Q" 
d="M815 -460q-235 0 -331.5 110t-59.5 330l14 82h209l-15 -84q-22 -124 31.5 -186t183.5 -62h52l-34 -190h-50zM513 -20q-195 0 -304 128.5t-109 357.5q0 306 77.5 524t223.5 334t351 116q194 0 303 -125.5t109 -349.5q0 -309 -77.5 -529.5t-223 -338t-350.5 -117.5z
M539 164q129 0 221 92.5t141 266t49 417.5q0 149 -57.5 232.5t-161.5 83.5q-131 0 -224.5 -91t-143 -262t-49.5 -412q0 -154 59.5 -240.5t165.5 -86.5z" />
    <glyph glyph-name="R" unicode="R" 
d="M161 450l33 190h112q326 0 493.5 96t167.5 282q0 114 -90 173t-265 59q-213 0 -348 -20l33 190q128 20 328 20q274 0 415 -103.5t141 -305.5q0 -286 -230 -433.5t-678 -147.5h-112zM47 0l250 1420h208l-250 -1420h-208zM820 0l-196 630h215l210 -630h-229z" />
    <glyph glyph-name="S" unicode="S" 
d="M486 -20q-259 0 -438 88l62 182q205 -86 395 -86q151 0 229 47t78 138q0 56 -22 97.5t-72 81.5l-286 232q-77 63 -112.5 145.5t-35.5 161.5q0 184 116.5 278.5t338.5 94.5q277 0 438 -169l-145 -152q-73 68 -150 102.5t-155 34.5q-110 0 -169.5 -43.5t-59.5 -128.5
q0 -45 24 -98t77 -96l246 -198q95 -77 138 -150.5t43 -169.5q0 -193 -137 -292.5t-403 -99.5z" />
    <glyph glyph-name="T" unicode="T" 
d="M402 0l251 1420h208l-251 -1420h-208zM204 1230l33 190h1039l-33 -190h-1039z" />
    <glyph glyph-name="U" unicode="U" 
d="M539 -20q-246 0 -349.5 120.5t-62.5 355.5l170 964h208l-170 -964q-25 -144 31 -218t190 -74q117 0 187.5 73.5t95.5 218.5l170 964h208l-170 -964q-42 -238 -170 -357t-338 -119z" />
    <glyph glyph-name="V" unicode="V" 
d="M307 0l-105 1420l212 12l80 -1260h18q188 248 331.5 562t254.5 686h214q-118 -423 -292 -783.5t-421 -636.5h-292z" />
    <glyph glyph-name="W" unicode="W" 
d="M572 0l30 505h-91l52 555l192 12l-56 -900h18q72 166 146.5 360.5t134.5 417t90 470.5h214q-26 -211 -74 -407.5t-112 -376t-138.5 -339t-153.5 -297.5h-252zM117 0l90 1420l207 12l-95 -1260h18l232 565l70 -271h-153l126 100l-228 -566h-267z" />
    <glyph glyph-name="X" unicode="X" 
d="M161 -40l-156 140l589 680l458 660l166 -140l-579 -702zM824 -20q-113 0 -197.5 73t-87.5 236l-14 803q-1 83 -36.5 120.5t-76.5 37.5q-70 0 -137 -35l-59 171q68 28 122 41t103 13q69 0 128.5 -32t97 -100t39.5 -177l14 -803q2 -82 41.5 -120t91.5 -38q69 0 137 45
l59 -171q-58 -33 -112.5 -48.5t-112.5 -15.5z" />
    <glyph glyph-name="Y" unicode="Y" 
d="M402 0l105 594h208l-105 -594h-208zM495 424l-317 974l212 32l224 -804h18q106 137 192 259.5t158 251.5t136 283h214q-83 -204 -185.5 -377t-227.5 -332.5t-275 -326.5z" />
    <glyph glyph-name="Z" unicode="Z" 
d="M280 108l-195 52l920 1162l194 -62zM145 0l-60 160l195 30h725l-33 -190h-827zM301 1230l33 190h805l60 -160l-167 -30h-731z" />
    <glyph glyph-name="bracketleft" unicode="[" 
d="M241 -214l326 1848h215l-326 -1848h-215zM436 -214l34 190h431l-34 -190h-431zM728 1444l34 190h431l-34 -190h-431z" />
    <glyph glyph-name="backslash" unicode="\" 
d="M757 -190l-497 1800h202l497 -1800h-202z" />
    <glyph glyph-name="bracketright" unicode="]" 
d="M482 -214l326 1848h215l-326 -1848h-215zM71 -214l34 190h431l-34 -190h-431zM363 1444l34 190h431l-34 -190h-431z" />
    <glyph glyph-name="asciicircum" unicode="^" 
d="M236 820l386 600h270l174 -600h-218l-100 440h-18l-254 -440h-240z" />
    <glyph glyph-name="underscore" unicode="_" 
d="M-24 -176l31 176h1000l-31 -176h-1000z" />
    <glyph glyph-name="grave" unicode="`" 
d="M700 1068l-255 560h244l217 -560h-206z" />
    <glyph glyph-name="a" unicode="a" 
d="M347 -21q-136 0 -210 78t-74 220q0 180 76.5 326.5t214.5 250.5t323 160t402 56h20l-132 -753q-14 -80 12.5 -116t114.5 -36h41l-30 -175h-71q-77 0 -128.5 15.5t-80 49t-36.5 88.5t2 134l58 -26h-116l53 58q-55 -157 -170 -243.5t-269 -86.5zM412 169q144 0 251 130
t150 368l52 290l81 -77q-140 -6 -261.5 -52t-213 -123.5t-143 -180t-51.5 -222.5q0 -64 35.5 -98.5t99.5 -34.5z" />
    <glyph glyph-name="b" unicode="b" 
d="M360 -20q-73 0 -145 5.5t-145 15.5l100 194q65 -25 212 -25q113 0 209.5 41.5t168.5 116t112 174.5t40 218q0 81 -37 125.5t-105 44.5q-83 0 -167 -52t-151 -163t-99 -287l39 431h87l-52 -76q35 161 146 249t277 88q131 0 203.5 -83.5t72.5 -236.5q0 -167 -57.5 -309
t-161.5 -248t-243.5 -164.5t-303.5 -58.5zM220 1521q174 0 239 -84t31 -270l-205 -1167l-215 1l209 1186q14 77 -8 112t-83 35q-25 0 -49.5 -2.5t-49.5 -8.5l-21 182q38 9 76 12.5t76 3.5z" />
    <glyph glyph-name="c" unicode="c" 
d="M556 170q104 0 203.5 34t176.5 89l72 -164q-98 -67 -224 -108t-257 -41q-197 0 -305 102t-108 287q0 215 75 374.5t210.5 248t317.5 88.5q164 0 261 -52t147 -168l-155 -123q-52 80 -119 116.5t-162 36.5q-108 0 -189.5 -62t-126 -174t-45.5 -263q1 -105 60.5 -163
t167.5 -58z" />
    <glyph glyph-name="d" unicode="d" 
d="M352 -21q-138 0 -213.5 78t-75.5 220q0 183 76.5 331t214.5 253.5t323 162t402 56.5h18l-151 -190q-187 -8 -339 -87t-241 -208.5t-89 -292.5q0 -64 36.5 -98.5t103.5 -34.5q140 0 244.5 130t151.5 368l-12 -415h-116l100 57q-50 -149 -163.5 -239.5t-269.5 -90.5z
M1029 -10q-73 0 -123.5 18t-79.5 54.5t-37 93t3 133.5l12 330l104 578q14 77 -8 112t-83 35q-25 0 -49.5 -2.5t-49.5 -8.5l-23 172q38 9 76 12.5t76 3.5q174 0 238.5 -84t31.5 -270l-150 -849q-9 -51 -0.5 -85t35.5 -51t73 -17h61l-31 -175h-76z" />
    <glyph glyph-name="e" unicode="e" 
d="M587 170q80 0 171 25t175 70l69 -171q-98 -54 -210 -84t-214 -30q-206 0 -321.5 108t-115.5 301q0 208 78.5 363t219.5 241.5t329 86.5q148 0 230.5 -74t82.5 -206q0 -196 -200.5 -309t-559.5 -120l-21 160q268 4 417.5 71t149.5 185q0 48 -33 75.5t-94 27.5
q-119 0 -209.5 -61t-141 -171t-51.5 -257q1 -109 67 -170t182 -61z" />
    <glyph glyph-name="f" unicode="f" 
d="M-56 -473l-9 190l73 8q128 14 208 69t121.5 154t52.5 244l74 678q18 223 89.5 366.5t212 213.5t363.5 70q87 0 166 -20l-54 -184q-46 8 -81.5 11t-69.5 3q-204 0 -296.5 -109.5t-112.5 -340.5l-81 -718q-16 -191 -80 -323t-187 -207t-318 -97zM88 640l33 186h980
l-33 -186h-980z" />
    <glyph glyph-name="g" unicode="g" 
d="M55 -480l-10 186l210 13q125 8 212.5 48t143.5 103t87.5 140t44.5 159l133 754l233 147h8l-154 -869q-25 -141 -72.5 -260t-129.5 -209t-210.5 -143t-315.5 -61zM960 880q-140 -6 -261 -52t-211.5 -123.5t-141.5 -180t-51 -222.5q0 -64 36.5 -98.5t103.5 -34.5
q99 0 178 57.5t134.5 169t83.5 271.5l7 40l103 -84l-116 -392h-116l48 48q-45 -143 -146 -221.5t-241 -78.5q-138 0 -213.5 78t-75.5 220q0 180 76.5 326.5t214.5 250.5t323.5 160t402.5 56h18z" />
    <glyph glyph-name="h" unicode="h" 
d="M723 0l123 705q16 92 -13.5 138.5t-105.5 46.5q-82 0 -152 -47t-125.5 -156.5t-95.5 -296.5l50 429h44q32 125 128.5 193t230.5 68q161 0 224.5 -96.5t29.5 -286.5l-123 -697h-215zM69 0l210 1187q14 77 -8 112t-83 35q-25 0 -49.5 -2.5t-49.5 -8.5l-21 182q38 9 76 12.5
t76 3.5q174 0 238.5 -84t31.5 -270l-206 -1167h-215z" />
    <glyph glyph-name="i" unicode="i" 
d="M731 1228q-61 0 -104.5 43.5t-43.5 104.5q0 62 43.5 105t104.5 43q62 0 105 -43t43 -105q0 -61 -43 -104.5t-105 -43.5zM966 225l69 -161q-61 -35 -129 -59.5t-156 -24.5q-181 0 -269 85t-78 249q5 75 29.5 146t53 138t43.5 129q21 82 -17.5 124t-133.5 42t-183 -23
l-21 182q59 17 118 22.5t118 5.5q207 0 291 -94.5t39 -278.5q-17 -71 -44.5 -132.5t-50.5 -121.5t-28 -130q-11 -153 172 -153q50 0 87.5 12.5t89.5 42.5z" />
    <glyph glyph-name="j" unicode="j" 
d="M27 -480l-10 188l220 18q128 11 198.5 53.5t106.5 122.5t57 200l115 645q14 77 -8 111.5t-83 34.5q-95 0 -191 -13t-191 -30l-21 187q107 20 216.5 31.5t218.5 11.5q174 0 238.5 -84t31.5 -269l-105 -593q-27 -150 -66 -259t-105 -182t-170.5 -112t-261.5 -49zM901 1228
q-61 0 -104.5 43.5t-43.5 104.5q0 62 43.5 105t104.5 43q62 0 105 -43t43 -105q0 -61 -43 -104.5t-105 -43.5z" />
    <glyph glyph-name="k" unicode="k" 
d="M956 -20q-187 0 -299 115t-143 330q200 96 275 192t75 178q0 95 -108 95q-58 0 -120 -31.5t-118 -92t-98 -148t-61 -198.5l46 359h39q22 91 75 158.5t129.5 105t167.5 37.5q119 0 190.5 -72t71.5 -191q0 -160 -94.5 -281t-265.5 -210l-10 153q32 -171 93.5 -240
t178.5 -69q29 0 45.5 1.5t35.5 3.5l19 -181q-28 -6 -57 -10t-67 -4zM70 1l211 1196q13 77 -8.5 112t-82.5 35q-25 0 -49.5 -2.5t-49.5 -8.5l-23 172q38 9 76 12.5t76 3.5q174 0 238 -84t32 -270l-205 -1166h-215z" />
    <glyph glyph-name="l" unicode="l" 
d="M693 -20q-166 0 -244.5 76.5t-78.5 237.5q0 36 7 80t22 101l155 605q35 136 7.5 194.5t-161.5 58.5q-34 0 -69.5 -5.5t-70.5 -20.5l-31 182q50 14 101 22.5t102 8.5q232 0 314.5 -111t22.5 -341l-155 -593q-16 -59 -23 -101t-7 -71q0 -133 148 -133q61 0 107 15t110 50
l69 -161q-70 -40 -147.5 -67t-177.5 -27z" />
    <glyph glyph-name="m" unicode="m" 
d="M386 1060l-13 -273l-139 -787h-215l187 1060h180zM417 0l146 828q15 82 -52 82q-62 0 -110 -108t-79 -305l24 402h51q25 98 76.5 139.5t124.5 41.5q93 0 130.5 -67t11.5 -213l-143 -800h-180zM1136 800l-141 -800h-215l146 828q7 39 -5 60.5t-44 21.5q-66 0 -113.5 -108
t-77.5 -305l14 402h67q27 99 83.5 140t136.5 41q198 0 149 -280z" />
    <glyph glyph-name="n" unicode="n" 
d="M75 0l187 1060h177l-7 -253l-142 -807h-215zM723 0l123 705q16 92 -13.5 138.5t-105.5 46.5q-81 0 -150 -47t-124.5 -156.5t-94.5 -296.5l50 429h44q32 125 127 193t228 68q161 0 224.5 -96.5t29.5 -286.5l-123 -697h-215z" />
    <glyph glyph-name="o" unicode="o" 
d="M502 -20q-177 0 -276.5 101.5t-99.5 282.5q0 338 151 527t419 189q177 0 276.5 -104t99.5 -290q0 -333 -150.5 -519.5t-419.5 -186.5zM539 169q150 0 234.5 125.5t84.5 348.5q0 116 -50 181.5t-141 65.5q-154 0 -240.5 -125t-86.5 -348q0 -117 52.5 -182.5t146.5 -65.5z
" />
    <glyph glyph-name="p" unicode="p" 
d="M209 -460h-215l267 1520h179l-7 -251zM365 -20q-73 0 -145 5.5t-145 15.5l100 194q65 -25 212 -25q151 0 271 72t189.5 196.5t69.5 281.5q0 81 -37 125.5t-105 44.5q-83 0 -167 -52t-151 -163t-99 -287l39 431h87l-57 -76q36 161 148 249t280 88q131 0 203.5 -83.5
t72.5 -236.5q0 -167 -57.5 -309t-161.5 -248t-243.5 -164.5t-303.5 -58.5z" />
    <glyph glyph-name="q" unicode="q" 
d="M364 -21q-136 0 -210.5 78t-74.5 220q0 180 77.5 326.5t217 250.5t326.5 160t407 56h18l-176 -190q-184 -8 -332.5 -85.5t-236 -205t-87.5 -287.5q0 -64 36 -98.5t100 -34.5q155 0 257.5 128.5t153.5 369.5l-6 -415h-116l40 27q-46 -143 -148.5 -221.5t-245.5 -78.5z
M984 -480q-129 0 -198 38.5t-86.5 122t5.5 217.5l195 1108l207 64h20l-215 -1212q-15 -82 9 -122.5t92 -40.5h38l-29 -175h-38z" />
    <glyph glyph-name="r" unicode="r" 
d="M222 0l133 747q14 77 -8 111.5t-83 34.5q-84 0 -162 -23l-21 182q45 14 99 21t116 7q174 0 239 -84t32 -269l-130 -727h-215zM-15 0l33 186h708l-33 -186h-708zM506 390l50 429h44q29 125 113 193t202 68q160 0 231.5 -100.5t42.5 -282.5h-215q13 98 -16 145.5t-103 47.5
q-76 0 -141.5 -47t-118 -156.5t-89.5 -296.5z" />
    <glyph glyph-name="s" unicode="s" 
d="M491 -20q-130 0 -239 16t-178 44l58 192q116 -29 218.5 -45.5t174.5 -16.5q131 0 203.5 34.5t72.5 97.5q0 31 -24.5 57.5t-70.5 41.5l-300 101q-99 33 -152 93t-53 135q0 167 141.5 258.5t400.5 91.5q91 0 186.5 -8t179.5 -22l-54 -184q-94 11 -183.5 17.5t-158.5 6.5
q-142 0 -219.5 -36.5t-77.5 -103.5q0 -24 19 -43.5t56 -30.5l305 -97q106 -34 162.5 -100.5t56.5 -152.5q0 -165 -137 -255.5t-387 -90.5z" />
    <glyph glyph-name="t" unicode="t" 
d="M649 -20q-184 0 -270.5 78.5t-86.5 244.5q0 42 4 80.5t12.5 86.5t20.5 118l139 792h215l-139 -792q-17 -100 -27.5 -154t-10.5 -111q0 -79 44 -116t138 -37q73 0 128 12t131 43l39 -171q-72 -31 -152.5 -52.5t-184.5 -21.5zM131 874l33 186h934l-33 -186h-934z" />
    <glyph glyph-name="u" unicode="u" 
d="M392 -21q-140 0 -217 83.5t-77 234.5q0 153 49.5 338.5t159.5 444.5l212 -39q-109 -265 -158 -435.5t-49 -283.5q0 -73 38 -113t107 -40q133 0 220 128.5t133 369.5l-18 -416h-66l57 48q-35 -98 -80 -170t-117.5 -111t-193.5 -39zM1058 -10q-108 0 -172 28.5t-87 89.5
t-10 158l-12 215l103 579h217l-128 -721q-17 -96 9.5 -135t114.5 -39h43l-31 -175h-47z" />
    <glyph glyph-name="v" unicode="v" 
d="M293 0l-140 1060l222 20l102 -894h18q198 164 301 381.5t113 492.5h214q-13 -342 -155 -606.5t-416 -453.5h-259z" />
    <glyph glyph-name="w" unicode="w" 
d="M627 0l-11 506l-78 -40l-16 594l182 10l27 -884h18q85 164 139 381.5t58 492.5h214q-7 -342 -99 -606.5t-250 -453.5h-184zM637 706l30 -295h-96l47 44l-234 -455h-194l-91 1060l212 10l48 -884h18z" />
    <glyph glyph-name="x" unicode="x" 
d="M177 -41l-136 150l535 511l414 480l146 -150l-510 -492zM789 -20q-120 0 -193 72t-84 237l-30 443q-6 83 -39 120.5t-82 37.5q-40 0 -77 -7.5t-78 -25.5l-51 174q138 49 235 49q119 0 192.5 -72t84.5 -237l30 -443q6 -83 38 -120.5t83 -37.5q44 0 85.5 9.5t87.5 30.5
l54 -174q-129 -56 -256 -56z" />
    <glyph glyph-name="y" unicode="y" 
d="M3 -472l-89 175q228 99 401.5 227.5t299 292.5t207.5 371.5t127 465.5h214q-75 -389 -221 -678.5t-376.5 -497.5t-562.5 -356zM324 1080q147 -600 388 -909l-185 -120q-125 189 -230.5 440t-193.5 569z" />
    <glyph glyph-name="z" unicode="z" 
d="M1096 874l-812 -764l-178 107l847 775zM978 186l-33 -186h-789l-50 217l62 -31h810zM1096 874h-860l33 186h797z" />
    <glyph glyph-name="braceleft" unicode="{" 
d="M685 -214q-92 0 -164.5 39t-107 111.5t-14.5 172.5q14 68 38.5 117t51 89.5t44.5 81.5t18 93q0 53 -50 82.5t-117.5 42t-121.5 12.5l28 158q176 0 262 67t86 215q0 54 -8 107.5t-13 103.5q-10 107 38 185t140.5 120.5t214.5 42.5q58 0 96.5 -5.5t69.5 -14.5l-54 -174
q-33 5 -64 7.5t-57 2.5q-55 0 -95 -22t-59.5 -64t-15.5 -103q4 -50 13.5 -107t9.5 -123q0 -294 -349 -300l-6 -34q128 -2 197 -50.5t69 -131.5q0 -60 -17.5 -105.5t-43.5 -88t-51 -91.5t-40 -116q-14 -63 25 -99.5t102 -36.5q26 0 58.5 3t66.5 7l-6 -174q-34 -9 -75 -14.5
t-99 -5.5z" />
    <glyph glyph-name="bar" unicode="|" 
d="M496 -310v2040h208v-2040h-208z" />
    <glyph glyph-name="braceright" unicode="}" 
d="M252 -214q-58 0 -96 5.5t-70 14.5l54 174q33 -4 64 -7t57 -3q55 0 95 22t60 64.5t15 102.5q-4 50 -13.5 107t-9.5 123q0 294 349 300l6 34q-128 2 -197 50.5t-69 131.5q0 60 17.5 105.5t43.5 88t51 91.5t40 116q14 63 -25 99.5t-102 36.5q-26 0 -58 -2.5t-67 -7.5l6 174
q35 9 75.5 14.5t98.5 5.5q93 0 165 -39t106.5 -111.5t14.5 -172.5q-13 -68 -38 -117t-51.5 -89.5t-44.5 -81.5t-18 -93t50 -82t118 -42.5t121 -12.5l-28 -158q-176 0 -262 -66.5t-86 -215.5q0 -54 8.5 -107.5t12.5 -103.5q10 -106 -38 -184.5t-140.5 -121t-214.5 -42.5z" />
    <glyph glyph-name="asciitilde" unicode="~" 
d="M93 486l17 94q26 146 97 231t228 85q73 0 134.5 -26t111.5 -64q43 -32 79.5 -58.5t83.5 -26.5q44 0 66 42t38 133l6 34h215l-15 -84q-27 -152 -92.5 -239t-205.5 -87q-72 0 -129.5 26t-107.5 63q-46 35 -88 60.5t-92 25.5q-54 0 -80 -42t-42 -133l-6 -34h-218z" />
    <glyph glyph-name="uni00A0" unicode="&#xa0;" 
 />
    <glyph glyph-name="exclamdown" unicode="&#xa1;" 
d="M333 -370l204 974h152l-144 -974h-212zM671 784q-61 0 -104.5 43.5t-43.5 104.5q0 62 43.5 105t104.5 43q62 0 105 -43t43 -105q0 -61 -43 -104.5t-105 -43.5z" />
    <glyph glyph-name="cent" unicode="&#xa2;" 
d="M439 -334l303 1728h140l-303 -1728h-140zM556 170q104 0 203.5 34t176.5 89l72 -164q-98 -67 -224 -108t-257 -41q-197 0 -305 102t-108 287q0 215 75 374.5t210.5 248t317.5 88.5q164 0 261 -52t147 -168l-155 -123q-52 80 -119 116.5t-162 36.5q-108 0 -189.5 -62
t-126 -174t-45.5 -263q1 -105 60.5 -163t167.5 -58z" />
    <glyph glyph-name="sterling" unicode="&#xa3;" 
d="M49 0l-9 96q104 141 161 267t82 264l72 409q34 194 163.5 299t325.5 105q143 0 239 -57.5t127 -161.5l-190 -127q-29 77 -86 119.5t-132 42.5q-86 0 -149.5 -57t-82.5 -164l-72 -408q-14 -80 -33 -150t-50.5 -140t-85.5 -151l-141 -186h-139zM165 0v186h877l-30 -186
h-847zM118 581l24 138h761l-24 -138h-761z" />
    <glyph glyph-name="currency" unicode="&#xa4;" 
d="M563 300q-169 0 -265 86.5t-96 231.5q0 137 66 246t179.5 172.5t256.5 63.5q169 0 265 -86t96 -232q0 -137 -66 -246t-179.5 -172.5t-256.5 -63.5zM138 131l-113 137l253 227l138 -101zM937 141l-173 239l141 101l176 -228zM596 490q106 0 177.5 74t71.5 183
q0 75 -46 119t-129 44q-106 0 -177.5 -74t-71.5 -183q0 -75 46.5 -119t128.5 -44zM347 926l-163 219l144 114l175 -241zM999 916l-138 98l249 245l115 -134z" />
    <glyph glyph-name="yen" unicode="&#xa5;" 
d="M157 501l24 138h333l101 -87l116 87h326l-24 -138h-876zM102 191l24 138h876l-24 -138h-876zM402 0l105 594h208l-105 -594h-208zM495 424l-317 974l212 32l224 -804h18q106 137 192 259.5t158 251.5t136 283h214q-83 -204 -185.5 -377t-227.5 -332.5t-275 -326.5z" />
    <glyph glyph-name="brokenbar" unicode="&#xa6;" 
d="M496 870v860h208v-860h-208zM496 -310v860h208v-860h-208z" />
    <glyph glyph-name="section" unicode="&#xa7;" 
d="M465 -219q-115 0 -216.5 12t-181.5 36l42 182q97 -22 192 -34t183 -12q134 0 203 35.5t69 104.5q0 32 -17 61t-57 53l-422 252q-80 48 -116 115t-36 152q0 143 95.5 214t281.5 66l-40 -39l41 130l70 -124l-86 53q-64 40 -93 97.5t-29 129.5q0 155 106.5 229t332.5 74
q116 0 211 -22.5t163 -66.5l-105 -162q-67 33 -138 50t-143 17q-109 0 -161 -24.5t-52 -77.5q0 -29 17.5 -54t57.5 -50l333 -207q98 -61 142.5 -135.5t44.5 -145.5q0 -150 -101.5 -224t-297.5 -68l95 63l-57 -156l-27 100q109 -57 155 -134.5t46 -157.5q0 -164 -128 -248
t-377 -84zM755 472q97 0 142.5 40t45.5 125q0 47 -23 87t-67 73l-85 63q-67 50 -124.5 67.5t-98.5 17.5q-115 0 -169 -44t-54 -136q0 -45 25 -83t80 -71l114 -68q60 -36 112 -53.5t102 -17.5z" />
    <glyph glyph-name="dieresis" unicode="&#xa8;" 
d="M958 1238q-55 0 -94.5 39.5t-39.5 94.5q0 56 39.5 95t94.5 39q56 0 95 -39t39 -95q0 -55 -39 -94.5t-95 -39.5zM538 1238q-55 0 -94.5 39.5t-39.5 94.5q0 56 39.5 95t94.5 39q56 0 95 -39t39 -95q0 -55 -39 -94.5t-95 -39.5z" />
    <glyph glyph-name="copyright" unicode="&#xa9;" 
d="M509 15q-220 0 -344 129t-124 358q0 284 85 486t244.5 309.5t383.5 107.5q221 0 344 -132.5t123 -369.5q0 -279 -84.5 -477.5t-244 -304.5t-383.5 -106zM647 380q-160 0 -245 68.5t-85 196.5q0 119 49.5 207.5t139.5 138t209 49.5q73 0 133.5 -29.5t105.5 -86.5
l-118 -111q-56 67 -137 67q-87 0 -139.5 -55t-52.5 -146q0 -68 39.5 -103.5t112.5 -35.5q49 0 99 4.5t97 11.5l-3 -156q-50 -12 -102.5 -16t-102.5 -4zM537 169q242 0 378 186t136 518q0 179 -85.5 278.5t-237.5 99.5q-244 0 -380.5 -189.5t-136.5 -527.5q0 -172 86 -268.5
t240 -96.5z" />
    <glyph glyph-name="ordfeminine" unicode="&#xaa;" 
d="M977 1440h19l-97 -572l-29 43l136 -12l-20 -113l-250 -8l40 221l47 -85h-116l53 68q-32 -100 -99.5 -154.5t-156.5 -54.5q-100 0 -151 49t-51 143q0 144 88.5 251t241.5 165.5t345 58.5zM534 910q104 0 172 90.5t103 256.5l15 70l60 -27q-116 -4 -210.5 -47t-150 -113.5
t-55.5 -159.5q0 -34 17 -52t49 -18z" />
    <glyph glyph-name="guillemotleft" unicode="&#xab;" 
d="M393 25l-344 443l22 122l499 439l110 -135l-425 -376l-3 -18l281 -360zM888 25l-344 443l22 122l499 439l110 -135l-425 -376l-3 -18l281 -360z" />
    <glyph glyph-name="logicalnot" unicode="&#xac;" 
d="M133 717l33 186h1000l-33 -186h-1000zM874 350l83 467h194l-83 -467h-194z" />
    <glyph glyph-name="uni00AD" unicode="&#xad;" 
d="M115 616l33 186h1000l-33 -186h-1000z" />
    <glyph glyph-name="registered" unicode="&#xae;" 
d="M509 15q-220 0 -344 129t-124 358q0 284 85 486t244.5 309.5t383.5 107.5q221 0 344 -132.5t123 -369.5q0 -279 -84.5 -477.5t-244 -304.5t-383.5 -106zM324 396l112 634h155l-112 -634h-155zM708 396l-81 212l149 27l104 -239h-172zM537 169q242 0 378 186t136 518
q0 179 -85.5 278.5t-237.5 99.5q-244 0 -380.5 -189.5t-136.5 -527.5q0 -172 86 -268.5t240 -96.5zM506 600l23 130h154q49 0 79 27.5t30 71.5q0 34 -20.5 52.5t-58.5 18.5h-174l23 130h174q100 0 153 -51.5t53 -144.5q0 -103 -78.5 -168.5t-203.5 -65.5h-154z" />
    <glyph glyph-name="macron" unicode="&#xaf;" 
d="M297 1248l34 188h859l-34 -188h-859z" />
    <glyph glyph-name="degree" unicode="&#xb0;" 
d="M628 690q-178 0 -262 99t-54 276q20 118 80 202t153.5 128.5t214.5 44.5q179 0 262.5 -99t53.5 -276q-20 -118 -80 -202t-153.5 -128.5t-214.5 -44.5zM658 860q88 0 147 54t76 151t-22.5 151t-128.5 54q-88 0 -147 -54t-76 -151t23 -151t128 -54z" />
    <glyph glyph-name="plusminus" unicode="&#xb1;" 
d="M444 246l172 978h212l-172 -978h-212zM128 683l32 186h999l-32 -186h-999zM39 186l33 186h1000l-33 -186h-1000z" />
    <glyph glyph-name="uni00B2" unicode="&#xb2;" 
d="M445 802l-16 157q86 28 166.5 64t132 82.5t51.5 103.5q0 71 -88 71q-82 0 -177 -36l-35 138q63 33 122 45.5t135 12.5q110 0 173 -50t63 -134q0 -66 -42.5 -121t-110.5 -100t-144 -80v-153h-230zM471 802l-19 140h490l-24 -140h-447z" />
    <glyph glyph-name="uni00B3" unicode="&#xb3;" 
d="M597 793q-61 0 -111.5 7t-89.5 19l66 146q30 -6 69.5 -13.5t90.5 -7.5q64 0 104.5 16.5t40.5 46.5q0 52 -118 52h-64l17 96l170 -15q76 -7 121 -41.5t45 -95.5q0 -72 -48 -118.5t-126 -69t-167 -22.5zM585 1059l10 116q70 5 112.5 15.5t62.5 24.5t20 31q0 44 -103 44
q-97 0 -181 -29l6 149q52 16 110 23t121 7q113 0 173.5 -35.5t60.5 -102.5q0 -58 -50 -96t-126 -45l-13 -72z" />
    <glyph glyph-name="acute" unicode="&#xb4;" 
d="M627 1248l217 380h246l-267 -380h-196z" />
    <glyph glyph-name="uni00B5" unicode="&#xb5;" 
d="M478 -469l-16 1q-169 11 -255 70.5t-114 179.5t-22 312q4 129 23.5 272.5t53.5 318t80 395.5l204 -29q-46 -248 -79.5 -430t-51.5 -313.5t-20 -231.5q0 -114 7 -186t47.5 -110.5t140.5 -53.5l46 -7zM292 -21l-56 1l15 189h106q114 0 207 57.5t157 168.5t89 272l-18 -416
h-66l57 48q-31 -98 -88 -171t-154.5 -112t-248.5 -37zM1050 -10q-108 0 -169 24t-82 84t-11 167l8 111l-19 105l103 578h217l-130 -730q-16 -91 14 -127.5t123 -36.5h29l-31 -175h-52z" />
    <glyph glyph-name="paragraph" unicode="&#xb6;" 
d="M706 0l251 1420h202l-251 -1420h-202zM337 0l227 1286h200l-227 -1286h-200zM540 610q-196 20 -306 118t-110 254q0 206 171 322t475 116zM706 1230l64 190h547l-34 -190h-577z" />
    <glyph glyph-name="periodcentered" unicode="&#xb7;" 
d="M632 562q-61 0 -104.5 43.5t-43.5 104.5q0 62 43.5 105t104.5 43q62 0 105 -43t43 -105q0 -61 -43 -104.5t-105 -43.5z" />
    <glyph glyph-name="cedilla" unicode="&#xb8;" 
d="M237 -480l27 150q200 0 200 73q0 56 -143 82l125 224l107 -51l-44 -98q73 -19 110 -58t37 -95q0 -112 -106.5 -169.5t-312.5 -57.5z" />
    <glyph glyph-name="uni00B9" unicode="&#xb9;" 
d="M586 800l110 620h158l-110 -620h-158zM388 800l25 141h207l-25 -141h-207zM734 800l25 141h172l-25 -141h-172zM469 1209l28 158l199 53l-18 -160z" />
    <glyph glyph-name="ordmasculine" unicode="&#xba;" 
d="M642 770q-136 0 -213 74.5t-77 199.5q0 112 53.5 201.5t146.5 142t209 52.5q135 0 212.5 -74t77.5 -200q0 -112 -53.5 -201.5t-146 -142t-209.5 -52.5zM669 920q54 0 98.5 31t70.5 83.5t26 116.5t-34.5 101.5t-95.5 37.5q-54 0 -98 -31t-70.5 -83.5t-26.5 -116.5
t34.5 -101.5t95.5 -37.5z" />
    <glyph glyph-name="guillemotright" unicode="&#xbb;" 
d="M134 25l-110 135l425 376l3 18l-281 360l140 115l344 -443l-22 -122zM629 25l-110 135l425 376l3 18l-281 360l140 115l344 -443l-22 -122z" />
    <glyph glyph-name="onequarter" unicode="&#xbc;" 
d="M200 284l-65 116l1021 722l64 -110zM326 800l110 620h158l-110 -620h-158zM128 800l25 141h207l-25 -141h-207zM474 800l25 141h172l-25 -141h-172zM209 1209l28 158l199 53l-18 -160zM824 0l108 618h158l-108 -618h-158zM521 106l87 135h268l-24 -135h-331zM522 106
l163 479h162l-163 -479h-162zM990 106l24 135h79l-24 -135h-79z" />
    <glyph glyph-name="onehalf" unicode="&#xbd;" 
d="M168 284l-65 116l1021 722l64 -110zM326 800l110 620h158l-110 -620h-158zM128 800l25 141h207l-25 -141h-207zM474 800l25 141h172l-25 -141h-172zM209 1209l28 158l199 53l-18 -160zM573 -1l-16 157q86 28 166.5 64t132 82.5t51.5 103.5q0 71 -88 71q-82 0 -177 -36
l-35 138q63 33 122 45.5t135 12.5q110 0 173 -50t63 -134q0 -66 -42.5 -121t-110.5 -100t-144 -80v-153h-230zM599 -1l-19 140h490l-24 -140h-447z" />
    <glyph glyph-name="threequarters" unicode="&#xbe;" 
d="M168 284l-65 116l1021 722l64 -110zM337 793q-61 0 -111.5 7t-89.5 19l66 146q30 -6 69.5 -13.5t90.5 -7.5q64 0 104.5 16.5t40.5 46.5q0 52 -118 52h-64l17 96l170 -15q76 -7 121 -41.5t45 -95.5q0 -72 -48 -118.5t-126 -69t-167 -22.5zM325 1059l10 116
q70 5 112.5 15.5t62.5 24.5t20 31q0 44 -103 44q-97 0 -181 -29l6 149q52 16 110 23t121 7q113 0 173.5 -35.5t60.5 -102.5q0 -58 -50 -96t-126 -45l-13 -72zM824 0l108 618h158l-108 -618h-158zM521 106l87 135h268l-24 -135h-331zM522 106l163 479h162l-163 -479h-162z
M990 106l24 135h79l-24 -135h-79z" />
    <glyph glyph-name="questiondown" unicode="&#xbf;" 
d="M439 -380q-163 0 -255 79t-92 219q0 114 64.5 200.5t188.5 173.5q101 71 150.5 135.5t59.5 127.5l8 49h196l-8 -63q-10 -78 -45.5 -142t-94 -120.5t-137.5 -112.5q-52 -37 -88 -70.5t-55 -69.5t-19 -81q0 -64 45.5 -99.5t127.5 -35.5zM439 -380l46 190q93 0 193 47
t177 125l113 -153q-88 -94 -232 -151.5t-297 -57.5zM709 783q-61 0 -104.5 43.5t-43.5 104.5q0 62 43.5 105t104.5 43q62 0 105 -43t43 -105q0 -61 -43 -104.5t-105 -43.5z" />
    <glyph glyph-name="Agrave" unicode="&#xc0;" 
d="M-48 0l630 1421h321q26 -113 49.5 -256.5t43 -300.5t34 -313.5t23 -298t9.5 -252.5h-212q1 92 -5.5 217t-18 265t-27 280.5t-32 266.5t-32.5 220h-18l-543 -1249h-222zM215 346l41 190h720l-41 -190h-720zM659 1580l-216 250h292l166 -250h-242z" />
    <glyph glyph-name="Aacute" unicode="&#xc1;" 
d="M-48 0l630 1421h321q26 -113 49.5 -256.5t43 -300.5t34 -313.5t23 -298t9.5 -252.5h-212q1 92 -5.5 217t-18 265t-27 280.5t-32 266.5t-32.5 220h-18l-543 -1249h-222zM215 346l41 190h720l-41 -190h-720zM654 1580l210 251h284l-262 -251h-232z" />
    <glyph glyph-name="Acircumflex" unicode="&#xc2;" 
d="M-48 0l630 1421h321q26 -113 49.5 -256.5t43 -300.5t34 -313.5t23 -298t9.5 -252.5h-212q1 92 -5.5 217t-18 265t-27 280.5t-32 266.5t-32.5 220h-18l-543 -1249h-222zM215 346l41 190h720l-41 -190h-720zM436 1580l306 260h172l214 -260h-212l-136 205h106l-218 -205
h-232z" />
    <glyph glyph-name="Atilde" unicode="&#xc3;" 
d="M-48 0l630 1421h321q26 -113 49.5 -256.5t43 -300.5t34 -313.5t23 -298t9.5 -252.5h-212q1 92 -5.5 217t-18 265t-27 280.5t-32 266.5t-32.5 220h-18l-543 -1249h-222zM215 346l41 190h720l-41 -190h-720zM397 1566l9 50q23 125 86 187.5t168 62.5q35 0 78 -7.5t87.5 -18
t83 -18t63.5 -7.5q53 0 65 60l11 60h185l-9 -50q-21 -120 -79 -180t-152 -60q-34 0 -76 7.5t-86.5 18t-83.5 18t-67 7.5q-74 0 -87 -70l-11 -60h-185z" />
    <glyph glyph-name="Adieresis" unicode="&#xc4;" 
d="M-48 0l630 1421h321q26 -113 49.5 -256.5t43 -300.5t34 -313.5t23 -298t9.5 -252.5h-212q1 92 -5.5 217t-18 265t-27 280.5t-32 266.5t-32.5 220h-18l-543 -1249h-222zM215 346l41 190h720l-41 -190h-720zM1017 1580q-55 0 -94.5 39.5t-39.5 94.5q0 56 39.5 95t94.5 39
q56 0 95 -39t39 -95q0 -55 -39 -94.5t-95 -39.5zM601 1580q-55 0 -94.5 39.5t-39.5 94.5q0 56 39.5 95t94.5 39q56 0 95 -39t39 -95q0 -55 -39 -94.5t-95 -39.5z" />
    <glyph glyph-name="Aring" unicode="&#xc5;" 
d="M-48 0l630 1421h321q26 -113 49.5 -256.5t43 -300.5t34 -313.5t23 -298t9.5 -252.5h-212q1 92 -5.5 217t-18 265t-27 280.5t-32 266.5t-32.5 220h-18l-543 -1249h-222zM215 346l41 190h720l-41 -190h-720zM769 1488q-93 0 -149.5 47t-56.5 124q0 109 76.5 175t201.5 66
q93 0 149.5 -47t56.5 -124q0 -109 -76.5 -175t-201.5 -66zM789 1604q51 0 82.5 31t31.5 81q0 31 -22.5 50t-59.5 19q-51 0 -82.5 -31t-31.5 -82q0 -31 22.5 -49.5t59.5 -18.5z" />
    <glyph glyph-name="AE" unicode="&#xc6;" 
d="M491 0l250 1420h198l-250 -1420h-198zM501 0l34 190h503l-33 -190h-504zM610 616l33 190h444l-33 -190h-444zM718 1230l33 190h506l-35 -190h-504zM-51 0l628 1420h290l-141 -172h-38l-529 -1248h-210zM188 237l34 180h460l-34 -180h-460z" />
    <glyph glyph-name="Ccedilla" unicode="&#xc7;" 
d="M666 -20q-187 0 -311.5 60.5t-187 181t-62.5 301.5q0 203 58.5 371t165.5 290t254.5 189t325.5 67q221 0 344 -159l-143 -147q-97 122 -230 122q-161 0 -288 -94.5t-200 -258.5t-73 -373q0 -122 42 -203.5t125 -122t207 -40.5q170 0 347 60l14 -176q-192 -68 -388 -68z
M317 -480l27 150q200 0 200 73q0 56 -143 82l125 224l107 -51l-44 -98q73 -19 110 -58t37 -95q0 -112 -106.5 -169.5t-312.5 -57.5z" />
    <glyph glyph-name="Egrave" unicode="&#xc8;" 
d="M67 0l250 1420h209l-250 -1420h-209zM67 0l34 190h938l-33 -190h-939zM176 616l33 190h759l-33 -190h-759zM284 1230l33 190h939l-33 -190h-939zM699 1580l-216 250h292l166 -250h-242z" />
    <glyph glyph-name="Eacute" unicode="&#xc9;" 
d="M67 0l250 1420h209l-250 -1420h-209zM67 0l34 190h938l-33 -190h-939zM176 616l33 190h759l-33 -190h-759zM284 1230l33 190h939l-33 -190h-939zM694 1580l210 251h284l-262 -251h-232z" />
    <glyph glyph-name="Ecircumflex" unicode="&#xca;" 
d="M67 0l250 1420h209l-250 -1420h-209zM67 0l34 190h938l-33 -190h-939zM176 616l33 190h759l-33 -190h-759zM284 1230l33 190h939l-33 -190h-939zM476 1580l306 260h172l214 -260h-212l-136 205h106l-218 -205h-232z" />
    <glyph glyph-name="Edieresis" unicode="&#xcb;" 
d="M67 0l250 1420h209l-250 -1420h-209zM67 0l34 190h938l-33 -190h-939zM176 616l33 190h759l-33 -190h-759zM284 1230l33 190h939l-33 -190h-939zM1057 1580q-55 0 -94.5 39.5t-39.5 94.5q0 56 39.5 95t94.5 39q56 0 95 -39t39 -95q0 -55 -39 -94.5t-95 -39.5zM641 1580
q-55 0 -94.5 39.5t-39.5 94.5q0 56 39.5 95t94.5 39q56 0 95 -39t39 -95q0 -55 -39 -94.5t-95 -39.5z" />
    <glyph glyph-name="Igrave" unicode="&#xcc;" 
d="M403 0l250 1420h208l-250 -1420h-208zM75 0l33 190h863l-33 -190h-863zM292 1230l33 190h863l-33 -190h-863zM659 1580l-216 250h292l166 -250h-242z" />
    <glyph glyph-name="Iacute" unicode="&#xcd;" 
d="M403 0l250 1420h208l-250 -1420h-208zM75 0l33 190h863l-33 -190h-863zM292 1230l33 190h863l-33 -190h-863zM654 1580l210 251h284l-262 -251h-232z" />
    <glyph glyph-name="Icircumflex" unicode="&#xce;" 
d="M403 0l250 1420h208l-250 -1420h-208zM75 0l33 190h863l-33 -190h-863zM292 1230l33 190h863l-33 -190h-863zM436 1580l306 260h172l214 -260h-212l-136 205h106l-218 -205h-232z" />
    <glyph glyph-name="Idieresis" unicode="&#xcf;" 
d="M403 0l250 1420h208l-250 -1420h-208zM75 0l33 190h863l-33 -190h-863zM292 1230l33 190h863l-33 -190h-863zM1017 1580q-55 0 -94.5 39.5t-39.5 94.5q0 56 39.5 95t94.5 39q56 0 95 -39t39 -95q0 -55 -39 -94.5t-95 -39.5zM601 1580q-55 0 -94.5 39.5t-39.5 94.5
q0 56 39.5 95t94.5 39q56 0 95 -39t39 -95q0 -55 -39 -94.5t-95 -39.5z" />
    <glyph glyph-name="Eth" unicode="&#xd0;" 
d="M26 612l34 190h639l-34 -190h-639zM228 0l34 190h79q194 0 332 76.5t211.5 221t73.5 347.5q0 196 -120 305.5t-334 109.5q-105 0 -207 -20v190q109 20 232 20q303 0 473 -155t170 -432q0 -268 -104 -459t-299 -292.5t-470 -101.5h-71zM47 0l250 1420h208l-250 -1420h-208
z" />
    <glyph glyph-name="Ntilde" unicode="&#xd1;" 
d="M716 0l-245 1080h-92l62 340h107l245 -1080h50l-62 -340h-65zM55 0l250 1420h208l-250 -1420h-208zM751 0l250 1420h208l-250 -1420h-208zM397 1566l9 50q23 125 86 187.5t168 62.5q35 0 78 -7.5t87.5 -18t83 -18t63.5 -7.5q53 0 65 60l11 60h185l-9 -50
q-21 -120 -79 -180t-152 -60q-34 0 -76 7.5t-86.5 18t-83.5 18t-67 7.5q-74 0 -87 -70l-11 -60h-185z" />
    <glyph glyph-name="Ograve" unicode="&#xd2;" 
d="M513 -20q-195 0 -304 128.5t-109 357.5q0 306 77.5 524t223.5 334t351 116q194 0 303 -125.5t109 -349.5q0 -309 -77.5 -529.5t-223 -338t-350.5 -117.5zM539 164q129 0 221 92.5t141 266t49 417.5q0 149 -57.5 232.5t-161.5 83.5q-131 0 -224.5 -91t-143 -262
t-49.5 -412q0 -154 59.5 -240.5t165.5 -86.5zM659 1580l-216 250h292l166 -250h-242z" />
    <glyph glyph-name="Oacute" unicode="&#xd3;" 
d="M513 -20q-195 0 -304 128.5t-109 357.5q0 306 77.5 524t223.5 334t351 116q194 0 303 -125.5t109 -349.5q0 -309 -77.5 -529.5t-223 -338t-350.5 -117.5zM539 164q129 0 221 92.5t141 266t49 417.5q0 149 -57.5 232.5t-161.5 83.5q-131 0 -224.5 -91t-143 -262
t-49.5 -412q0 -154 59.5 -240.5t165.5 -86.5zM654 1580l210 251h284l-262 -251h-232z" />
    <glyph glyph-name="Ocircumflex" unicode="&#xd4;" 
d="M513 -20q-195 0 -304 128.5t-109 357.5q0 306 77.5 524t223.5 334t351 116q194 0 303 -125.5t109 -349.5q0 -309 -77.5 -529.5t-223 -338t-350.5 -117.5zM539 164q129 0 221 92.5t141 266t49 417.5q0 149 -57.5 232.5t-161.5 83.5q-131 0 -224.5 -91t-143 -262
t-49.5 -412q0 -154 59.5 -240.5t165.5 -86.5zM436 1580l306 260h172l214 -260h-212l-136 205h106l-218 -205h-232z" />
    <glyph glyph-name="Otilde" unicode="&#xd5;" 
d="M513 -20q-195 0 -304 128.5t-109 357.5q0 306 77.5 524t223.5 334t351 116q194 0 303 -125.5t109 -349.5q0 -309 -77.5 -529.5t-223 -338t-350.5 -117.5zM539 164q129 0 221 92.5t141 266t49 417.5q0 149 -57.5 232.5t-161.5 83.5q-131 0 -224.5 -91t-143 -262
t-49.5 -412q0 -154 59.5 -240.5t165.5 -86.5zM397 1566l9 50q23 125 86 187.5t168 62.5q35 0 78 -7.5t87.5 -18t83 -18t63.5 -7.5q53 0 65 60l11 60h185l-9 -50q-21 -120 -79 -180t-152 -60q-34 0 -76 7.5t-86.5 18t-83.5 18t-67 7.5q-74 0 -87 -70l-11 -60h-185z" />
    <glyph glyph-name="Odieresis" unicode="&#xd6;" 
d="M513 -20q-195 0 -304 128.5t-109 357.5q0 306 77.5 524t223.5 334t351 116q194 0 303 -125.5t109 -349.5q0 -309 -77.5 -529.5t-223 -338t-350.5 -117.5zM539 164q129 0 221 92.5t141 266t49 417.5q0 149 -57.5 232.5t-161.5 83.5q-131 0 -224.5 -91t-143 -262
t-49.5 -412q0 -154 59.5 -240.5t165.5 -86.5zM1017 1580q-55 0 -94.5 39.5t-39.5 94.5q0 56 39.5 95t94.5 39q56 0 95 -39t39 -95q0 -55 -39 -94.5t-95 -39.5zM601 1580q-55 0 -94.5 39.5t-39.5 94.5q0 56 39.5 95t94.5 39q56 0 95 -39t39 -95q0 -55 -39 -94.5t-95 -39.5z
" />
    <glyph glyph-name="multiply" unicode="&#xd7;" 
d="M209 188l959 847l-121 153l-960 -849zM881 188l152 119l-653 881l-153 -121z" />
    <glyph glyph-name="Oslash" unicode="&#xd8;" 
d="M86 -142l-129 101l1197 1581l129 -91zM513 -20q-195 0 -304 128.5t-109 357.5q0 306 77.5 524t223.5 334t351 116q194 0 303 -125.5t109 -349.5q0 -309 -77.5 -529.5t-223 -338t-350.5 -117.5zM539 164q129 0 221 92.5t141 266t49 417.5q0 149 -57.5 232.5t-161.5 83.5
q-131 0 -224.5 -91t-143 -262t-49.5 -412q0 -154 59.5 -240.5t165.5 -86.5z" />
    <glyph glyph-name="Ugrave" unicode="&#xd9;" 
d="M539 -20q-246 0 -349.5 120.5t-62.5 355.5l170 964h208l-170 -964q-25 -144 31 -218t190 -74q117 0 187.5 73.5t95.5 218.5l170 964h208l-170 -964q-42 -238 -170 -357t-338 -119zM659 1580l-216 250h292l166 -250h-242z" />
    <glyph glyph-name="Uacute" unicode="&#xda;" 
d="M539 -20q-246 0 -349.5 120.5t-62.5 355.5l170 964h208l-170 -964q-25 -144 31 -218t190 -74q117 0 187.5 73.5t95.5 218.5l170 964h208l-170 -964q-42 -238 -170 -357t-338 -119zM654 1580l210 251h284l-262 -251h-232z" />
    <glyph glyph-name="Ucircumflex" unicode="&#xdb;" 
d="M539 -20q-246 0 -349.5 120.5t-62.5 355.5l170 964h208l-170 -964q-25 -144 31 -218t190 -74q117 0 187.5 73.5t95.5 218.5l170 964h208l-170 -964q-42 -238 -170 -357t-338 -119zM436 1580l306 260h172l214 -260h-212l-136 205h106l-218 -205h-232z" />
    <glyph glyph-name="Udieresis" unicode="&#xdc;" 
d="M539 -20q-246 0 -349.5 120.5t-62.5 355.5l170 964h208l-170 -964q-25 -144 31 -218t190 -74q117 0 187.5 73.5t95.5 218.5l170 964h208l-170 -964q-42 -238 -170 -357t-338 -119zM1017 1580q-55 0 -94.5 39.5t-39.5 94.5q0 56 39.5 95t94.5 39q56 0 95 -39t39 -95
q0 -55 -39 -94.5t-95 -39.5zM601 1580q-55 0 -94.5 39.5t-39.5 94.5q0 56 39.5 95t94.5 39q56 0 95 -39t39 -95q0 -55 -39 -94.5t-95 -39.5z" />
    <glyph glyph-name="Yacute" unicode="&#xdd;" 
d="M402 0l105 594h208l-105 -594h-208zM495 424l-317 974l212 32l224 -804h18q106 137 192 259.5t158 251.5t136 283h214q-83 -204 -185.5 -377t-227.5 -332.5t-275 -326.5zM654 1580l210 251h284l-262 -251h-232z" />
    <glyph glyph-name="Thorn" unicode="&#xde;" 
d="M67 0l250 1420h208l-250 -1420h-208zM143 165l33 190h112q320 0 485 108.5t165 319.5q0 134 -92.5 203t-271.5 69q-183 0 -298 -20l33 190q115 20 298 20q269 0 407 -114t138 -335q0 -311 -227 -471t-670 -160h-112z" />
    <glyph glyph-name="germandbls" unicode="&#xdf;" 
d="M720 -20q-80 0 -140 8t-107 22l55 193q71 -16 126.5 -24.5t98.5 -8.5q74 0 115.5 40.5t41.5 110.5q0 56 -30 94.5t-67 74.5q-41 41 -83 98t-42 148q0 92 42.5 159t78.5 110q11 13 37.5 46.5t50 79.5t23.5 94q0 47 -31 75.5t-91 29.5q-114 1 -184 -91t-104 -286
l-249 -1413h-215l247 1403q35 198 103.5 326t175.5 189.5t255 61.5q149 0 228 -73t79 -209q0 -87 -26 -150t-57.5 -103.5t-49.5 -58.5q-12 -13 -36 -41t-43.5 -63.5t-19.5 -73.5q0 -39 29.5 -75t60.5 -73q33 -39 63 -78t49.5 -83.5t19.5 -101.5q0 -105 -51.5 -185.5
t-142.5 -126t-210 -45.5z" />
    <glyph glyph-name="agrave" unicode="&#xe0;" 
d="M347 -21q-136 0 -210 78t-74 220q0 180 76.5 326.5t214.5 250.5t323 160t402 56h20l-132 -753q-14 -80 12.5 -116t114.5 -36h41l-30 -175h-71q-77 0 -128.5 15.5t-80 49t-36.5 88.5t2 134l58 -26h-116l53 58q-55 -157 -170 -243.5t-269 -86.5zM412 169q144 0 251 130
t150 368l52 290l81 -77q-140 -6 -261.5 -52t-213 -123.5t-143 -180t-51.5 -222.5q0 -64 35.5 -98.5t99.5 -34.5zM666 1248l-166 380h203l146 -380h-183z" />
    <glyph glyph-name="aacute" unicode="&#xe1;" 
d="M347 -21q-136 0 -210 78t-74 220q0 180 76.5 326.5t214.5 250.5t323 160t402 56h20l-132 -753q-14 -80 12.5 -116t114.5 -36h41l-30 -175h-71q-77 0 -128.5 15.5t-80 49t-36.5 88.5t2 134l58 -26h-116l53 58q-55 -157 -170 -243.5t-269 -86.5zM412 169q144 0 251 130
t150 368l52 290l81 -77q-140 -6 -261.5 -52t-213 -123.5t-143 -180t-51.5 -222.5q0 -64 35.5 -98.5t99.5 -34.5zM657 1248l217 380h246l-267 -380h-196z" />
    <glyph glyph-name="acircumflex" unicode="&#xe2;" 
d="M347 -21q-136 0 -210 78t-74 220q0 180 76.5 326.5t214.5 250.5t323 160t402 56h20l-132 -753q-14 -80 12.5 -116t114.5 -36h41l-30 -175h-71q-77 0 -128.5 15.5t-80 49t-36.5 88.5t2 134l58 -26h-116l53 58q-55 -157 -170 -243.5t-269 -86.5zM412 169q144 0 251 130
t150 368l52 290l81 -77q-140 -6 -261.5 -52t-213 -123.5t-143 -180t-51.5 -222.5q0 -64 35.5 -98.5t99.5 -34.5zM910 1628l173 -380h-207l-77 246h20l-171 -246h-217l307 380h172z" />
    <glyph glyph-name="atilde" unicode="&#xe3;" 
d="M347 -21q-136 0 -210 78t-74 220q0 180 76.5 326.5t214.5 250.5t323 160t402 56h20l-132 -753q-14 -80 12.5 -116t114.5 -36h41l-30 -175h-71q-77 0 -128.5 15.5t-80 49t-36.5 88.5t2 134l58 -26h-116l53 58q-55 -157 -170 -243.5t-269 -86.5zM412 169q144 0 251 130
t150 368l52 290l81 -77q-140 -6 -261.5 -52t-213 -123.5t-143 -180t-51.5 -222.5q0 -64 35.5 -98.5t99.5 -34.5zM402 1256l6 30q26 133 79.5 201.5t174.5 68.5q46 0 85.5 -17t78.5 -34.5t83 -17.5q37 0 59.5 24t29.5 70l10 60h185l-6 -50q-17 -140 -80.5 -210t-179.5 -70
q-51 0 -95.5 17.5t-82 34.5t-68.5 17q-38 0 -59 -21.5t-29 -62.5l-8 -40h-183z" />
    <glyph glyph-name="adieresis" unicode="&#xe4;" 
d="M347 -21q-136 0 -210 78t-74 220q0 180 76.5 326.5t214.5 250.5t323 160t402 56h20l-132 -753q-14 -80 12.5 -116t114.5 -36h41l-30 -175h-71q-77 0 -128.5 15.5t-80 49t-36.5 88.5t2 134l58 -26h-116l53 58q-55 -157 -170 -243.5t-269 -86.5zM412 169q144 0 251 130
t150 368l52 290l81 -77q-140 -6 -261.5 -52t-213 -123.5t-143 -180t-51.5 -222.5q0 -64 35.5 -98.5t99.5 -34.5zM988 1238q-55 0 -94.5 39.5t-39.5 94.5q0 56 39.5 95t94.5 39q56 0 95 -39t39 -95q0 -55 -39 -94.5t-95 -39.5zM568 1238q-55 0 -94.5 39.5t-39.5 94.5
q0 56 39.5 95t94.5 39q56 0 95 -39t39 -95q0 -55 -39 -94.5t-95 -39.5z" />
    <glyph glyph-name="aring" unicode="&#xe5;" 
d="M347 -21q-136 0 -210 78t-74 220q0 180 76.5 326.5t214.5 250.5t323 160t402 56h20l-132 -753q-14 -80 12.5 -116t114.5 -36h41l-30 -175h-71q-77 0 -128.5 15.5t-80 49t-36.5 88.5t2 134l58 -26h-116l53 58q-55 -157 -170 -243.5t-269 -86.5zM412 169q144 0 251 130
t150 368l52 290l81 -77q-140 -6 -261.5 -52t-213 -123.5t-143 -180t-51.5 -222.5q0 -64 35.5 -98.5t99.5 -34.5zM747 1198q-92 0 -148.5 49t-56.5 128q0 115 77 185t204 70q92 0 148 -48.5t56 -128.5q0 -115 -77 -185t-203 -70zM768 1314q52 0 83.5 32t31.5 84q0 38 -22 61
t-59 23q-52 0 -84 -31.5t-32 -84.5q0 -37 22.5 -60.5t59.5 -23.5z" />
    <glyph glyph-name="ae" unicode="&#xe6;" 
d="M908 170q67 0 135 20l41 -176q-92 -34 -185 -34q-166 0 -259 108t-93 301q0 208 52 363t146 241.5t219 86.5q104 0 161.5 -69t57.5 -191q0 -199 -135 -315.5t-375 -123.5l-21 160q155 4 242 70t87 182q0 45 -19.5 71t-55.5 26q-61 0 -107.5 -61t-72.5 -171t-27 -257
q1 -109 56 -170t153 -61zM237 -20q-127 0 -194.5 66t-67.5 188q0 120 59 210t164.5 140t245.5 50q47 0 93 -9.5t73 -26.5l-75 -174q-17 23 -50.5 26.5t-76.5 3.5q-100 0 -159.5 -51t-59.5 -136q0 -97 104 -97q66 0 117 55t67 155l31 176l126 -322h-169l88 22
q-29 -145 -108 -210.5t-208 -65.5zM472 310l8 82l39 224q14 77 -12.5 135t-87 91t-149.5 35l-109 3l30 190l132 -3q185 -4 277 -133t46 -350l-57 -274h-117z" />
    <glyph glyph-name="ccedilla" unicode="&#xe7;" 
d="M556 170q104 0 203.5 34t176.5 89l72 -164q-98 -67 -224 -108t-257 -41q-197 0 -305 102t-108 287q0 215 75 374.5t210.5 248t317.5 88.5q164 0 261 -52t147 -168l-155 -123q-52 80 -119 116.5t-162 36.5q-108 0 -189.5 -62t-126 -174t-45.5 -263q1 -105 60.5 -163
t167.5 -58zM307 -480l27 150q200 0 200 73q0 56 -143 82l125 224l107 -51l-44 -98q73 -19 110 -58t37 -95q0 -112 -106.5 -169.5t-312.5 -57.5z" />
    <glyph glyph-name="egrave" unicode="&#xe8;" 
d="M587 170q80 0 171 25t175 70l69 -171q-98 -54 -210 -84t-214 -30q-206 0 -321.5 108t-115.5 301q0 208 78.5 363t219.5 241.5t329 86.5q148 0 230.5 -74t82.5 -206q0 -196 -200.5 -309t-559.5 -120l-21 160q268 4 417.5 71t149.5 185q0 48 -33 75.5t-94 27.5
q-119 0 -209.5 -61t-141 -171t-51.5 -257q1 -109 67 -170t182 -61zM651 1248l-166 380h203l146 -380h-183z" />
    <glyph glyph-name="eacute" unicode="&#xe9;" 
d="M587 170q80 0 171 25t175 70l69 -171q-98 -54 -210 -84t-214 -30q-206 0 -321.5 108t-115.5 301q0 208 78.5 363t219.5 241.5t329 86.5q148 0 230.5 -74t82.5 -206q0 -196 -200.5 -309t-559.5 -120l-21 160q268 4 417.5 71t149.5 185q0 48 -33 75.5t-94 27.5
q-119 0 -209.5 -61t-141 -171t-51.5 -257q1 -109 67 -170t182 -61zM642 1248l217 380h246l-267 -380h-196z" />
    <glyph glyph-name="ecircumflex" unicode="&#xea;" 
d="M587 170q80 0 171 25t175 70l69 -171q-98 -54 -210 -84t-214 -30q-206 0 -321.5 108t-115.5 301q0 208 78.5 363t219.5 241.5t329 86.5q148 0 230.5 -74t82.5 -206q0 -196 -200.5 -309t-559.5 -120l-21 160q268 4 417.5 71t149.5 185q0 48 -33 75.5t-94 27.5
q-119 0 -209.5 -61t-141 -171t-51.5 -257q1 -109 67 -170t182 -61zM895 1628l173 -380h-207l-77 246h20l-171 -246h-217l307 380h172z" />
    <glyph glyph-name="edieresis" unicode="&#xeb;" 
d="M587 170q80 0 171 25t175 70l69 -171q-98 -54 -210 -84t-214 -30q-206 0 -321.5 108t-115.5 301q0 208 78.5 363t219.5 241.5t329 86.5q148 0 230.5 -74t82.5 -206q0 -196 -200.5 -309t-559.5 -120l-21 160q268 4 417.5 71t149.5 185q0 48 -33 75.5t-94 27.5
q-119 0 -209.5 -61t-141 -171t-51.5 -257q1 -109 67 -170t182 -61zM973 1238q-55 0 -94.5 39.5t-39.5 94.5q0 56 39.5 95t94.5 39q56 0 95 -39t39 -95q0 -55 -39 -94.5t-95 -39.5zM553 1238q-55 0 -94.5 39.5t-39.5 94.5q0 56 39.5 95t94.5 39q56 0 95 -39t39 -95
q0 -55 -39 -94.5t-95 -39.5z" />
    <glyph glyph-name="igrave" unicode="&#xec;" 
d="M966 225l69 -161q-61 -35 -129 -59.5t-156 -24.5q-181 0 -269 85t-78 249q5 75 29.5 146t53 138t43.5 129q21 82 -17.5 124t-133.5 42t-183 -23l-21 182q59 17 118 22.5t118 5.5q207 0 291 -94.5t39 -278.5q-17 -71 -44.5 -132.5t-50.5 -121.5t-28 -130
q-11 -153 172 -153q50 0 87.5 12.5t89.5 42.5zM636 1248l-166 380h203l146 -380h-183z" />
    <glyph glyph-name="iacute" unicode="&#xed;" 
d="M966 225l69 -161q-61 -35 -129 -59.5t-156 -24.5q-181 0 -269 85t-78 249q5 75 29.5 146t53 138t43.5 129q21 82 -17.5 124t-133.5 42t-183 -23l-21 182q59 17 118 22.5t118 5.5q207 0 291 -94.5t39 -278.5q-17 -71 -44.5 -132.5t-50.5 -121.5t-28 -130
q-11 -153 172 -153q50 0 87.5 12.5t89.5 42.5zM627 1248l217 380h246l-267 -380h-196z" />
    <glyph glyph-name="icircumflex" unicode="&#xee;" 
d="M966 225l69 -161q-61 -35 -129 -59.5t-156 -24.5q-181 0 -269 85t-78 249q5 75 29.5 146t53 138t43.5 129q21 82 -17.5 124t-133.5 42t-183 -23l-21 182q59 17 118 22.5t118 5.5q207 0 291 -94.5t39 -278.5q-17 -71 -44.5 -132.5t-50.5 -121.5t-28 -130
q-11 -153 172 -153q50 0 87.5 12.5t89.5 42.5zM880 1628l173 -380h-207l-77 246h20l-171 -246h-217l307 380h172z" />
    <glyph glyph-name="idieresis" unicode="&#xef;" 
d="M966 225l69 -161q-61 -35 -129 -59.5t-156 -24.5q-181 0 -269 85t-78 249q5 75 29.5 146t53 138t43.5 129q21 82 -17.5 124t-133.5 42t-183 -23l-21 182q59 17 118 22.5t118 5.5q207 0 291 -94.5t39 -278.5q-17 -71 -44.5 -132.5t-50.5 -121.5t-28 -130
q-11 -153 172 -153q50 0 87.5 12.5t89.5 42.5zM958 1238q-55 0 -94.5 39.5t-39.5 94.5q0 56 39.5 95t94.5 39q56 0 95 -39t39 -95q0 -55 -39 -94.5t-95 -39.5zM538 1238q-55 0 -94.5 39.5t-39.5 94.5q0 56 39.5 95t94.5 39q56 0 95 -39t39 -95q0 -55 -39 -94.5t-95 -39.5z
" />
    <glyph glyph-name="eth" unicode="&#xf0;" 
d="M502 1416l48 100q234 -75 360.5 -197.5t164.5 -305t5 -439.5q-75 -594 -605 -594q-183 0 -286 92.5t-103 256.5q0 184 108 324t301.5 218.5t447.5 78.5l46 -190q-215 0 -369.5 -47t-237 -135t-82.5 -212q0 -92 55 -144t152 -52q318 0 363 496q12 140 4.5 254t-46 206
t-117 164t-209.5 126zM365 997l-40 175l860 250l40 -175z" />
    <glyph glyph-name="ntilde" unicode="&#xf1;" 
d="M75 0l187 1060h177l-7 -253l-142 -807h-215zM723 0l123 705q16 92 -13.5 138.5t-105.5 46.5q-81 0 -150 -47t-124.5 -156.5t-94.5 -296.5l50 429h44q32 125 127 193t228 68q161 0 224.5 -96.5t29.5 -286.5l-123 -697h-215zM372 1256l6 30q26 133 79.5 201.5t174.5 68.5
q46 0 85.5 -17t78.5 -34.5t83 -17.5q37 0 59.5 24t29.5 70l10 60h185l-6 -50q-17 -140 -80.5 -210t-179.5 -70q-51 0 -95.5 17.5t-82 34.5t-68.5 17q-38 0 -59 -21.5t-29 -62.5l-8 -40h-183z" />
    <glyph glyph-name="ograve" unicode="&#xf2;" 
d="M502 -20q-177 0 -276.5 101.5t-99.5 282.5q0 338 151 527t419 189q177 0 276.5 -104t99.5 -290q0 -333 -150.5 -519.5t-419.5 -186.5zM539 169q150 0 234.5 125.5t84.5 348.5q0 116 -50 181.5t-141 65.5q-154 0 -240.5 -125t-86.5 -348q0 -117 52.5 -182.5t146.5 -65.5z
M636 1248l-166 380h203l146 -380h-183z" />
    <glyph glyph-name="oacute" unicode="&#xf3;" 
d="M502 -20q-177 0 -276.5 101.5t-99.5 282.5q0 338 151 527t419 189q177 0 276.5 -104t99.5 -290q0 -333 -150.5 -519.5t-419.5 -186.5zM539 169q150 0 234.5 125.5t84.5 348.5q0 116 -50 181.5t-141 65.5q-154 0 -240.5 -125t-86.5 -348q0 -117 52.5 -182.5t146.5 -65.5z
M627 1248l217 380h246l-267 -380h-196z" />
    <glyph glyph-name="ocircumflex" unicode="&#xf4;" 
d="M502 -20q-177 0 -276.5 101.5t-99.5 282.5q0 338 151 527t419 189q177 0 276.5 -104t99.5 -290q0 -333 -150.5 -519.5t-419.5 -186.5zM539 169q150 0 234.5 125.5t84.5 348.5q0 116 -50 181.5t-141 65.5q-154 0 -240.5 -125t-86.5 -348q0 -117 52.5 -182.5t146.5 -65.5z
M880 1628l173 -380h-207l-77 246h20l-171 -246h-217l307 380h172z" />
    <glyph glyph-name="otilde" unicode="&#xf5;" 
d="M502 -20q-177 0 -276.5 101.5t-99.5 282.5q0 338 151 527t419 189q177 0 276.5 -104t99.5 -290q0 -333 -150.5 -519.5t-419.5 -186.5zM539 169q150 0 234.5 125.5t84.5 348.5q0 116 -50 181.5t-141 65.5q-154 0 -240.5 -125t-86.5 -348q0 -117 52.5 -182.5t146.5 -65.5z
M372 1256l6 30q26 133 79.5 201.5t174.5 68.5q46 0 85.5 -17t78.5 -34.5t83 -17.5q37 0 59.5 24t29.5 70l10 60h185l-6 -50q-17 -140 -80.5 -210t-179.5 -70q-51 0 -95.5 17.5t-82 34.5t-68.5 17q-38 0 -59 -21.5t-29 -62.5l-8 -40h-183z" />
    <glyph glyph-name="odieresis" unicode="&#xf6;" 
d="M502 -20q-177 0 -276.5 101.5t-99.5 282.5q0 338 151 527t419 189q177 0 276.5 -104t99.5 -290q0 -333 -150.5 -519.5t-419.5 -186.5zM539 169q150 0 234.5 125.5t84.5 348.5q0 116 -50 181.5t-141 65.5q-154 0 -240.5 -125t-86.5 -348q0 -117 52.5 -182.5t146.5 -65.5z
M958 1238q-55 0 -94.5 39.5t-39.5 94.5q0 56 39.5 95t94.5 39q56 0 95 -39t39 -95q0 -55 -39 -94.5t-95 -39.5zM538 1238q-55 0 -94.5 39.5t-39.5 94.5q0 56 39.5 95t94.5 39q56 0 95 -39t39 -95q0 -55 -39 -94.5t-95 -39.5z" />
    <glyph glyph-name="divide" unicode="&#xf7;" 
d="M115 616l33 186h1000l-33 -186h-1000zM555 151q-58 0 -99.5 41t-41.5 99q0 59 41.5 100t99.5 41q59 0 100 -41t41 -100q0 -58 -41 -99t-100 -41zM706 984q-58 0 -99.5 41.5t-41.5 99.5t41.5 99t99.5 41q59 0 100 -41t41 -99t-41.5 -99.5t-99.5 -41.5z" />
    <glyph glyph-name="oslash" unicode="&#xf8;" 
d="M158 -120l-94 68l943 1240l94 -68zM502 -20q-177 0 -276.5 101.5t-99.5 282.5q0 338 151 527t419 189q177 0 276.5 -104t99.5 -290q0 -333 -150.5 -519.5t-419.5 -186.5zM539 169q150 0 234.5 125.5t84.5 348.5q0 116 -50 181.5t-141 65.5q-154 0 -240.5 -125t-86.5 -348
q0 -117 52.5 -182.5t146.5 -65.5z" />
    <glyph glyph-name="ugrave" unicode="&#xf9;" 
d="M392 -21q-140 0 -217 83.5t-77 234.5q0 153 49.5 338.5t159.5 444.5l212 -39q-109 -265 -158 -435.5t-49 -283.5q0 -73 38 -113t107 -40q133 0 220 128.5t133 369.5l-18 -416h-66l57 48q-35 -98 -80 -170t-117.5 -111t-193.5 -39zM1058 -10q-108 0 -172 28.5t-87 89.5
t-10 158l-12 215l103 579h217l-128 -721q-17 -96 9.5 -135t114.5 -39h43l-31 -175h-47zM636 1248l-166 380h203l146 -380h-183z" />
    <glyph glyph-name="uacute" unicode="&#xfa;" 
d="M392 -21q-140 0 -217 83.5t-77 234.5q0 153 49.5 338.5t159.5 444.5l212 -39q-109 -265 -158 -435.5t-49 -283.5q0 -73 38 -113t107 -40q133 0 220 128.5t133 369.5l-18 -416h-66l57 48q-35 -98 -80 -170t-117.5 -111t-193.5 -39zM1058 -10q-108 0 -172 28.5t-87 89.5
t-10 158l-12 215l103 579h217l-128 -721q-17 -96 9.5 -135t114.5 -39h43l-31 -175h-47zM627 1248l217 380h246l-267 -380h-196z" />
    <glyph glyph-name="ucircumflex" unicode="&#xfb;" 
d="M392 -21q-140 0 -217 83.5t-77 234.5q0 153 49.5 338.5t159.5 444.5l212 -39q-109 -265 -158 -435.5t-49 -283.5q0 -73 38 -113t107 -40q133 0 220 128.5t133 369.5l-18 -416h-66l57 48q-35 -98 -80 -170t-117.5 -111t-193.5 -39zM1058 -10q-108 0 -172 28.5t-87 89.5
t-10 158l-12 215l103 579h217l-128 -721q-17 -96 9.5 -135t114.5 -39h43l-31 -175h-47zM880 1628l173 -380h-207l-77 246h20l-171 -246h-217l307 380h172z" />
    <glyph glyph-name="udieresis" unicode="&#xfc;" 
d="M392 -21q-140 0 -217 83.5t-77 234.5q0 153 49.5 338.5t159.5 444.5l212 -39q-109 -265 -158 -435.5t-49 -283.5q0 -73 38 -113t107 -40q133 0 220 128.5t133 369.5l-18 -416h-66l57 48q-35 -98 -80 -170t-117.5 -111t-193.5 -39zM1058 -10q-108 0 -172 28.5t-87 89.5
t-10 158l-12 215l103 579h217l-128 -721q-17 -96 9.5 -135t114.5 -39h43l-31 -175h-47zM958 1238q-55 0 -94.5 39.5t-39.5 94.5q0 56 39.5 95t94.5 39q56 0 95 -39t39 -95q0 -55 -39 -94.5t-95 -39.5zM538 1238q-55 0 -94.5 39.5t-39.5 94.5q0 56 39.5 95t94.5 39
q56 0 95 -39t39 -95q0 -55 -39 -94.5t-95 -39.5z" />
    <glyph glyph-name="yacute" unicode="&#xfd;" 
d="M3 -472l-89 175q228 99 401.5 227.5t299 292.5t207.5 371.5t127 465.5h214q-75 -389 -221 -678.5t-376.5 -497.5t-562.5 -356zM324 1080q147 -600 388 -909l-185 -120q-125 189 -230.5 440t-193.5 569zM557 1248l217 380h246l-267 -380h-196z" />
    <glyph glyph-name="thorn" unicode="&#xfe;" 
d="M365 -20q-70 0 -139.5 5.5t-140.5 15.5l90 194q65 -25 212 -25q151 0 271 72t189.5 196.5t69.5 281.5q0 81 -37 125.5t-105 44.5q-83 0 -167 -52t-151 -163t-99 -287l39 431h87l-52 -76q35 161 146 249t277 88q131 0 203.5 -83.5t72.5 -236.5q0 -167 -57.5 -309
t-161.5 -248t-243.5 -164.5t-303.5 -58.5zM209 -460l-215 1l293 1656q14 77 -8 112t-83 35q-25 0 -49.5 -2.5t-49.5 -8.5l-23 172q38 9 76 12.5t76 3.5q174 0 238.5 -84t31.5 -270z" />
    <glyph glyph-name="ydieresis" unicode="&#xff;" 
d="M3 -472l-89 175q228 99 401.5 227.5t299 292.5t207.5 371.5t127 465.5h214q-75 -389 -221 -678.5t-376.5 -497.5t-562.5 -356zM324 1080q147 -600 388 -909l-185 -120q-125 189 -230.5 440t-193.5 569zM888 1238q-55 0 -94.5 39.5t-39.5 94.5q0 56 39.5 95t94.5 39
q56 0 95 -39t39 -95q0 -55 -39 -94.5t-95 -39.5zM468 1238q-55 0 -94.5 39.5t-39.5 94.5q0 56 39.5 95t94.5 39q56 0 95 -39t39 -95q0 -55 -39 -94.5t-95 -39.5z" />
    <glyph glyph-name="Amacron" unicode="&#x100;" 
d="M-48 0l630 1421h321q26 -113 49.5 -256.5t43 -300.5t34 -313.5t23 -298t9.5 -252.5h-212q1 92 -5.5 217t-18 265t-27 280.5t-32 266.5t-32.5 220h-18l-543 -1249h-222zM215 346l41 190h720l-41 -190h-720zM400 1580l34 188h773l-34 -188h-773z" />
    <glyph glyph-name="amacron" unicode="&#x101;" 
d="M347 -21q-136 0 -210 78t-74 220q0 180 76.5 326.5t214.5 250.5t323 160t402 56h20l-132 -753q-14 -80 12.5 -116t114.5 -36h41l-30 -175h-71q-77 0 -128.5 15.5t-80 49t-36.5 88.5t2 134l58 -26h-116l53 58q-55 -157 -170 -243.5t-269 -86.5zM412 169q144 0 251 130
t150 368l52 290l81 -77q-140 -6 -261.5 -52t-213 -123.5t-143 -180t-51.5 -222.5q0 -64 35.5 -98.5t99.5 -34.5zM327 1248l34 188h859l-34 -188h-859z" />
    <glyph glyph-name="Abreve" unicode="&#x102;" 
d="M-48 0l630 1421h321q26 -113 49.5 -256.5t43 -300.5t34 -313.5t23 -298t9.5 -252.5h-212q1 92 -5.5 217t-18 265t-27 280.5t-32 266.5t-32.5 220h-18l-543 -1249h-222zM215 346l41 190h720l-41 -190h-720zM724 1570q-151 0 -222.5 65t-49.5 180q10 53 30 90l171 -43
q-4 -8 -6 -16t-3 -13q-10 -55 18 -86t88 -31q82 0 159 45.5t132 126.5l11 16l154 -81l-13 -19q-76 -110 -199.5 -172t-269.5 -62z" />
    <glyph glyph-name="abreve" unicode="&#x103;" 
d="M347 -21q-136 0 -210 78t-74 220q0 180 76.5 326.5t214.5 250.5t323 160t402 56h20l-132 -753q-14 -80 12.5 -116t114.5 -36h41l-30 -175h-71q-77 0 -128.5 15.5t-80 49t-36.5 88.5t2 134l58 -26h-116l53 58q-55 -157 -170 -243.5t-269 -86.5zM412 169q144 0 251 130
t150 368l52 290l81 -77q-140 -6 -261.5 -52t-213 -123.5t-143 -180t-51.5 -222.5q0 -64 35.5 -98.5t99.5 -34.5zM736 1220q-131 0 -206.5 66t-75.5 172q0 35 5 70.5t16 75.5l171 -15q-9 -26 -12 -49t-3 -42q0 -62 31 -96.5t97 -34.5q77 0 152.5 73t121.5 175l143 -80
q-83 -161 -200 -238t-240 -77z" />
    <glyph glyph-name="Aogonek" unicode="&#x104;" 
d="M840 -424q-210 0 -210 182q0 80 58.5 144t163.5 98v50l171 -20l39 -30q-74 -22 -138.5 -50t-104 -63t-39.5 -80q0 -63 86 -63q22 0 45.5 6t46.5 18l32 -159q-36 -16 -74 -24.5t-76 -8.5zM-48 0l630 1421h321q26 -113 49.5 -256.5t43 -300.5t34 -313.5t23 -298t9.5 -252.5
h-212q1 92 -5.5 217t-18 265t-27 280.5t-32 266.5t-32.5 220h-18l-543 -1249h-222zM215 346l41 190h720l-41 -190h-720z" />
    <glyph glyph-name="aogonek" unicode="&#x105;" 
d="M860 -423q-215 0 -215 170q0 74 49.5 138.5t173.5 106.5v80l92 -38l105 -44q-63 0 -125.5 -21t-103.5 -58t-41 -87q0 -80 78 -80q23 0 42 4.5t32 9.5l26 -163q-22 -9 -51.5 -13.5t-61.5 -4.5zM347 -21q-136 0 -210 78t-74 220q0 180 76.5 326.5t214.5 250.5t323 160
t402 56h20l-132 -753q-14 -80 12.5 -116t114.5 -36h41l-30 -175h-71q-77 0 -128.5 15.5t-80 49t-36.5 88.5t2 134l58 -26h-116l53 58q-55 -157 -170 -243.5t-269 -86.5zM412 169q144 0 251 130t150 368l52 290l81 -77q-140 -6 -261.5 -52t-213 -123.5t-143 -180
t-51.5 -222.5q0 -64 35.5 -98.5t99.5 -34.5z" />
    <glyph glyph-name="Cacute" unicode="&#x106;" 
d="M666 -20q-187 0 -311.5 60.5t-187 181t-62.5 301.5q0 203 58.5 371t165.5 290t254.5 189t325.5 67q221 0 344 -159l-143 -147q-97 122 -230 122q-161 0 -288 -94.5t-200 -258.5t-73 -373q0 -122 42 -203.5t125 -122t207 -40.5q170 0 347 60l14 -176q-192 -68 -388 -68z
M754 1580l210 251h284l-262 -251h-232z" />
    <glyph glyph-name="cacute" unicode="&#x107;" 
d="M556 170q104 0 203.5 34t176.5 89l72 -164q-98 -67 -224 -108t-257 -41q-197 0 -305 102t-108 287q0 215 75 374.5t210.5 248t317.5 88.5q164 0 261 -52t147 -168l-155 -123q-52 80 -119 116.5t-162 36.5q-108 0 -189.5 -62t-126 -174t-45.5 -263q1 -105 60.5 -163
t167.5 -58zM617 1248l217 380h246l-267 -380h-196z" />
    <glyph glyph-name="Ccircumflex" unicode="&#x108;" 
d="M666 -20q-187 0 -311.5 60.5t-187 181t-62.5 301.5q0 203 58.5 371t165.5 290t254.5 189t325.5 67q221 0 344 -159l-143 -147q-97 122 -230 122q-161 0 -288 -94.5t-200 -258.5t-73 -373q0 -122 42 -203.5t125 -122t207 -40.5q170 0 347 60l14 -176q-192 -68 -388 -68z
M536 1580l306 260h172l214 -260h-212l-136 205h106l-218 -205h-232z" />
    <glyph glyph-name="ccircumflex" unicode="&#x109;" 
d="M556 170q104 0 203.5 34t176.5 89l72 -164q-98 -67 -224 -108t-257 -41q-197 0 -305 102t-108 287q0 215 75 374.5t210.5 248t317.5 88.5q164 0 261 -52t147 -168l-155 -123q-52 80 -119 116.5t-162 36.5q-108 0 -189.5 -62t-126 -174t-45.5 -263q1 -105 60.5 -163
t167.5 -58zM870 1628l173 -380h-207l-77 246h20l-171 -246h-217l307 380h172z" />
    <glyph glyph-name="Cdotaccent" unicode="&#x10a;" 
d="M666 -20q-187 0 -311.5 60.5t-187 181t-62.5 301.5q0 203 58.5 371t165.5 290t254.5 189t325.5 67q221 0 344 -159l-143 -147q-97 122 -230 122q-161 0 -288 -94.5t-200 -258.5t-73 -373q0 -122 42 -203.5t125 -122t207 -40.5q170 0 347 60l14 -176q-192 -68 -388 -68z
M909 1580q-55 0 -94.5 39.5t-39.5 94.5q0 56 39.5 95t94.5 39q56 0 95 -39t39 -95q0 -55 -39 -94.5t-95 -39.5z" />
    <glyph glyph-name="cdotaccent" unicode="&#x10b;" 
d="M556 170q104 0 203.5 34t176.5 89l72 -164q-98 -67 -224 -108t-257 -41q-197 0 -305 102t-108 287q0 215 75 374.5t210.5 248t317.5 88.5q164 0 261 -52t147 -168l-155 -123q-52 80 -119 116.5t-162 36.5q-108 0 -189.5 -62t-126 -174t-45.5 -263q1 -105 60.5 -163
t167.5 -58zM739 1238q-55 0 -94.5 39.5t-39.5 94.5q0 56 39.5 95t94.5 39q56 0 95 -39t39 -95q0 -55 -39 -94.5t-95 -39.5z" />
    <glyph glyph-name="Ccaron" unicode="&#x10c;" 
d="M666 -20q-187 0 -311.5 60.5t-187 181t-62.5 301.5q0 203 58.5 371t165.5 290t254.5 189t325.5 67q221 0 344 -159l-143 -147q-97 122 -230 122q-161 0 -288 -94.5t-200 -258.5t-73 -373q0 -122 42 -203.5t125 -122t207 -40.5q170 0 347 60l14 -176q-192 -68 -388 -68z
M799 1580l-214 260h217l106 -156h-20l162 156h227l-306 -260h-172z" />
    <glyph glyph-name="ccaron" unicode="&#x10d;" 
d="M556 170q104 0 203.5 34t176.5 89l72 -164q-98 -67 -224 -108t-257 -41q-197 0 -305 102t-108 287q0 215 75 374.5t210.5 248t317.5 88.5q164 0 261 -52t147 -168l-155 -123q-52 80 -119 116.5t-162 36.5q-108 0 -189.5 -62t-126 -174t-45.5 -263q1 -105 60.5 -163
t167.5 -58zM626 1210l-173 380h207l77 -246h-20l171 246h217l-307 -380h-172z" />
    <glyph glyph-name="Dcaron" unicode="&#x10e;" 
d="M228 0l34 190h79q194 0 332 76.5t211.5 221t73.5 347.5q0 196 -120 305.5t-334 109.5q-105 0 -207 -20v190q109 20 232 20q303 0 473 -155t170 -432q0 -268 -104 -459t-299 -292.5t-470 -101.5h-71zM47 0l250 1420h208l-250 -1420h-208zM659 1580l-214 260h217l106 -156
h-20l162 156h227l-306 -260h-172z" />
    <glyph glyph-name="dcaron" unicode="&#x10f;" 
d="M1225 1188l107 380h222l-157 -380h-172zM352 -21q-138 0 -213.5 78t-75.5 220q0 183 76.5 331t214.5 253.5t323 162t402 56.5h18l-151 -190q-187 -8 -339 -87t-241 -208.5t-89 -292.5q0 -64 36.5 -98.5t103.5 -34.5q140 0 244.5 130t151.5 368l-12 -415h-116l100 57
q-50 -149 -163.5 -239.5t-269.5 -90.5zM1029 -10q-73 0 -123.5 18t-79.5 54.5t-37 93t3 133.5l12 330l104 578q14 77 -8 112t-83 35q-25 0 -49.5 -2.5t-49.5 -8.5l-23 172q38 9 76 12.5t76 3.5q174 0 238.5 -84t31.5 -270l-150 -849q-9 -51 -0.5 -85t35.5 -51t73 -17h61
l-31 -175h-76z" />
    <glyph glyph-name="Dcroat" unicode="&#x110;" 
d="M26 612l34 190h639l-34 -190h-639zM228 0l34 190h79q194 0 332 76.5t211.5 221t73.5 347.5q0 196 -120 305.5t-334 109.5q-105 0 -207 -20v190q109 20 232 20q303 0 473 -155t170 -432q0 -268 -104 -459t-299 -292.5t-470 -101.5h-71zM47 0l250 1420h208l-250 -1420h-208
z" />
    <glyph glyph-name="dcroat" unicode="&#x111;" 
d="M960 1500h215l-245 -1384l-58 49h241l-29 -165l-323 -10l31 349l12 280zM801 252h-116l100 57q-50 -149 -163.5 -239.5t-269.5 -90.5q-138 0 -213.5 78t-75.5 220q0 183 76.5 331t214.5 253.5t323 162t402 56.5h18l-151 -190q-187 -8 -339 -87t-241 -208.5t-89 -292.5
q0 -64 36.5 -98.5t103.5 -34.5q140 0 244.5 130t151.5 368zM555 1218l31 174h676l-31 -174h-676z" />
    <glyph glyph-name="Emacron" unicode="&#x112;" 
d="M67 0l250 1420h209l-250 -1420h-209zM67 0l34 190h938l-33 -190h-939zM176 616l33 190h759l-33 -190h-759zM284 1230l33 190h939l-33 -190h-939zM440 1580l34 188h773l-34 -188h-773z" />
    <glyph glyph-name="emacron" unicode="&#x113;" 
d="M587 170q80 0 171 25t175 70l69 -171q-98 -54 -210 -84t-214 -30q-206 0 -321.5 108t-115.5 301q0 208 78.5 363t219.5 241.5t329 86.5q148 0 230.5 -74t82.5 -206q0 -196 -200.5 -309t-559.5 -120l-21 160q268 4 417.5 71t149.5 185q0 48 -33 75.5t-94 27.5
q-119 0 -209.5 -61t-141 -171t-51.5 -257q1 -109 67 -170t182 -61zM312 1248l34 188h859l-34 -188h-859z" />
    <glyph glyph-name="Ebreve" unicode="&#x114;" 
d="M67 0l250 1420h209l-250 -1420h-209zM67 0l34 190h938l-33 -190h-939zM176 616l33 190h759l-33 -190h-759zM284 1230l33 190h939l-33 -190h-939zM764 1570q-151 0 -222.5 65t-49.5 180q10 53 30 90l171 -43q-4 -8 -6 -16t-3 -13q-10 -55 18 -86t88 -31q82 0 159 45.5
t132 126.5l11 16l154 -81l-13 -19q-76 -110 -199.5 -172t-269.5 -62z" />
    <glyph glyph-name="ebreve" unicode="&#x115;" 
d="M587 170q80 0 171 25t175 70l69 -171q-98 -54 -210 -84t-214 -30q-206 0 -321.5 108t-115.5 301q0 208 78.5 363t219.5 241.5t329 86.5q148 0 230.5 -74t82.5 -206q0 -196 -200.5 -309t-559.5 -120l-21 160q268 4 417.5 71t149.5 185q0 48 -33 75.5t-94 27.5
q-119 0 -209.5 -61t-141 -171t-51.5 -257q1 -109 67 -170t182 -61zM721 1220q-131 0 -206.5 66t-75.5 172q0 35 5 70.5t16 75.5l171 -15q-9 -26 -12 -49t-3 -42q0 -62 31 -96.5t97 -34.5q77 0 152.5 73t121.5 175l143 -80q-83 -161 -200 -238t-240 -77z" />
    <glyph glyph-name="Edotaccent" unicode="&#x116;" 
d="M67 0l250 1420h209l-250 -1420h-209zM67 0l34 190h938l-33 -190h-939zM176 616l33 190h759l-33 -190h-759zM284 1230l33 190h939l-33 -190h-939zM849 1580q-55 0 -94.5 39.5t-39.5 94.5q0 56 39.5 95t94.5 39q56 0 95 -39t39 -95q0 -55 -39 -94.5t-95 -39.5z" />
    <glyph glyph-name="edotaccent" unicode="&#x117;" 
d="M587 170q80 0 171 25t175 70l69 -171q-98 -54 -210 -84t-214 -30q-206 0 -321.5 108t-115.5 301q0 208 78.5 363t219.5 241.5t329 86.5q148 0 230.5 -74t82.5 -206q0 -196 -200.5 -309t-559.5 -120l-21 160q268 4 417.5 71t149.5 185q0 48 -33 75.5t-94 27.5
q-119 0 -209.5 -61t-141 -171t-51.5 -257q1 -109 67 -170t182 -61zM764 1238q-55 0 -94.5 39.5t-39.5 94.5q0 56 39.5 95t94.5 39q56 0 95 -39t39 -95q0 -55 -39 -94.5t-95 -39.5z" />
    <glyph glyph-name="Eogonek" unicode="&#x118;" 
d="M785 -424q-210 0 -210 182q0 73 43 130.5t120 88.5v50l230 3l38 -30q-64 0 -129 -20.5t-108.5 -59t-43.5 -93.5q0 -83 86 -83q22 0 45.5 6t46.5 18l32 -159q-36 -16 -74 -24.5t-76 -8.5zM67 0l250 1420h209l-250 -1420h-209zM67 0l34 190h938l-33 -190h-939zM176 616
l33 190h759l-33 -190h-759zM284 1230l33 190h939l-33 -190h-939z" />
    <glyph glyph-name="eogonek" unicode="&#x119;" 
d="M734 -424q-220 0 -220 182q0 78 39.5 131.5t103.5 81.5v50l222 50l8 -30q-51 -21 -102.5 -45t-86 -64t-34.5 -110q0 -78 96 -78q29 0 60 6t62 18l32 -159q-43 -16 -88.5 -24.5t-91.5 -8.5zM587 170q80 0 171 25t175 70l69 -171q-98 -54 -210 -84t-214 -30
q-206 0 -321.5 108t-115.5 301q0 208 78.5 363t219.5 241.5t329 86.5q148 0 230.5 -74t82.5 -206q0 -196 -200.5 -309t-559.5 -120l-21 160q268 4 417.5 71t149.5 185q0 48 -33 75.5t-94 27.5q-119 0 -209.5 -61t-141 -171t-51.5 -257q1 -109 67 -170t182 -61z" />
    <glyph glyph-name="Ecaron" unicode="&#x11a;" 
d="M67 0l250 1420h209l-250 -1420h-209zM67 0l34 190h938l-33 -190h-939zM176 616l33 190h759l-33 -190h-759zM284 1230l33 190h939l-33 -190h-939zM739 1580l-214 260h217l106 -156h-20l162 156h227l-306 -260h-172z" />
    <glyph glyph-name="ecaron" unicode="&#x11b;" 
d="M587 170q80 0 171 25t175 70l69 -171q-98 -54 -210 -84t-214 -30q-206 0 -321.5 108t-115.5 301q0 208 78.5 363t219.5 241.5t329 86.5q148 0 230.5 -74t82.5 -206q0 -196 -200.5 -309t-559.5 -120l-21 160q268 4 417.5 71t149.5 185q0 48 -33 75.5t-94 27.5
q-119 0 -209.5 -61t-141 -171t-51.5 -257q1 -109 67 -170t182 -61zM651 1210l-173 380h207l77 -246h-20l171 246h217l-307 -380h-172z" />
    <glyph glyph-name="Gcircumflex" unicode="&#x11c;" 
d="M591 -20q-239 0 -373.5 141t-134.5 392q0 200 55.5 369t159.5 294.5t251 194.5t331 69q142 0 228.5 -50.5t140.5 -127.5l-155 -138q-45 56 -108 94t-146 38q-115 0 -214 -52.5t-173 -148.5t-115 -227t-41 -289q0 -375 340 -375q102 0 184 18.5t135 31.5l47 -174
q-46 -13 -159 -36.5t-253 -23.5zM795 40l118 670h208l-118 -670h-208zM611 520l33 190h471l-33 -190h-471zM536 1580l306 260h172l214 -260h-212l-136 205h106l-218 -205h-232z" />
    <glyph glyph-name="gcircumflex" unicode="&#x11d;" 
d="M55 -480l-10 186l210 13q125 8 212.5 48t143.5 103t87.5 140t44.5 159l133 754l233 147h8l-154 -869q-25 -141 -72.5 -260t-129.5 -209t-210.5 -143t-315.5 -61zM960 880q-140 -6 -261 -52t-211.5 -123.5t-141.5 -180t-51 -222.5q0 -64 36.5 -98.5t103.5 -34.5
q99 0 178 57.5t134.5 169t83.5 271.5l7 40l103 -84l-116 -392h-116l48 48q-45 -143 -146 -221.5t-241 -78.5q-138 0 -213.5 78t-75.5 220q0 180 76.5 326.5t214.5 250.5t323.5 160t402.5 56h18zM880 1628l173 -380h-207l-77 246h20l-171 -246h-217l307 380h172z" />
    <glyph glyph-name="Gbreve" unicode="&#x11e;" 
d="M591 -20q-239 0 -373.5 141t-134.5 392q0 200 55.5 369t159.5 294.5t251 194.5t331 69q142 0 228.5 -50.5t140.5 -127.5l-155 -138q-45 56 -108 94t-146 38q-115 0 -214 -52.5t-173 -148.5t-115 -227t-41 -289q0 -375 340 -375q102 0 184 18.5t135 31.5l47 -174
q-46 -13 -159 -36.5t-253 -23.5zM795 40l118 670h208l-118 -670h-208zM611 520l33 190h471l-33 -190h-471zM824 1570q-151 0 -222.5 65t-49.5 180q10 53 30 90l171 -43q-4 -8 -6 -16t-3 -13q-10 -55 18 -86t88 -31q82 0 159 45.5t132 126.5l11 16l154 -81l-13 -19
q-76 -110 -199.5 -172t-269.5 -62z" />
    <glyph glyph-name="gbreve" unicode="&#x11f;" 
d="M55 -480l-10 186l210 13q125 8 212.5 48t143.5 103t87.5 140t44.5 159l133 754l233 147h8l-154 -869q-25 -141 -72.5 -260t-129.5 -209t-210.5 -143t-315.5 -61zM960 880q-140 -6 -261 -52t-211.5 -123.5t-141.5 -180t-51 -222.5q0 -64 36.5 -98.5t103.5 -34.5
q99 0 178 57.5t134.5 169t83.5 271.5l7 40l103 -84l-116 -392h-116l48 48q-45 -143 -146 -221.5t-241 -78.5q-138 0 -213.5 78t-75.5 220q0 180 76.5 326.5t214.5 250.5t323.5 160t402.5 56h18zM706 1220q-131 0 -206.5 66t-75.5 172q0 35 5 70.5t16 75.5l171 -15
q-9 -26 -12 -49t-3 -42q0 -62 31 -96.5t97 -34.5q77 0 152.5 73t121.5 175l143 -80q-83 -161 -200 -238t-240 -77z" />
    <glyph glyph-name="Gdotaccent" unicode="&#x120;" 
d="M591 -20q-239 0 -373.5 141t-134.5 392q0 200 55.5 369t159.5 294.5t251 194.5t331 69q142 0 228.5 -50.5t140.5 -127.5l-155 -138q-45 56 -108 94t-146 38q-115 0 -214 -52.5t-173 -148.5t-115 -227t-41 -289q0 -375 340 -375q102 0 184 18.5t135 31.5l47 -174
q-46 -13 -159 -36.5t-253 -23.5zM795 40l118 670h208l-118 -670h-208zM611 520l33 190h471l-33 -190h-471zM909 1580q-55 0 -94.5 39.5t-39.5 94.5q0 56 39.5 95t94.5 39q56 0 95 -39t39 -95q0 -55 -39 -94.5t-95 -39.5z" />
    <glyph glyph-name="gdotaccent" unicode="&#x121;" 
d="M55 -480l-10 186l210 13q125 8 212.5 48t143.5 103t87.5 140t44.5 159l133 754l233 147h8l-154 -869q-25 -141 -72.5 -260t-129.5 -209t-210.5 -143t-315.5 -61zM960 880q-140 -6 -261 -52t-211.5 -123.5t-141.5 -180t-51 -222.5q0 -64 36.5 -98.5t103.5 -34.5
q99 0 178 57.5t134.5 169t83.5 271.5l7 40l103 -84l-116 -392h-116l48 48q-45 -143 -146 -221.5t-241 -78.5q-138 0 -213.5 78t-75.5 220q0 180 76.5 326.5t214.5 250.5t323.5 160t402.5 56h18zM749 1238q-55 0 -94.5 39.5t-39.5 94.5q0 56 39.5 95t94.5 39q56 0 95 -39
t39 -95q0 -55 -39 -94.5t-95 -39.5z" />
    <glyph glyph-name="uni0122" unicode="&#x122;" 
d="M591 -20q-239 0 -373.5 141t-134.5 392q0 200 55.5 369t159.5 294.5t251 194.5t331 69q142 0 228.5 -50.5t140.5 -127.5l-155 -138q-45 56 -108 94t-146 38q-115 0 -214 -52.5t-173 -148.5t-115 -227t-41 -289q0 -375 340 -375q102 0 184 18.5t135 31.5l47 -174
q-46 -13 -159 -36.5t-253 -23.5zM795 40l118 670h208l-118 -670h-208zM611 520l33 190h471l-33 -190h-471zM468 -568l-102 99q87 61 128 102.5t41 71.5q0 32 -67 32h-65l26 149h75q200 0 200 -128q0 -87 -71 -168t-165 -158z" />
    <glyph glyph-name="uni0123" unicode="&#x123;" 
d="M55 -480l-10 186l210 13q125 8 212.5 48t143.5 103t87.5 140t44.5 159l133 754l233 147h8l-154 -869q-25 -141 -72.5 -260t-129.5 -209t-210.5 -143t-315.5 -61zM960 880q-140 -6 -261 -52t-211.5 -123.5t-141.5 -180t-51 -222.5q0 -64 36.5 -98.5t103.5 -34.5
q99 0 178 57.5t134.5 169t83.5 271.5l7 40l103 -84l-116 -392h-116l48 48q-45 -143 -146 -221.5t-241 -78.5q-138 0 -213.5 78t-75.5 220q0 180 76.5 326.5t214.5 250.5t323.5 160t402.5 56h18zM734 1201q-101 0 -150.5 31t-49.5 107q0 70 57.5 146.5t178.5 169.5l102 -99
q-87 -61 -128 -102.5t-41 -71.5q0 -32 67 -32h65l-26 -149h-75z" />
    <glyph glyph-name="Hcircumflex" unicode="&#x124;" 
d="M759 0l250 1420h208l-250 -1420h-208zM47 0l250 1420h208l-250 -1420h-208zM197 612l33 190h841l-33 -190h-841zM436 1580l306 260h172l214 -260h-212l-136 205h106l-218 -205h-232z" />
    <glyph glyph-name="hcircumflex" unicode="&#x125;" 
d="M723 0l123 705q16 92 -13.5 138.5t-105.5 46.5q-82 0 -152 -47t-125.5 -156.5t-95.5 -296.5l50 429h44q32 125 128.5 193t230.5 68q161 0 224.5 -96.5t29.5 -286.5l-123 -697h-215zM69 0l210 1187q14 77 -8 112t-83 35q-25 0 -49.5 -2.5t-49.5 -8.5l-21 182q38 9 76 12.5
t76 3.5q174 0 238.5 -84t31.5 -270l-206 -1167h-215zM64 1660l306 260h172l214 -260h-212l-136 205h106l-218 -205h-232z" />
    <glyph glyph-name="Hbar" unicode="&#x126;" 
d="M125 1002l34 190h1116l-34 -190h-1116zM759 0l250 1420h208l-250 -1420h-208zM47 0l250 1420h208l-250 -1420h-208zM197 612l33 190h841l-33 -190h-841z" />
    <glyph glyph-name="hbar" unicode="&#x127;" 
d="M723 0l123 705q16 92 -13.5 138.5t-105.5 46.5q-81 0 -150 -47t-124.5 -156.5t-94.5 -296.5l50 429h44q32 125 127 193t228 68q161 0 224.5 -96.5t29.5 -286.5l-123 -697h-215zM75 0l264 1500h216l-265 -1500h-215zM144 1218l30 174h716l-30 -174h-716z" />
    <glyph glyph-name="Itilde" unicode="&#x128;" 
d="M403 0l250 1420h208l-250 -1420h-208zM75 0l33 190h863l-33 -190h-863zM292 1230l33 190h863l-33 -190h-863zM397 1566l9 50q23 125 86 187.5t168 62.5q35 0 78 -7.5t87.5 -18t83 -18t63.5 -7.5q53 0 65 60l11 60h185l-9 -50q-21 -120 -79 -180t-152 -60q-34 0 -76 7.5
t-86.5 18t-83.5 18t-67 7.5q-74 0 -87 -70l-11 -60h-185z" />
    <glyph glyph-name="itilde" unicode="&#x129;" 
d="M966 225l69 -161q-61 -35 -129 -59.5t-156 -24.5q-181 0 -269 85t-78 249q5 75 29.5 146t53 138t43.5 129q21 82 -17.5 124t-133.5 42t-183 -23l-21 182q59 17 118 22.5t118 5.5q207 0 291 -94.5t39 -278.5q-17 -71 -44.5 -132.5t-50.5 -121.5t-28 -130
q-11 -153 172 -153q50 0 87.5 12.5t89.5 42.5zM372 1256l6 30q26 133 79.5 201.5t174.5 68.5q46 0 85.5 -17t78.5 -34.5t83 -17.5q37 0 59.5 24t29.5 70l10 60h185l-6 -50q-17 -140 -80.5 -210t-179.5 -70q-51 0 -95.5 17.5t-82 34.5t-68.5 17q-38 0 -59 -21.5t-29 -62.5
l-8 -40h-183z" />
    <glyph glyph-name="Imacron" unicode="&#x12a;" 
d="M403 0l250 1420h208l-250 -1420h-208zM75 0l33 190h863l-33 -190h-863zM292 1230l33 190h863l-33 -190h-863zM400 1580l34 188h773l-34 -188h-773z" />
    <glyph glyph-name="imacron" unicode="&#x12b;" 
d="M966 225l69 -161q-61 -35 -129 -59.5t-156 -24.5q-181 0 -269 85t-78 249q5 75 29.5 146t53 138t43.5 129q21 82 -17.5 124t-133.5 42t-183 -23l-21 182q59 17 118 22.5t118 5.5q207 0 291 -94.5t39 -278.5q-17 -71 -44.5 -132.5t-50.5 -121.5t-28 -130
q-11 -153 172 -153q50 0 87.5 12.5t89.5 42.5zM297 1248l34 188h859l-34 -188h-859z" />
    <glyph glyph-name="Ibreve" unicode="&#x12c;" 
d="M403 0l250 1420h208l-250 -1420h-208zM75 0l33 190h863l-33 -190h-863zM292 1230l33 190h863l-33 -190h-863zM724 1570q-151 0 -222.5 65t-49.5 180q10 53 30 90l171 -43q-4 -8 -6 -16t-3 -13q-10 -55 18 -86t88 -31q82 0 159 45.5t132 126.5l11 16l154 -81l-13 -19
q-76 -110 -199.5 -172t-269.5 -62z" />
    <glyph glyph-name="ibreve" unicode="&#x12d;" 
d="M966 225l69 -161q-61 -35 -129 -59.5t-156 -24.5q-181 0 -269 85t-78 249q5 75 29.5 146t53 138t43.5 129q21 82 -17.5 124t-133.5 42t-183 -23l-21 182q59 17 118 22.5t118 5.5q207 0 291 -94.5t39 -278.5q-17 -71 -44.5 -132.5t-50.5 -121.5t-28 -130
q-11 -153 172 -153q50 0 87.5 12.5t89.5 42.5zM706 1220q-131 0 -206.5 66t-75.5 172q0 35 5 70.5t16 75.5l171 -15q-9 -26 -12 -49t-3 -42q0 -62 31 -96.5t97 -34.5q77 0 152.5 73t121.5 175l143 -80q-83 -161 -200 -238t-240 -77z" />
    <glyph glyph-name="Iogonek" unicode="&#x12e;" 
d="M487 -424q-220 0 -220 182q0 73 38 130.5t105 88.5v50l230 3l38 -30q-59 0 -119.5 -20.5t-101 -59t-40.5 -93.5q0 -83 96 -83q29 0 60 6t62 18l32 -159q-43 -16 -88.5 -24.5t-91.5 -8.5zM403 0l250 1420h208l-250 -1420h-208zM75 0l33 190h863l-33 -190h-863zM292 1230
l33 190h863l-33 -190h-863z" />
    <glyph glyph-name="iogonek" unicode="&#x12f;" 
d="M594 -424q-220 0 -220 182q0 86 56.5 148.5t146.5 84.5v50l271 -22l7 -28q-76 -14 -152.5 -32.5t-127.5 -50.5t-51 -86q0 -78 96 -78q29 0 60 6t62 18l32 -159q-43 -16 -88.5 -24.5t-91.5 -8.5zM731 1228q-61 0 -104.5 43.5t-43.5 104.5q0 62 43.5 105t104.5 43
q62 0 105 -43t43 -105q0 -61 -43 -104.5t-105 -43.5zM966 225l69 -161q-61 -35 -129 -59.5t-156 -24.5q-181 0 -269 85t-78 249q5 75 29.5 146t53 138t43.5 129q21 82 -17.5 124t-133.5 42t-183 -23l-21 182q59 17 118 22.5t118 5.5q207 0 291 -94.5t39 -278.5
q-17 -71 -44.5 -132.5t-50.5 -121.5t-28 -130q-11 -153 172 -153q50 0 87.5 12.5t89.5 42.5z" />
    <glyph glyph-name="Idotaccent" unicode="&#x130;" 
d="M403 0l250 1420h208l-250 -1420h-208zM75 0l33 190h863l-33 -190h-863zM292 1230l33 190h863l-33 -190h-863zM809 1580q-55 0 -94.5 39.5t-39.5 94.5q0 56 39.5 95t94.5 39q56 0 95 -39t39 -95q0 -55 -39 -94.5t-95 -39.5z" />
    <glyph glyph-name="dotlessi" unicode="&#x131;" 
d="M966 225l69 -161q-61 -35 -129 -59.5t-156 -24.5q-181 0 -269 85t-78 249q5 75 29.5 146t53 138t43.5 129q21 82 -17.5 124t-133.5 42t-183 -23l-21 182q59 17 118 22.5t118 5.5q207 0 291 -94.5t39 -278.5q-17 -71 -44.5 -132.5t-50.5 -121.5t-28 -130
q-11 -153 172 -153q50 0 87.5 12.5t89.5 42.5z" />
    <glyph glyph-name="IJ" unicode="&#x132;" 
d="M568 -20q-223 0 -318.5 95.5t-56.5 280.5h208q-16 -94 30.5 -143t152.5 -49q111 0 178 56.5t86 165.5l182 1034h208l-182 -1034q-35 -200 -158.5 -303t-329.5 -103zM49 497l34 190h544l-34 -190h-544zM221 497l163 923h198l-163 -923h-198zM178 1230l34 190h524l-34 -190
h-524zM813 1230l34 190h285l-33 -190h-286z" />
    <glyph glyph-name="ij" unicode="&#x133;" 
d="M125 -480l-10 188l220 18q128 11 198.5 53.5t106.5 122t57 200.5l169 958h215l-163 -926q-26 -150 -65.5 -259.5t-105 -182t-170.5 -111.5t-262 -49zM176 0l186 1060h215l-186 -1060h-215zM518 1228q-61 0 -104.5 43.5t-43.5 104.5q0 62 43.5 105t104.5 43q62 0 105 -43
t43 -105q0 -61 -43 -104.5t-105 -43.5zM1009 1228q-61 0 -104.5 43.5t-43.5 104.5q0 62 43.5 105t104.5 43q62 0 105 -43t43 -105q0 -61 -43 -104.5t-105 -43.5z" />
    <glyph glyph-name="Jcircumflex" unicode="&#x134;" 
d="M498 -20q-244 0 -357 130.5t-64 365.5h208q-25 -148 34 -230t195 -82q140 0 221 76t109 236l166 944h208l-166 -944q-45 -255 -178.5 -375.5t-375.5 -120.5zM617 1230l34 190h461l-33 -190h-462zM636 1580l306 260h172l214 -260h-212l-136 205h106l-218 -205h-232z" />
    <glyph glyph-name="jcircumflex" unicode="&#x135;" 
d="M27 -480l-10 188l220 18q128 11 198.5 53.5t106.5 122.5t57 200l115 645q14 77 -8 112t-83 35q-95 0 -191 -13t-191 -30l-21 187q107 20 216.5 31.5t218.5 11.5q174 0 238.5 -84t31.5 -270l-105 -593q-27 -150 -66 -259t-105 -182t-170.5 -112t-261.5 -49zM1003 1628
l173 -380h-207l-77 246h20l-171 -246h-217l307 380h172z" />
    <glyph glyph-name="uni0136" unicode="&#x136;" 
d="M223 332l13 198q245 37 409 162t259 313.5t133 414.5h214q-46 -284 -178.5 -517.5t-346 -384t-503.5 -186.5zM57 0l250 1420h208l-250 -1420h-208zM837 0l-213 622l183 102l262 -724h-232zM388 -568l-102 99q87 61 128 102.5t41 71.5q0 32 -67 32h-65l26 149h75
q200 0 200 -128q0 -87 -71 -168t-165 -158z" />
    <glyph glyph-name="uni0137" unicode="&#x137;" 
d="M956 -20q-187 0 -299 115t-143 330q200 96 275 192t75 178q0 95 -108 95q-58 0 -120 -31.5t-118 -92t-98 -148t-61 -198.5l46 359h39q22 91 75 158.5t129.5 105t167.5 37.5q119 0 190.5 -72t71.5 -191q0 -160 -94.5 -281t-265.5 -210l-10 153q32 -171 93.5 -240
t178.5 -69q29 0 45.5 1.5t35.5 3.5l19 -181q-28 -6 -57 -10t-67 -4zM70 1l211 1196q13 77 -8.5 112t-82.5 35q-25 0 -49.5 -2.5t-49.5 -8.5l-23 172q38 9 76 12.5t76 3.5q174 0 238 -84t32 -270l-205 -1166h-215zM482 -568l-102 99q87 61 128 102.5t41 71.5q0 32 -67 32h-65
l26 149h75q200 0 200 -128q0 -87 -71 -168t-165 -158z" />
    <glyph glyph-name="kgreenlandic" unicode="&#x138;" 
d="M956 -20q-187 0 -299 115t-143 330q200 96 275 192t75 178q0 95 -108 95q-59 0 -121.5 -31.5t-119 -92t-99 -148t-61.5 -198.5l46 359h39q22 91 75.5 158.5t131 105t169.5 37.5q119 0 190.5 -72t71.5 -191q0 -160 -94.5 -281t-265.5 -210l-10 153q32 -171 93.5 -240
t178.5 -69q29 0 45.5 1.5t35.5 3.5l19 -181q-28 -6 -57 -10t-67 -4zM253 1060h215l-187 -1059h-215z" />
    <glyph glyph-name="Lacute" unicode="&#x139;" 
d="M67 0l250 1420h209l-250 -1420h-209zM67 0l34 190h939l-33 -190h-940zM314 1580l210 251h284l-262 -251h-232z" />
    <glyph glyph-name="lacute" unicode="&#x13a;" 
d="M693 -20q-166 0 -244.5 76.5t-78.5 237.5q0 36 7 80t22 101l155 605q35 136 7.5 194.5t-161.5 58.5q-34 0 -69.5 -5.5t-70.5 -20.5l-31 182q50 14 101 22.5t102 8.5q232 0 314.5 -111t22.5 -341l-155 -593q-16 -59 -23 -101t-7 -71q0 -133 148 -133q61 0 107 15t110 50
l69 -161q-70 -40 -147.5 -67t-177.5 -27zM468 1660l210 251h284l-262 -251h-232z" />
    <glyph glyph-name="uni013B" unicode="&#x13b;" 
d="M67 0l250 1420h209l-250 -1420h-209zM67 0l34 190h939l-33 -190h-940zM388 -568l-102 99q87 61 128 102.5t41 71.5q0 32 -67 32h-65l26 149h75q200 0 200 -128q0 -87 -71 -168t-165 -158z" />
    <glyph glyph-name="uni013C" unicode="&#x13c;" 
d="M693 -20q-166 0 -244.5 76.5t-78.5 237.5q0 36 7 80t22 101l155 605q35 136 7.5 194.5t-161.5 58.5q-34 0 -69.5 -5.5t-70.5 -20.5l-31 182q50 14 101 22.5t102 8.5q232 0 314.5 -111t22.5 -341l-155 -593q-16 -59 -23 -101t-7 -71q0 -133 148 -133q61 0 107 15t110 50
l69 -161q-70 -40 -147.5 -67t-177.5 -27zM482 -568l-102 99q87 61 128 102.5t41 71.5q0 32 -67 32h-65l26 149h75q200 0 200 -128q0 -87 -71 -168t-165 -158z" />
    <glyph glyph-name="Lcaron" unicode="&#x13d;" 
d="M880 1188l107 380h222l-157 -380h-172zM67 0l250 1420h209l-250 -1420h-209zM67 0l34 190h939l-33 -190h-940z" />
    <glyph glyph-name="lcaron" unicode="&#x13e;" 
d="M905 1188l107 380h222l-157 -380h-172zM693 -20q-166 0 -244.5 76.5t-78.5 237.5q0 36 7 80t22 101l155 605q35 136 7.5 194.5t-161.5 58.5q-34 0 -69.5 -5.5t-70.5 -20.5l-31 182q50 14 101 22.5t102 8.5q232 0 314.5 -111t22.5 -341l-155 -593q-16 -59 -23 -101t-7 -71
q0 -133 148 -133q61 0 107 15t110 50l69 -161q-70 -40 -147.5 -67t-177.5 -27z" />
    <glyph glyph-name="Ldot" unicode="&#x13f;" 
d="M67 0l250 1420h209l-250 -1420h-209zM67 0l34 190h939l-33 -190h-940zM912 882q-61 0 -104.5 43.5t-43.5 104.5q0 62 43.5 105t104.5 43q62 0 105 -43t43 -105q0 -61 -43 -104.5t-105 -43.5z" />
    <glyph glyph-name="ldot" unicode="&#x140;" 
d="M693 -20q-166 0 -244.5 76.5t-78.5 237.5q0 36 7 80t22 101l155 605q35 136 7.5 194.5t-161.5 58.5q-34 0 -69.5 -5.5t-70.5 -20.5l-31 182q50 14 101 22.5t102 8.5q232 0 314.5 -111t22.5 -341l-155 -593q-16 -59 -23 -101t-7 -71q0 -133 148 -133q61 0 107 15t110 50
l69 -161q-70 -40 -147.5 -67t-177.5 -27zM1178 642q-61 0 -104.5 43.5t-43.5 104.5q0 62 43.5 105t104.5 43q62 0 105 -43t43 -105q0 -61 -43 -104.5t-105 -43.5z" />
    <glyph glyph-name="Lslash" unicode="&#x141;" 
d="M48 469l33 187l878 406l-34 -187zM167 0l250 1420h208l-250 -1420h-208zM167 0l33 190h840l-33 -190h-840z" />
    <glyph glyph-name="lslash" unicode="&#x142;" 
d="M124 447l-52 159l957 450l53 -159zM693 -20q-166 0 -244.5 76.5t-78.5 237.5q0 36 7 80t22 101l155 605q35 136 7.5 194.5t-161.5 58.5q-34 0 -69.5 -5.5t-70.5 -20.5l-31 182q50 14 101 22.5t102 8.5q232 0 314.5 -111t22.5 -341l-155 -593q-16 -59 -23 -101t-7 -71
q0 -133 148 -133q61 0 107 15t110 50l69 -161q-70 -40 -147.5 -67t-177.5 -27z" />
    <glyph glyph-name="Nacute" unicode="&#x143;" 
d="M716 0l-245 1080h-92l62 340h107l245 -1080h50l-62 -340h-65zM55 0l250 1420h208l-250 -1420h-208zM751 0l250 1420h208l-250 -1420h-208zM654 1580l210 251h284l-262 -251h-232z" />
    <glyph glyph-name="nacute" unicode="&#x144;" 
d="M75 0l187 1060h177l-7 -253l-142 -807h-215zM723 0l123 705q16 92 -13.5 138.5t-105.5 46.5q-81 0 -150 -47t-124.5 -156.5t-94.5 -296.5l50 429h44q32 125 127 193t228 68q161 0 224.5 -96.5t29.5 -286.5l-123 -697h-215zM627 1248l217 380h246l-267 -380h-196z" />
    <glyph glyph-name="uni0145" unicode="&#x145;" 
d="M716 0l-245 1080h-92l62 340h107l245 -1080h50l-62 -340h-65zM55 0l250 1420h208l-250 -1420h-208zM751 0l250 1420h208l-250 -1420h-208zM388 -568l-102 99q87 61 128 102.5t41 71.5q0 32 -67 32h-65l26 149h75q200 0 200 -128q0 -87 -71 -168t-165 -158z" />
    <glyph glyph-name="uni0146" unicode="&#x146;" 
d="M75 0l187 1060h177l-7 -253l-142 -807h-215zM723 0l123 705q16 92 -13.5 138.5t-105.5 46.5q-81 0 -150 -47t-124.5 -156.5t-94.5 -296.5l50 429h44q32 125 127 193t228 68q161 0 224.5 -96.5t29.5 -286.5l-123 -697h-215zM388 -568l-102 99q87 61 128 102.5t41 71.5
q0 32 -67 32h-65l26 149h75q200 0 200 -128q0 -87 -71 -168t-165 -158z" />
    <glyph glyph-name="Ncaron" unicode="&#x147;" 
d="M716 0l-245 1080h-92l62 340h107l245 -1080h50l-62 -340h-65zM55 0l250 1420h208l-250 -1420h-208zM751 0l250 1420h208l-250 -1420h-208zM699 1580l-214 260h217l106 -156h-20l162 156h227l-306 -260h-172z" />
    <glyph glyph-name="ncaron" unicode="&#x148;" 
d="M75 0l187 1060h177l-7 -253l-142 -807h-215zM723 0l123 705q16 92 -13.5 138.5t-105.5 46.5q-81 0 -150 -47t-124.5 -156.5t-94.5 -296.5l50 429h44q32 125 127 193t228 68q161 0 224.5 -96.5t29.5 -286.5l-123 -697h-215zM636 1210l-173 380h207l77 -246h-20l171 246
h217l-307 -380h-172z" />
    <glyph glyph-name="napostrophe" unicode="&#x149;" 
d="M276 1140l-121 139l59 51q38 33 64.5 67t26.5 70q0 49 -70 49h-45l32 184h75q218 0 218 -191q0 -87 -45 -162.5t-122 -143.5zM75 0l187 1060h177l-7 -253l-142 -807h-215zM723 0l123 705q16 92 -13.5 138.5t-105.5 46.5q-81 0 -150 -47t-124.5 -156.5t-94.5 -296.5
l50 429h44q32 125 127 193t228 68q161 0 224.5 -96.5t29.5 -286.5l-123 -697h-215z" />
    <glyph glyph-name="Eng" unicode="&#x14a;" 
d="M777 151h208l-27 -157q-26 -152 -85.5 -248.5t-164.5 -148t-268 -69.5l-45 -5l-12 189l55 9q147 24 217 76.5t89 164.5zM716 0l-245 1080h-92l62 340h107l245 -1080h50l-62 -340h-65zM55 0l250 1420h208l-250 -1420h-208zM751 0l250 1420h208l-250 -1420h-208z" />
    <glyph glyph-name="eng" unicode="&#x14b;" 
d="M339 -480l-10 188l127 15q99 12 153.5 56t82.5 124t49 199l105 603q16 92 -13.5 138.5t-105.5 46.5q-81 0 -150 -47t-124.5 -156.5t-94.5 -296.5l50 429h44q32 125 127 193t228 68q161 0 224.5 -96t29.5 -287l-99 -563q-26 -149 -61.5 -258t-92 -181t-146.5 -112.5
t-226 -53.5zM75 0l187 1060h177l-7 -253l-142 -807h-215z" />
    <glyph glyph-name="Omacron" unicode="&#x14c;" 
d="M513 -20q-195 0 -304 128.5t-109 357.5q0 306 77.5 524t223.5 334t351 116q194 0 303 -125.5t109 -349.5q0 -309 -77.5 -529.5t-223 -338t-350.5 -117.5zM539 164q129 0 221 92.5t141 266t49 417.5q0 149 -57.5 232.5t-161.5 83.5q-131 0 -224.5 -91t-143 -262
t-49.5 -412q0 -154 59.5 -240.5t165.5 -86.5zM400 1580l34 188h773l-34 -188h-773z" />
    <glyph glyph-name="omacron" unicode="&#x14d;" 
d="M502 -20q-177 0 -276.5 101.5t-99.5 282.5q0 338 151 527t419 189q177 0 276.5 -104t99.5 -290q0 -333 -150.5 -519.5t-419.5 -186.5zM539 169q150 0 234.5 125.5t84.5 348.5q0 116 -50 181.5t-141 65.5q-154 0 -240.5 -125t-86.5 -348q0 -117 52.5 -182.5t146.5 -65.5z
M297 1248l34 188h859l-34 -188h-859z" />
    <glyph glyph-name="Obreve" unicode="&#x14e;" 
d="M513 -20q-195 0 -304 128.5t-109 357.5q0 306 77.5 524t223.5 334t351 116q194 0 303 -125.5t109 -349.5q0 -309 -77.5 -529.5t-223 -338t-350.5 -117.5zM539 164q129 0 221 92.5t141 266t49 417.5q0 149 -57.5 232.5t-161.5 83.5q-131 0 -224.5 -91t-143 -262
t-49.5 -412q0 -154 59.5 -240.5t165.5 -86.5zM724 1570q-151 0 -222.5 65t-49.5 180q10 53 30 90l171 -43q-4 -8 -6 -16t-3 -13q-10 -55 18 -86t88 -31q82 0 159 45.5t132 126.5l11 16l154 -81l-13 -19q-76 -110 -199.5 -172t-269.5 -62z" />
    <glyph glyph-name="obreve" unicode="&#x14f;" 
d="M502 -20q-177 0 -276.5 101.5t-99.5 282.5q0 338 151 527t419 189q177 0 276.5 -104t99.5 -290q0 -333 -150.5 -519.5t-419.5 -186.5zM539 169q150 0 234.5 125.5t84.5 348.5q0 116 -50 181.5t-141 65.5q-154 0 -240.5 -125t-86.5 -348q0 -117 52.5 -182.5t146.5 -65.5z
M706 1220q-131 0 -206.5 66t-75.5 172q0 35 5 70.5t16 75.5l171 -15q-9 -26 -12 -49t-3 -42q0 -62 31 -96.5t97 -34.5q77 0 152.5 73t121.5 175l143 -80q-83 -161 -200 -238t-240 -77z" />
    <glyph glyph-name="Ohungarumlaut" unicode="&#x150;" 
d="M513 -20q-195 0 -304 128.5t-109 357.5q0 306 77.5 524t223.5 334t351 116q194 0 303 -125.5t109 -349.5q0 -309 -77.5 -529.5t-223 -338t-350.5 -117.5zM539 164q129 0 221 92.5t141 266t49 417.5q0 149 -57.5 232.5t-161.5 83.5q-131 0 -224.5 -91t-143 -262
t-49.5 -412q0 -154 59.5 -240.5t165.5 -86.5zM454 1580l170 251h284l-222 -251h-232zM856 1580l170 251h284l-222 -251h-232z" />
    <glyph glyph-name="ohungarumlaut" unicode="&#x151;" 
d="M502 -20q-177 0 -276.5 101.5t-99.5 282.5q0 338 151 527t419 189q177 0 276.5 -104t99.5 -290q0 -333 -150.5 -519.5t-419.5 -186.5zM539 169q150 0 234.5 125.5t84.5 348.5q0 116 -50 181.5t-141 65.5q-154 0 -240.5 -125t-86.5 -348q0 -117 52.5 -182.5t146.5 -65.5z
M763 1248l217 380h222l-237 -380h-202zM383 1248l217 380h222l-237 -380h-202z" />
    <glyph glyph-name="OE" unicode="&#x152;" 
d="M423 -20q-167 0 -254.5 119t-87.5 340q0 137 25 278.5t74 271t121 231t167.5 161t212.5 59.5q51 0 85.5 -10t80.5 -10h99l-250 -1420h-89q-35 0 -81.5 -10t-102.5 -10zM501 0l34 190h503l-33 -190h-504zM466 164q30 0 52 6l187 1064q-22 22 -57 22q-68 0 -124 -53
t-98.5 -140.5t-71.5 -193.5t-44 -212.5t-15 -196.5q0 -143 43.5 -219.5t127.5 -76.5zM610 616l33 190h444l-33 -190h-444zM718 1230l33 190h506l-35 -190h-504z" />
    <glyph glyph-name="oe" unicode="&#x153;" 
d="M907 170q67 0 135 20l41 -176q-92 -34 -185 -34q-164 0 -256 108t-92 301q0 208 51.5 363t144.5 241.5t217 86.5q104 0 161.5 -69t57.5 -191q0 -199 -133.5 -315.5t-372.5 -123.5l-21 160q154 4 239.5 71t85.5 185q0 44 -19.5 68.5t-55.5 24.5q-60 0 -105.5 -61t-71 -171
t-26.5 -257q1 -109 54.5 -170t150.5 -61zM304 -20q-138 0 -213.5 95.5t-75.5 268.5q0 351 110.5 543.5t312.5 192.5q244 0 244 -374q0 -358 -96 -542t-282 -184zM347 170q92 0 141.5 131.5t49.5 371.5q0 104 -27 160.5t-77 56.5q-99 0 -152.5 -134t-53.5 -379
q0 -99 30.5 -153t88.5 -54z" />
    <glyph glyph-name="Racute" unicode="&#x154;" 
d="M161 450l33 190h112q326 0 493.5 96t167.5 282q0 114 -90 173t-265 59q-213 0 -348 -20l33 190q128 20 328 20q274 0 415 -103.5t141 -305.5q0 -286 -230 -433.5t-678 -147.5h-112zM47 0l250 1420h208l-250 -1420h-208zM820 0l-196 630h215l210 -630h-229zM604 1580
l210 251h284l-262 -251h-232z" />
    <glyph glyph-name="racute" unicode="&#x155;" 
d="M222 0l133 747q14 77 -8 111.5t-83 34.5q-84 0 -162 -23l-21 182q45 14 99 21t116 7q174 0 239 -84t32 -269l-130 -727h-215zM-15 0l33 186h708l-33 -186h-708zM506 390l50 429h44q29 125 113 193t202 68q160 0 231.5 -100.5t42.5 -282.5h-215q13 98 -16 145.5t-103 47.5
q-76 0 -141.5 -47t-118 -156.5t-89.5 -296.5zM584 1248l217 380h246l-267 -380h-196z" />
    <glyph glyph-name="uni0156" unicode="&#x156;" 
d="M161 450l33 190h112q326 0 493.5 96t167.5 282q0 114 -90 173t-265 59q-213 0 -348 -20l33 190q128 20 328 20q274 0 415 -103.5t141 -305.5q0 -286 -230 -433.5t-678 -147.5h-112zM47 0l250 1420h208l-250 -1420h-208zM820 0l-196 630h215l210 -630h-229zM388 -568
l-102 99q87 61 128 102.5t41 71.5q0 32 -67 32h-65l26 149h75q200 0 200 -128q0 -87 -71 -168t-165 -158z" />
    <glyph glyph-name="uni0157" unicode="&#x157;" 
d="M222 0l133 747q14 77 -8 111.5t-83 34.5q-84 0 -162 -23l-21 182q45 14 99 21t116 7q174 0 239 -84t32 -269l-130 -727h-215zM-15 0l33 186h708l-33 -186h-708zM506 390l50 429h44q29 125 113 193t202 68q160 0 231.5 -100.5t42.5 -282.5h-215q13 98 -16 145.5t-103 47.5
q-76 0 -141.5 -47t-118 -156.5t-89.5 -296.5zM211 -568l-102 99q87 61 128 102.5t41 71.5q0 32 -67 32h-65l26 149h75q200 0 200 -128q0 -87 -71 -168t-165 -158z" />
    <glyph glyph-name="Rcaron" unicode="&#x158;" 
d="M161 450l33 190h112q326 0 493.5 96t167.5 282q0 114 -90 173t-265 59q-213 0 -348 -20l33 190q128 20 328 20q274 0 415 -103.5t141 -305.5q0 -286 -230 -433.5t-678 -147.5h-112zM47 0l250 1420h208l-250 -1420h-208zM820 0l-196 630h215l210 -630h-229zM649 1580
l-214 260h217l106 -156h-20l162 156h227l-306 -260h-172z" />
    <glyph glyph-name="rcaron" unicode="&#x159;" 
d="M222 0l133 747q14 77 -8 111.5t-83 34.5q-84 0 -162 -23l-21 182q45 14 99 21t116 7q174 0 239 -84t32 -269l-130 -727h-215zM-15 0l33 186h708l-33 -186h-708zM506 390l50 429h44q29 125 113 193t202 68q160 0 231.5 -100.5t42.5 -282.5h-215q13 98 -16 145.5t-103 47.5
q-76 0 -141.5 -47t-118 -156.5t-89.5 -296.5zM593 1210l-173 380h207l77 -246h-20l171 246h217l-307 -380h-172z" />
    <glyph glyph-name="Sacute" unicode="&#x15a;" 
d="M486 -20q-259 0 -438 88l62 182q205 -86 395 -86q151 0 229 47t78 138q0 56 -22 97.5t-72 81.5l-286 232q-77 63 -112.5 145.5t-35.5 161.5q0 184 116.5 278.5t338.5 94.5q277 0 438 -169l-145 -152q-73 68 -150 102.5t-155 34.5q-110 0 -169.5 -43.5t-59.5 -128.5
q0 -45 24 -98t77 -96l246 -198q95 -77 138 -150.5t43 -169.5q0 -193 -137 -292.5t-403 -99.5zM654 1580l210 251h284l-262 -251h-232z" />
    <glyph glyph-name="sacute" unicode="&#x15b;" 
d="M491 -20q-130 0 -239 16t-178 44l58 192q116 -29 218.5 -45.5t174.5 -16.5q131 0 203.5 34.5t72.5 97.5q0 31 -24.5 57.5t-70.5 41.5l-300 101q-99 33 -152 93t-53 135q0 167 141.5 258.5t400.5 91.5q91 0 186.5 -8t179.5 -22l-54 -184q-94 11 -183.5 17.5t-158.5 6.5
q-142 0 -219.5 -36.5t-77.5 -103.5q0 -24 19 -43.5t56 -30.5l305 -97q106 -34 162.5 -100.5t56.5 -152.5q0 -165 -137 -255.5t-387 -90.5zM629 1248l217 380h246l-267 -380h-196z" />
    <glyph glyph-name="Scircumflex" unicode="&#x15c;" 
d="M486 -20q-259 0 -438 88l62 182q205 -86 395 -86q151 0 229 47t78 138q0 56 -22 97.5t-72 81.5l-286 232q-77 63 -112.5 145.5t-35.5 161.5q0 184 116.5 278.5t338.5 94.5q277 0 438 -169l-145 -152q-73 68 -150 102.5t-155 34.5q-110 0 -169.5 -43.5t-59.5 -128.5
q0 -45 24 -98t77 -96l246 -198q95 -77 138 -150.5t43 -169.5q0 -193 -137 -292.5t-403 -99.5zM436 1580l306 260h172l214 -260h-212l-136 205h106l-218 -205h-232z" />
    <glyph glyph-name="scircumflex" unicode="&#x15d;" 
d="M491 -20q-130 0 -239 16t-178 44l58 192q116 -29 218.5 -45.5t174.5 -16.5q131 0 203.5 34.5t72.5 97.5q0 31 -24.5 57.5t-70.5 41.5l-300 101q-99 33 -152 93t-53 135q0 167 141.5 258.5t400.5 91.5q91 0 186.5 -8t179.5 -22l-54 -184q-94 11 -183.5 17.5t-158.5 6.5
q-142 0 -219.5 -36.5t-77.5 -103.5q0 -24 19 -43.5t56 -30.5l305 -97q106 -34 162.5 -100.5t56.5 -152.5q0 -165 -137 -255.5t-387 -90.5zM882 1628l173 -380h-207l-77 246h20l-171 -246h-217l307 380h172z" />
    <glyph glyph-name="Scedilla" unicode="&#x15e;" 
d="M486 -20q-259 0 -438 88l62 182q205 -86 395 -86q151 0 229 47t78 138q0 56 -22 97.5t-72 81.5l-286 232q-77 63 -112.5 145.5t-35.5 161.5q0 184 116.5 278.5t338.5 94.5q277 0 438 -169l-145 -152q-73 68 -150 102.5t-155 34.5q-110 0 -169.5 -43.5t-59.5 -128.5
q0 -45 24 -98t77 -96l246 -198q95 -77 138 -150.5t43 -169.5q0 -193 -137 -292.5t-403 -99.5zM237 -480l27 150q200 0 200 73q0 56 -143 82l125 224l107 -51l-44 -98q73 -19 110 -58t37 -95q0 -112 -106.5 -169.5t-312.5 -57.5z" />
    <glyph glyph-name="scedilla" unicode="&#x15f;" 
d="M491 -20q-130 0 -239 16t-178 44l58 192q116 -29 218.5 -45.5t174.5 -16.5q131 0 203.5 34.5t72.5 97.5q0 31 -24.5 57.5t-70.5 41.5l-300 101q-99 33 -152 93t-53 135q0 167 141.5 258.5t400.5 91.5q91 0 186.5 -8t179.5 -22l-54 -184q-94 11 -183.5 17.5t-158.5 6.5
q-142 0 -219.5 -36.5t-77.5 -103.5q0 -24 19 -43.5t56 -30.5l305 -97q106 -34 162.5 -100.5t56.5 -152.5q0 -165 -137 -255.5t-387 -90.5zM237 -480l27 150q200 0 200 73q0 56 -143 82l125 224l107 -51l-44 -98q73 -19 110 -58t37 -95q0 -112 -106.5 -169.5t-312.5 -57.5z
" />
    <glyph glyph-name="Scaron" unicode="&#x160;" 
d="M486 -20q-259 0 -438 88l62 182q205 -86 395 -86q151 0 229 47t78 138q0 56 -22 97.5t-72 81.5l-286 232q-77 63 -112.5 145.5t-35.5 161.5q0 184 116.5 278.5t338.5 94.5q277 0 438 -169l-145 -152q-73 68 -150 102.5t-155 34.5q-110 0 -169.5 -43.5t-59.5 -128.5
q0 -45 24 -98t77 -96l246 -198q95 -77 138 -150.5t43 -169.5q0 -193 -137 -292.5t-403 -99.5zM699 1580l-214 260h217l106 -156h-20l162 156h227l-306 -260h-172z" />
    <glyph glyph-name="scaron" unicode="&#x161;" 
d="M491 -20q-130 0 -239 16t-178 44l58 192q116 -29 218.5 -45.5t174.5 -16.5q131 0 203.5 34.5t72.5 97.5q0 31 -24.5 57.5t-70.5 41.5l-300 101q-99 33 -152 93t-53 135q0 167 141.5 258.5t400.5 91.5q91 0 186.5 -8t179.5 -22l-54 -184q-94 11 -183.5 17.5t-158.5 6.5
q-142 0 -219.5 -36.5t-77.5 -103.5q0 -24 19 -43.5t56 -30.5l305 -97q106 -34 162.5 -100.5t56.5 -152.5q0 -165 -137 -255.5t-387 -90.5zM638 1210l-173 380h207l77 -246h-20l171 246h217l-307 -380h-172z" />
    <glyph glyph-name="uni0162" unicode="&#x162;" 
d="M402 0l251 1420h208l-251 -1420h-208zM204 1230l33 190h1039l-33 -190h-1039zM237 -480l27 150q200 0 200 73q0 56 -143 82l125 224l107 -51l-44 -98q73 -19 110 -58t37 -95q0 -112 -106.5 -169.5t-312.5 -57.5z" />
    <glyph glyph-name="uni0163" unicode="&#x163;" 
d="M649 -20q-184 0 -270.5 78.5t-86.5 244.5q0 42 4 80.5t12.5 86.5t20.5 118l139 792h215l-139 -792q-17 -100 -27.5 -154t-10.5 -111q0 -79 44 -116t138 -37q73 0 128 12t131 43l39 -171q-72 -31 -152.5 -52.5t-184.5 -21.5zM131 874l33 186h934l-33 -186h-934zM317 -480
l27 150q200 0 200 73q0 56 -143 82l125 224l107 -51l-44 -98q73 -19 110 -58t37 -95q0 -112 -106.5 -169.5t-312.5 -57.5z" />
    <glyph glyph-name="Tcaron" unicode="&#x164;" 
d="M402 0l251 1420h208l-251 -1420h-208zM204 1230l33 190h1039l-33 -190h-1039zM699 1580l-214 260h217l106 -156h-20l162 156h227l-306 -260h-172z" />
    <glyph glyph-name="tcaron" unicode="&#x165;" 
d="M835 1228l107 380h222l-157 -380h-172zM649 -20q-184 0 -270.5 78.5t-86.5 244.5q0 42 4 80.5t12.5 86.5t20.5 118l139 792h215l-139 -792q-17 -100 -27.5 -154t-10.5 -111q0 -79 44 -116t138 -37q73 0 128 12t131 43l39 -171q-72 -31 -152.5 -52.5t-184.5 -21.5z
M131 874l33 186h934l-33 -186h-934z" />
    <glyph glyph-name="Tbar" unicode="&#x166;" 
d="M202 587l34 190h816l-34 -190h-816zM402 0l251 1420h208l-251 -1420h-208zM204 1230l33 190h1039l-33 -190h-1039z" />
    <glyph glyph-name="tbar" unicode="&#x167;" 
d="M65 496l30 174h933l-31 -174h-932zM649 -20q-184 0 -270.5 78.5t-86.5 244.5q0 42 4 80.5t12.5 86.5t20.5 118l139 792h215l-139 -792q-17 -100 -27.5 -154t-10.5 -111q0 -79 44 -116t138 -37q73 0 128 12t131 43l39 -171q-72 -31 -152.5 -52.5t-184.5 -21.5zM131 874
l33 186h934l-33 -186h-934z" />
    <glyph glyph-name="Utilde" unicode="&#x168;" 
d="M539 -20q-246 0 -349.5 120.5t-62.5 355.5l170 964h208l-170 -964q-25 -144 31 -218t190 -74q117 0 187.5 73.5t95.5 218.5l170 964h208l-170 -964q-42 -238 -170 -357t-338 -119zM397 1566l9 50q23 125 86 187.5t168 62.5q35 0 78 -7.5t87.5 -18t83 -18t63.5 -7.5
q53 0 65 60l11 60h185l-9 -50q-21 -120 -79 -180t-152 -60q-34 0 -76 7.5t-86.5 18t-83.5 18t-67 7.5q-74 0 -87 -70l-11 -60h-185z" />
    <glyph glyph-name="utilde" unicode="&#x169;" 
d="M392 -21q-140 0 -217 83.5t-77 234.5q0 153 49.5 338.5t159.5 444.5l212 -39q-109 -265 -158 -435.5t-49 -283.5q0 -73 38 -113t107 -40q133 0 220 128.5t133 369.5l-18 -416h-66l57 48q-35 -98 -80 -170t-117.5 -111t-193.5 -39zM1058 -10q-108 0 -172 28.5t-87 89.5
t-10 158l-12 215l103 579h217l-128 -721q-17 -96 9.5 -135t114.5 -39h43l-31 -175h-47zM372 1256l6 30q26 133 79.5 201.5t174.5 68.5q46 0 85.5 -17t78.5 -34.5t83 -17.5q37 0 59.5 24t29.5 70l10 60h185l-6 -50q-17 -140 -80.5 -210t-179.5 -70q-51 0 -95.5 17.5t-82 34.5
t-68.5 17q-38 0 -59 -21.5t-29 -62.5l-8 -40h-183z" />
    <glyph glyph-name="Umacron" unicode="&#x16a;" 
d="M539 -20q-246 0 -349.5 120.5t-62.5 355.5l170 964h208l-170 -964q-25 -144 31 -218t190 -74q117 0 187.5 73.5t95.5 218.5l170 964h208l-170 -964q-42 -238 -170 -357t-338 -119zM400 1580l34 188h773l-34 -188h-773z" />
    <glyph glyph-name="umacron" unicode="&#x16b;" 
d="M392 -21q-140 0 -217 83.5t-77 234.5q0 153 49.5 338.5t159.5 444.5l212 -39q-109 -265 -158 -435.5t-49 -283.5q0 -73 38 -113t107 -40q133 0 220 128.5t133 369.5l-18 -416h-66l57 48q-35 -98 -80 -170t-117.5 -111t-193.5 -39zM1058 -10q-108 0 -172 28.5t-87 89.5
t-10 158l-12 215l103 579h217l-128 -721q-17 -96 9.5 -135t114.5 -39h43l-31 -175h-47zM297 1248l34 188h859l-34 -188h-859z" />
    <glyph glyph-name="Ubreve" unicode="&#x16c;" 
d="M539 -20q-246 0 -349.5 120.5t-62.5 355.5l170 964h208l-170 -964q-25 -144 31 -218t190 -74q117 0 187.5 73.5t95.5 218.5l170 964h208l-170 -964q-42 -238 -170 -357t-338 -119zM724 1570q-151 0 -222.5 65t-49.5 180q10 53 30 90l171 -43q-4 -8 -6 -16t-3 -13
q-10 -55 18 -86t88 -31q82 0 159 45.5t132 126.5l11 16l154 -81l-13 -19q-76 -110 -199.5 -172t-269.5 -62z" />
    <glyph glyph-name="ubreve" unicode="&#x16d;" 
d="M392 -21q-140 0 -217 83.5t-77 234.5q0 153 49.5 338.5t159.5 444.5l212 -39q-109 -265 -158 -435.5t-49 -283.5q0 -73 38 -113t107 -40q133 0 220 128.5t133 369.5l-18 -416h-66l57 48q-35 -98 -80 -170t-117.5 -111t-193.5 -39zM1058 -10q-108 0 -172 28.5t-87 89.5
t-10 158l-12 215l103 579h217l-128 -721q-17 -96 9.5 -135t114.5 -39h43l-31 -175h-47zM706 1220q-131 0 -206.5 66t-75.5 172q0 35 5 70.5t16 75.5l171 -15q-9 -26 -12 -49t-3 -42q0 -62 31 -96.5t97 -34.5q77 0 152.5 73t121.5 175l143 -80q-83 -161 -200 -238t-240 -77z
" />
    <glyph glyph-name="Uring" unicode="&#x16e;" 
d="M539 -20q-246 0 -349.5 120.5t-62.5 355.5l170 964h208l-170 -964q-25 -144 31 -218t190 -74q117 0 187.5 73.5t95.5 218.5l170 964h208l-170 -964q-42 -238 -170 -357t-338 -119zM769 1488q-93 0 -149.5 47t-56.5 124q0 109 76.5 175t201.5 66q93 0 149.5 -47t56.5 -124
q0 -109 -76.5 -175t-201.5 -66zM789 1604q51 0 82.5 31t31.5 81q0 31 -22.5 50t-59.5 19q-51 0 -82.5 -31t-31.5 -82q0 -31 22.5 -49.5t59.5 -18.5z" />
    <glyph glyph-name="uring" unicode="&#x16f;" 
d="M392 -21q-140 0 -217 83.5t-77 234.5q0 153 49.5 338.5t159.5 444.5l212 -39q-109 -265 -158 -435.5t-49 -283.5q0 -73 38 -113t107 -40q133 0 220 128.5t133 369.5l-18 -416h-66l57 48q-35 -98 -80 -170t-117.5 -111t-193.5 -39zM1058 -10q-108 0 -172 28.5t-87 89.5
t-10 158l-12 215l103 579h217l-128 -721q-17 -96 9.5 -135t114.5 -39h43l-31 -175h-47zM717 1198q-92 0 -148.5 49t-56.5 128q0 115 77 185t204 70q92 0 148 -48.5t56 -128.5q0 -115 -77 -185t-203 -70zM738 1314q52 0 83.5 32t31.5 84q0 38 -22 61t-59 23q-52 0 -84 -31.5
t-32 -84.5q0 -37 22.5 -60.5t59.5 -23.5z" />
    <glyph glyph-name="Uhungarumlaut" unicode="&#x170;" 
d="M539 -20q-246 0 -349.5 120.5t-62.5 355.5l170 964h208l-170 -964q-25 -144 31 -218t190 -74q117 0 187.5 73.5t95.5 218.5l170 964h208l-170 -964q-42 -238 -170 -357t-338 -119zM454 1580l170 251h284l-222 -251h-232zM856 1580l170 251h284l-222 -251h-232z" />
    <glyph glyph-name="uhungarumlaut" unicode="&#x171;" 
d="M392 -21q-140 0 -217 83.5t-77 234.5q0 153 49.5 338.5t159.5 444.5l212 -39q-109 -265 -158 -435.5t-49 -283.5q0 -73 38 -113t107 -40q133 0 220 128.5t133 369.5l-18 -416h-66l57 48q-35 -98 -80 -170t-117.5 -111t-193.5 -39zM1058 -10q-108 0 -172 28.5t-87 89.5
t-10 158l-12 215l103 579h217l-128 -721q-17 -96 9.5 -135t114.5 -39h43l-31 -175h-47zM763 1248l217 380h222l-237 -380h-202zM383 1248l217 380h222l-237 -380h-202z" />
    <glyph glyph-name="Uogonek" unicode="&#x172;" 
d="M511 -424q-220 0 -220 192q0 74 39.5 125t103.5 78v50l230 3l8 -30q-52 -14 -105.5 -32.5t-89.5 -50t-36 -84.5q0 -83 96 -83q29 0 60 6t62 18l32 -159q-43 -16 -88.5 -24.5t-91.5 -8.5zM539 -20q-246 0 -349.5 120.5t-62.5 355.5l170 964h208l-170 -964
q-25 -144 31 -218t190 -74q117 0 187.5 73.5t95.5 218.5l170 964h208l-170 -964q-42 -238 -170 -357t-338 -119z" />
    <glyph glyph-name="uogonek" unicode="&#x173;" 
d="M857 -423q-215 0 -215 170q0 51 22.5 98.5t73.5 87.5t137 69v70l82 -48l105 -34q-63 0 -125.5 -21t-103.5 -58t-41 -87q0 -80 78 -80q23 0 42 4.5t32 9.5l26 -163q-22 -9 -51.5 -13.5t-61.5 -4.5zM392 -21q-140 0 -217 83.5t-77 234.5q0 153 49.5 338.5t159.5 444.5
l212 -39q-109 -265 -158 -435.5t-49 -283.5q0 -73 38 -113t107 -40q133 0 220 128.5t133 369.5l-18 -416h-66l57 48q-35 -98 -80 -170t-117.5 -111t-193.5 -39zM1058 -10q-108 0 -172 28.5t-87 89.5t-10 158l-12 215l103 579h217l-128 -721q-17 -96 9.5 -135t114.5 -39h43
l-31 -175h-47z" />
    <glyph glyph-name="Wcircumflex" unicode="&#x174;" 
d="M572 0l30 505h-91l52 555l192 12l-56 -900h18q72 166 146.5 360.5t134.5 417t90 470.5h214q-26 -211 -74 -407.5t-112 -376t-138.5 -339t-153.5 -297.5h-252zM117 0l90 1420l207 12l-95 -1260h18l232 565l70 -271h-153l126 100l-228 -566h-267zM396 1580l306 260h172
l214 -260h-212l-136 205h106l-218 -205h-232z" />
    <glyph glyph-name="wcircumflex" unicode="&#x175;" 
d="M627 0l-11 506l-78 -40l-16 594l182 10l27 -884h18q85 164 139 381.5t58 492.5h214q-7 -342 -99 -606.5t-250 -453.5h-184zM637 706l30 -295h-96l47 44l-234 -455h-194l-91 1060l212 10l48 -884h18zM800 1628l173 -380h-207l-77 246h20l-171 -246h-217l307 380h172z" />
    <glyph glyph-name="Ycircumflex" unicode="&#x176;" 
d="M402 0l105 594h208l-105 -594h-208zM495 424l-317 974l212 32l224 -804h18q106 137 192 259.5t158 251.5t136 283h214q-83 -204 -185.5 -377t-227.5 -332.5t-275 -326.5zM436 1580l306 260h172l214 -260h-212l-136 205h106l-218 -205h-232z" />
    <glyph glyph-name="ycircumflex" unicode="&#x177;" 
d="M3 -472l-89 175q228 99 401.5 227.5t299 292.5t207.5 371.5t127 465.5h214q-75 -389 -221 -678.5t-376.5 -497.5t-562.5 -356zM324 1080q147 -600 388 -909l-185 -120q-125 189 -230.5 440t-193.5 569zM810 1628l173 -380h-207l-77 246h20l-171 -246h-217l307 380h172z
" />
    <glyph glyph-name="Ydieresis" unicode="&#x178;" 
d="M402 0l105 594h208l-105 -594h-208zM495 424l-317 974l212 32l224 -804h18q106 137 192 259.5t158 251.5t136 283h214q-83 -204 -185.5 -377t-227.5 -332.5t-275 -326.5zM1017 1580q-55 0 -94.5 39.5t-39.5 94.5q0 56 39.5 95t94.5 39q56 0 95 -39t39 -95
q0 -55 -39 -94.5t-95 -39.5zM601 1580q-55 0 -94.5 39.5t-39.5 94.5q0 56 39.5 95t94.5 39q56 0 95 -39t39 -95q0 -55 -39 -94.5t-95 -39.5z" />
    <glyph glyph-name="Zacute" unicode="&#x179;" 
d="M280 108l-195 52l920 1162l194 -62zM145 0l-60 160l195 30h725l-33 -190h-827zM301 1230l33 190h805l60 -160l-167 -30h-731zM634 1580l210 251h284l-262 -251h-232z" />
    <glyph glyph-name="zacute" unicode="&#x17a;" 
d="M1096 874l-812 -764l-178 107l847 775zM978 186l-33 -186h-789l-50 217l62 -31h810zM1096 874h-860l33 186h797zM597 1248l217 380h246l-267 -380h-196z" />
    <glyph glyph-name="Zdotaccent" unicode="&#x17b;" 
d="M280 108l-195 52l920 1162l194 -62zM145 0l-60 160l195 30h725l-33 -190h-827zM301 1230l33 190h805l60 -160l-167 -30h-731zM789 1580q-55 0 -94.5 39.5t-39.5 94.5q0 56 39.5 95t94.5 39q56 0 95 -39t39 -95q0 -55 -39 -94.5t-95 -39.5z" />
    <glyph glyph-name="zdotaccent" unicode="&#x17c;" 
d="M1096 874l-812 -764l-178 107l847 775zM978 186l-33 -186h-789l-50 217l62 -31h810zM1096 874h-860l33 186h797zM719 1238q-55 0 -94.5 39.5t-39.5 94.5q0 56 39.5 95t94.5 39q56 0 95 -39t39 -95q0 -55 -39 -94.5t-95 -39.5z" />
    <glyph glyph-name="Zcaron" unicode="&#x17d;" 
d="M280 108l-195 52l920 1162l194 -62zM145 0l-60 160l195 30h725l-33 -190h-827zM301 1230l33 190h805l60 -160l-167 -30h-731zM679 1580l-214 260h217l106 -156h-20l162 156h227l-306 -260h-172z" />
    <glyph glyph-name="zcaron" unicode="&#x17e;" 
d="M1096 874l-812 -764l-178 107l847 775zM978 186l-33 -186h-789l-50 217l62 -31h810zM1096 874h-860l33 186h797zM606 1210l-173 380h207l77 -246h-20l171 246h217l-307 -380h-172z" />
    <glyph glyph-name="longs" unicode="&#x17f;" 
d="M-56 -473l-9 190l73 8q128 14 208 69t121.5 154t52.5 244l74 678q18 223 89.5 366.5t212 213.5t363.5 70q87 0 166 -20l-54 -184q-46 8 -81.5 11t-69.5 3q-204 0 -296.5 -109.5t-112.5 -340.5l-81 -718q-16 -191 -80 -323t-187 -207t-318 -97zM88 640l33 186h480
l-33 -186h-480z" />
    <glyph glyph-name="uni0186" unicode="&#x186;" 
d="M638 1440q180 0 300.5 -60.5t180.5 -181t60 -301.5q0 -202 -58.5 -370.5t-165.5 -290.5t-254.5 -189t-325.5 -67q-254 0 -394 159l143 147q119 -122 280 -122q162 0 288.5 94.5t199.5 258.5t73 373q0 122 -39.5 203.5t-118 122t-196.5 40.5q-163 0 -333 -60l-14 176
q94 35 187.5 51.5t186.5 16.5z" />
    <glyph glyph-name="uni0189" unicode="&#x189;" 
d="M26 612l34 190h639l-34 -190h-639zM228 0l34 190h79q194 0 332 76.5t211.5 221t73.5 347.5q0 196 -120 305.5t-334 109.5q-105 0 -207 -20v190q109 20 232 20q303 0 473 -155t170 -432q0 -268 -104 -459t-299 -292.5t-470 -101.5h-71zM47 0l250 1420h208l-250 -1420h-208
z" />
    <glyph glyph-name="uni018E" unicode="&#x18e;" 
d="M738 0l250 1420h209l-250 -1420h-209zM7 0l33 190h940l-33 -190h-940zM295 614l33 190h760l-33 -190h-760zM224 1230l33 190h940l-34 -190h-939z" />
    <glyph glyph-name="uni018F" unicode="&#x18f;" 
d="M560 1256q-64 0 -138.5 -16t-142.5 -45l-54 181q80 30 171 47t173 17q286 0 446.5 -155.5t160.5 -433.5q0 -273 -84.5 -468t-242.5 -299t-380 -104q-184 0 -287 92.5t-103 257.5q0 171 105 295t302.5 193.5t475.5 74.5l41 -184q-223 -4 -382 -49t-243.5 -125.5
t-84.5 -191.5q0 -85 53.5 -132t150.5 -47q146 0 249.5 80.5t159.5 231.5t56 363q-1 197 -107.5 307t-294.5 110z" />
    <glyph glyph-name="uni0190" unicode="&#x190;" 
d="M851 1440q126 0 224 -38.5t179 -120.5l-149 -152q-61 66 -127 96.5t-159 30.5q-96 0 -173 -25.5t-122.5 -77t-45.5 -130.5q0 -88 97.5 -132t317.5 -51l-34 -188h-171q-104 0 -189.5 -32.5t-136 -95.5t-50.5 -156q0 -96 77 -150t216 -54q82 0 142 5t118.5 17.5t134.5 35.5
l15 -174q-68 -26 -131 -41t-135.5 -21t-171.5 -6q-227 0 -353.5 95t-126.5 257q0 131 58.5 224.5t168 145t262.5 54.5l-26 -54l20 117l7 -56q-163 23 -236 93t-73 173q0 141 75.5 232t205.5 135t292 44z" />
    <glyph glyph-name="uni0191" unicode="&#x191;" 
d="M114 151h207l-27 -157q-26 -152 -81 -247.5t-152 -147t-249 -71.5l-31 -4l-16 202l43 8q130 24 192 75.5t81 157.5zM87 0l250 1420h208l-250 -1420h-208zM245 556l34 190h698l-33 -190h-699zM304 1230l33 190h939l-33 -190h-939z" />
    <glyph glyph-name="florin" unicode="&#x192;" 
d="M627 -480q-190 0 -294 158t-104 445q0 444 88 756.5t255 476.5t405 164q99 0 182 -46.5t135 -130.5l-147 -137q-35 59 -87.5 91.5t-113.5 32.5q-160 0 -272.5 -142t-171.5 -411.5t-59 -653.5q0 -197 51 -305t142 -108q139 0 139 168q0 113 -54.5 234t-152.5 227l165 134
q115 -116 178.5 -272t63.5 -323q0 -358 -348 -358zM88 643l33 186h924l-33 -186h-924z" />
    <glyph glyph-name="uni0194" unicode="&#x194;" 
d="M381 -462l33 184q57 0 92 37.5t35 98.5q0 34 -19.5 79t-68.5 124l144 45q83 -79 115 -148t32 -135q0 -128 -99.5 -206.5t-263.5 -78.5zM381 -462q-126 0 -202.5 63.5t-76.5 166.5q0 106 77 187.5t196 150.5l146 -45q-86 -67 -133 -110.5t-65 -75.5t-18 -64
q0 -40 30 -64.5t79 -24.5zM307 0l-105 1420l212 12l80 -1260h18q188 248 331.5 562t254.5 686h214q-118 -423 -292 -783.5t-421 -636.5l-129 56z" />
    <glyph glyph-name="uni0196" unicode="&#x196;" 
d="M693 -20q-166 0 -244.5 76.5t-78.5 237.5q0 36 7 80t22 101l155 605q35 136 7.5 194.5t-161.5 58.5q-34 0 -69.5 -5.5t-70.5 -20.5l-31 182q50 14 101 22.5t102 8.5q232 0 314.5 -111t22.5 -341l-155 -593q-16 -59 -23 -101t-7 -71q0 -133 148 -133q61 0 107 15t110 50
l69 -161q-70 -40 -147.5 -67t-177.5 -27z" />
    <glyph glyph-name="uni019A" unicode="&#x19a;" 
d="M120 644l34 190l839 1l-34 -190zM693 -20q-166 0 -244.5 76.5t-78.5 237.5q0 36 7 80t22 101l155 605q35 136 7.5 194.5t-161.5 58.5q-34 0 -69.5 -5.5t-70.5 -20.5l-31 182q50 14 101 22.5t102 8.5q232 0 314.5 -111t22.5 -341l-155 -593q-16 -59 -23 -101t-7 -71
q0 -133 148 -133q61 0 107 15t110 50l69 -161q-70 -40 -147.5 -67t-177.5 -27z" />
    <glyph glyph-name="uni019B" unicode="&#x19b;" 
d="M127 866l-55 195l900 270l53 -195zM976 -20q-110 0 -178 52t-94 163l-200 1021q-14 61 -52 87.5t-89 26.5q-46 0 -85.5 -12t-77.5 -26l-31 186q41 15 96 28.5t142 13.5q111 0 181.5 -48.5t95.5 -155.5l201 -1032q14 -60 52 -87t93 -27q5 0 20 2t43 6l-9 -186
q-28 -6 -54 -9t-54 -3zM-26 0l654 1020l100 -241l-152 -48q3 -42 1 -84t-12 -81t-32 -73l-318 -493h-241z" />
    <glyph glyph-name="uni019D" unicode="&#x19d;" 
d="M82 151h207l-27 -157q-26 -152 -81 -247.5t-152 -147t-249 -71.5l-31 -4l-16 202l43 8q130 24 192 75.5t81 157.5zM716 0l-245 1080h-92l62 340h107l245 -1080h50l-62 -340h-65zM55 0l250 1420h208l-250 -1420h-208zM751 0l250 1420h208l-250 -1420h-208z" />
    <glyph glyph-name="Ohorn" unicode="&#x1a0;" 
d="M513 -20q-195 0 -304 128.5t-109 357.5q0 306 77.5 524t223.5 334t351 116q194 0 303 -125.5t109 -349.5q0 -309 -77.5 -529.5t-223 -338t-350.5 -117.5zM539 164q129 0 221 92.5t141 266t49 417.5q0 149 -57.5 232.5t-161.5 83.5q-131 0 -224.5 -91t-143 -262
t-49.5 -412q0 -154 59.5 -240.5t165.5 -86.5zM974 1205l-21 165l61 10q106 17 169 85.5t84 187.5h192q-33 -190 -139 -299.5t-285 -138.5z" />
    <glyph glyph-name="ohorn" unicode="&#x1a1;" 
d="M502 -20q-177 0 -276.5 101.5t-99.5 282.5q0 338 151 527t419 189q177 0 276.5 -104t99.5 -290q0 -333 -150.5 -519.5t-419.5 -186.5zM539 169q150 0 234.5 125.5t84.5 348.5q0 116 -50 181.5t-141 65.5q-154 0 -240.5 -125t-86.5 -348q0 -117 52.5 -182.5t146.5 -65.5z
M852 895l-21 165l61 10q93 15 149 84.5t76 188.5h220q-33 -190 -139 -299.5t-285 -138.5z" />
    <glyph glyph-name="uni01A9" unicode="&#x1a9;" 
d="M240 68l-150 122l529 523l-345 517l160 132l446 -649zM57 0l33 190h920l-33 -190h-920zM274 1230l33 190h900l-33 -190h-900z" />
    <glyph glyph-name="Uhorn" unicode="&#x1af;" 
d="M1039 1255l-22 165l63 10q87 14 137 70t65 153h214q-29 -169 -128 -265t-267 -123zM539 -20q-246 0 -349.5 120.5t-62.5 355.5l170 964h208l-170 -964q-25 -144 31 -218t190 -74q117 0 187.5 73.5t95.5 218.5l170 964h208l-170 -964q-42 -238 -170 -357t-338 -119z" />
    <glyph glyph-name="uhorn" unicode="&#x1b0;" 
d="M392 -21q-140 0 -217 83.5t-77 234.5q0 153 49.5 338.5t159.5 444.5l212 -39q-109 -265 -158 -435.5t-49 -283.5q0 -73 38 -113t107 -40q133 0 220 128.5t133 369.5l-18 -416h-66l57 48q-35 -98 -80 -170t-117.5 -111t-193.5 -39zM1058 -10q-108 0 -172 28.5t-87 89.5
t-10 158l-12 215l103 579h217l-128 -721q-17 -96 9.5 -135t114.5 -39h43l-31 -175h-47zM901 895l-21 165l61 10q93 15 149 84.5t76 188.5h220q-33 -190 -139 -299.5t-285 -138.5z" />
    <glyph glyph-name="uni01B1" unicode="&#x1b1;" 
d="M471 1293l183 -59q-172 -94 -268 -296t-96 -468q0 -144 65 -225t180 -81q132 0 225.5 83.5t143 240t49.5 376.5q0 143 -42.5 241t-117.5 129l207 51v-73q79 -37 123 -133.5t44 -231.5q0 -272 -79 -466.5t-227 -297.5t-357 -103q-202 0 -315 126.5t-113 351.5
q0 263 104 462.5t291 291.5v81zM260 1420h427l-33 -186h-427zM826 1420h421l-33 -186h-421z" />
    <glyph glyph-name="uni01B2" unicode="&#x1b2;" 
d="M785 1420h108q153 0 224.5 -79t46.5 -221l-117 -664q-42 -238 -181 -357t-367 -119q-456 0 -372 476l170 964h208l-170 -964q-25 -142 23.5 -214t178.5 -72q251 0 302 286l108 614q16 89 -10 124.5t-106 35.5h-80z" />
    <glyph glyph-name="uni01B7" unicode="&#x1b7;" 
d="M459 -20q-142 0 -252 42.5t-190 118.5l137 153q77 -61 160 -95.5t182 -34.5q102 0 183.5 34t129 98.5t47.5 155.5q0 106 -92 163t-265 57h-115l-18 124l590 499l8 -61h-677l33 186h783l35 -201l-519 -436l-13 43q224 -4 343.5 -99t119.5 -266q0 -151 -72.5 -258.5
t-209 -165t-328.5 -57.5z" />
    <glyph glyph-name="uni01CD" unicode="&#x1cd;" 
d="M-48 0l630 1421h321q26 -113 49.5 -256.5t43 -300.5t34 -313.5t23 -298t9.5 -252.5h-212q1 92 -5.5 217t-18 265t-27 280.5t-32 266.5t-32.5 220h-18l-543 -1249h-222zM215 346l41 190h720l-41 -190h-720zM699 1580l-214 260h217l106 -156h-20l162 156h227l-306 -260
h-172z" />
    <glyph glyph-name="uni01CE" unicode="&#x1ce;" 
d="M347 -21q-136 0 -210 78t-74 220q0 180 76.5 326.5t214.5 250.5t323 160t402 56h20l-132 -753q-14 -80 12.5 -116t114.5 -36h41l-30 -175h-71q-77 0 -128.5 15.5t-80 49t-36.5 88.5t2 134l58 -26h-116l53 58q-55 -157 -170 -243.5t-269 -86.5zM412 169q144 0 251 130
t150 368l52 290l81 -77q-140 -6 -261.5 -52t-213 -123.5t-143 -180t-51.5 -222.5q0 -64 35.5 -98.5t99.5 -34.5zM666 1210l-173 380h207l77 -246h-20l171 246h217l-307 -380h-172z" />
    <glyph glyph-name="uni01DD" unicode="&#x1dd;" 
d="M629 890q-79 0 -169 -20t-173 -55l-72 161q98 49 209.5 76.5t213.5 27.5q206 0 321 -108t115 -301q0 -208 -78 -363t-219 -241.5t-329 -86.5q-147 0 -229.5 74t-82.5 206q0 191 196.5 301.5t545.5 117.5l41 -170q-268 -4 -418.5 -65.5t-150.5 -170.5q0 -48 33 -75.5
t93 -27.5q120 0 210 61t140.5 171.5t50.5 256.5q-1 109 -66.5 170t-181.5 61z" />
    <glyph glyph-name="uni01E4" unicode="&#x1e4;" 
d="M591 -20q-239 0 -373.5 141t-134.5 392q0 200 55.5 369t159.5 294.5t251 194.5t331 69q142 0 228.5 -50.5t140.5 -127.5l-155 -138q-45 56 -108 94t-146 38q-115 0 -214 -52.5t-173 -148.5t-115 -227t-41 -289q0 -375 340 -375q102 0 184 18.5t135 31.5l47 -174
q-46 -13 -159 -36.5t-253 -23.5zM795 40l118 670h208l-118 -670h-208zM611 370l33 190h561l-33 -190h-561z" />
    <glyph glyph-name="uni01E5" unicode="&#x1e5;" 
d="M-83 -193l20 108h1111l-20 -108h-1111zM55 -480l-10 186l210 13q125 8 212.5 48t143.5 103t87.5 140t44.5 159l133 754l233 147h8l-154 -869q-25 -141 -72.5 -260t-129.5 -209t-210.5 -143t-315.5 -61zM960 880q-140 -6 -261 -52t-211.5 -123.5t-141.5 -180t-51 -222.5
q0 -64 36.5 -98.5t103.5 -34.5q99 0 178 57.5t134.5 169t83.5 271.5l7 40l103 -84l-116 -392h-116l48 48q-45 -143 -146 -221.5t-241 -78.5q-138 0 -213.5 78t-75.5 220q0 180 76.5 326.5t214.5 250.5t323.5 160t402.5 56h18z" />
    <glyph glyph-name="Gcaron" unicode="&#x1e6;" 
d="M591 -20q-239 0 -373.5 141t-134.5 392q0 200 55.5 369t159.5 294.5t251 194.5t331 69q142 0 228.5 -50.5t140.5 -127.5l-155 -138q-45 56 -108 94t-146 38q-115 0 -214 -52.5t-173 -148.5t-115 -227t-41 -289q0 -375 340 -375q102 0 184 18.5t135 31.5l47 -174
q-46 -13 -159 -36.5t-253 -23.5zM795 40l118 670h208l-118 -670h-208zM611 520l33 190h471l-33 -190h-471zM799 1580l-214 260h217l106 -156h-20l162 156h227l-306 -260h-172z" />
    <glyph glyph-name="gcaron" unicode="&#x1e7;" 
d="M55 -480l-10 186l210 13q125 8 212.5 48t143.5 103t87.5 140t44.5 159l133 754l233 147h8l-154 -869q-25 -141 -72.5 -260t-129.5 -209t-210.5 -143t-315.5 -61zM960 880q-140 -6 -261 -52t-211.5 -123.5t-141.5 -180t-51 -222.5q0 -64 36.5 -98.5t103.5 -34.5
q99 0 178 57.5t134.5 169t83.5 271.5l7 40l103 -84l-116 -392h-116l48 48q-45 -143 -146 -221.5t-241 -78.5q-138 0 -213.5 78t-75.5 220q0 180 76.5 326.5t214.5 250.5t323.5 160t402.5 56h18zM636 1210l-173 380h207l77 -246h-20l171 246h217l-307 -380h-172z" />
    <glyph glyph-name="uni01EA" unicode="&#x1ea;" 
d="M501 -424q-220 0 -220 182q0 78 39.5 131.5t103.5 81.5v50l230 7l8 -30q-52 -15 -105.5 -34t-89.5 -50.5t-36 -86.5q0 -83 96 -83q29 0 60 6t62 18l32 -159q-43 -16 -88.5 -24.5t-91.5 -8.5zM513 -20q-195 0 -304 128.5t-109 357.5q0 306 77.5 524t223.5 334t351 116
q194 0 303 -125.5t109 -349.5q0 -309 -77.5 -529.5t-223 -338t-350.5 -117.5zM539 164q129 0 221 92.5t141 266t49 417.5q0 149 -57.5 232.5t-161.5 83.5q-131 0 -224.5 -91t-143 -262t-49.5 -412q0 -154 59.5 -240.5t165.5 -86.5z" />
    <glyph glyph-name="uni01EB" unicode="&#x1eb;" 
d="M511 -424q-220 0 -220 192q0 74 39.5 125t103.5 78v50l223 10l8 -30q-51 -17 -102.5 -36t-86.5 -51t-35 -87q0 -83 96 -83q29 0 60 6t62 18l32 -159q-43 -16 -88.5 -24.5t-91.5 -8.5zM502 -20q-177 0 -276.5 101.5t-99.5 282.5q0 338 151 527t419 189q177 0 276.5 -104
t99.5 -290q0 -333 -150.5 -519.5t-419.5 -186.5zM539 169q150 0 234.5 125.5t84.5 348.5q0 116 -50 181.5t-141 65.5q-154 0 -240.5 -125t-86.5 -348q0 -117 52.5 -182.5t146.5 -65.5z" />
    <glyph glyph-name="uni01F0" unicode="&#x1f0;" 
d="M27 -480l-10 188l220 18q128 11 198.5 53.5t106.5 122.5t57 200l115 645q14 77 -8 112t-83 35q-95 0 -191 -13t-191 -30l-21 187q107 20 216.5 31.5t218.5 11.5q174 0 238.5 -84t31.5 -270l-105 -593q-27 -150 -66 -259t-105 -182t-170.5 -112t-261.5 -49zM759 1210
l-173 380h207l77 -246h-20l171 246h217l-307 -380h-172z" />
    <glyph glyph-name="Aringacute" unicode="&#x1fa;" 
d="M686 1820l210 251h284l-262 -251h-232zM-48 0l630 1421h321q26 -113 49.5 -256.5t43 -300.5t34 -313.5t23 -298t9.5 -252.5h-212q1 92 -5.5 217t-18 265t-27 280.5t-32 266.5t-32.5 220h-18l-543 -1249h-222zM215 346l41 190h720l-41 -190h-720zM769 1488
q-93 0 -149.5 47t-56.5 124q0 109 76.5 175t201.5 66q93 0 149.5 -47t56.5 -124q0 -109 -76.5 -175t-201.5 -66zM789 1604q51 0 82.5 31t31.5 81q0 31 -22.5 50t-59.5 19q-51 0 -82.5 -31t-31.5 -82q0 -31 22.5 -49.5t59.5 -18.5z" />
    <glyph glyph-name="aringacute" unicode="&#x1fb;" 
d="M347 -21q-136 0 -210 78t-74 220q0 180 76.5 326.5t214.5 250.5t323 160t402 56h20l-132 -753q-14 -80 12.5 -116t114.5 -36h41l-30 -175h-71q-77 0 -128.5 15.5t-80 49t-36.5 88.5t2 134l58 -26h-116l53 58q-55 -157 -170 -243.5t-269 -86.5zM412 169q144 0 251 130
t150 368l52 290l81 -77q-140 -6 -261.5 -52t-213 -123.5t-143 -180t-51.5 -222.5q0 -64 35.5 -98.5t99.5 -34.5zM747 1198q-92 0 -148.5 49t-56.5 128q0 115 77 185t204 70q92 0 148 -48.5t56 -128.5q0 -115 -77 -185t-203 -70zM768 1314q52 0 83.5 32t31.5 84q0 38 -22 61
t-59 23q-52 0 -84 -31.5t-32 -84.5q0 -37 22.5 -60.5t59.5 -23.5zM696 1528l217 380h246l-267 -380h-196z" />
    <glyph glyph-name="AEacute" unicode="&#x1fc;" 
d="M491 0l250 1420h198l-250 -1420h-198zM501 0l34 190h503l-33 -190h-504zM610 616l33 190h444l-33 -190h-444zM718 1230l33 190h506l-35 -190h-504zM-51 0l628 1420h290l-141 -172h-38l-529 -1248h-210zM188 237l34 180h460l-34 -180h-460zM754 1580l210 251h284
l-262 -251h-232z" />
    <glyph glyph-name="aeacute" unicode="&#x1fd;" 
d="M908 170q67 0 135 20l41 -176q-92 -34 -185 -34q-166 0 -259 108t-93 301q0 208 52 363t146 241.5t219 86.5q104 0 161.5 -69t57.5 -191q0 -199 -135 -315.5t-375 -123.5l-21 160q155 4 242 70t87 182q0 45 -19.5 71t-55.5 26q-61 0 -107.5 -61t-72.5 -171t-27 -257
q1 -109 56 -170t153 -61zM237 -20q-127 0 -194.5 66t-67.5 188q0 120 59 210t164.5 140t245.5 50q47 0 93 -9.5t73 -26.5l-75 -174q-17 23 -50.5 26.5t-76.5 3.5q-100 0 -159.5 -51t-59.5 -136q0 -97 104 -97q66 0 117 55t67 155l31 176l126 -322h-169l88 22
q-29 -145 -108 -210.5t-208 -65.5zM472 310l8 82l39 224q14 77 -12.5 135t-87 91t-149.5 35l-109 3l30 190l132 -3q185 -4 277 -133t46 -350l-57 -274h-117zM627 1248l217 380h246l-267 -380h-196z" />
    <glyph glyph-name="Oslashacute" unicode="&#x1fe;" 
d="M86 -142l-129 101l1197 1581l129 -91zM513 -20q-195 0 -304 128.5t-109 357.5q0 306 77.5 524t223.5 334t351 116q194 0 303 -125.5t109 -349.5q0 -309 -77.5 -529.5t-223 -338t-350.5 -117.5zM539 164q129 0 221 92.5t141 266t49 417.5q0 149 -57.5 232.5t-161.5 83.5
q-131 0 -224.5 -91t-143 -262t-49.5 -412q0 -154 59.5 -240.5t165.5 -86.5zM654 1580l210 251h284l-262 -251h-232z" />
    <glyph glyph-name="oslashacute" unicode="&#x1ff;" 
d="M158 -120l-94 68l943 1240l94 -68zM502 -20q-177 0 -276.5 101.5t-99.5 282.5q0 338 151 527t419 189q177 0 276.5 -104t99.5 -290q0 -333 -150.5 -519.5t-419.5 -186.5zM539 169q150 0 234.5 125.5t84.5 348.5q0 116 -50 181.5t-141 65.5q-154 0 -240.5 -125t-86.5 -348
q0 -117 52.5 -182.5t146.5 -65.5zM627 1248l217 380h246l-267 -380h-196z" />
    <glyph glyph-name="uni0218" unicode="&#x218;" 
d="M486 -20q-259 0 -438 88l62 182q205 -86 395 -86q151 0 229 47t78 138q0 56 -22 97.5t-72 81.5l-286 232q-77 63 -112.5 145.5t-35.5 161.5q0 184 116.5 278.5t338.5 94.5q277 0 438 -169l-145 -152q-73 68 -150 102.5t-155 34.5q-110 0 -169.5 -43.5t-59.5 -128.5
q0 -45 24 -98t77 -96l246 -198q95 -77 138 -150.5t43 -169.5q0 -193 -137 -292.5t-403 -99.5zM388 -568l-102 99q87 61 128 102.5t41 71.5q0 32 -67 32h-65l26 149h75q200 0 200 -128q0 -87 -71 -168t-165 -158z" />
    <glyph glyph-name="uni0219" unicode="&#x219;" 
d="M491 -20q-130 0 -239 16t-178 44l58 192q116 -29 218.5 -45.5t174.5 -16.5q131 0 203.5 34.5t72.5 97.5q0 31 -24.5 57.5t-70.5 41.5l-300 101q-99 33 -152 93t-53 135q0 167 141.5 258.5t400.5 91.5q91 0 186.5 -8t179.5 -22l-54 -184q-94 11 -183.5 17.5t-158.5 6.5
q-142 0 -219.5 -36.5t-77.5 -103.5q0 -24 19 -43.5t56 -30.5l305 -97q106 -34 162.5 -100.5t56.5 -152.5q0 -165 -137 -255.5t-387 -90.5zM388 -568l-102 99q87 61 128 102.5t41 71.5q0 32 -67 32h-65l26 149h75q200 0 200 -128q0 -87 -71 -168t-165 -158z" />
    <glyph glyph-name="uni021A" unicode="&#x21a;" 
d="M402 0l251 1420h208l-251 -1420h-208zM204 1230l33 190h1039l-33 -190h-1039zM388 -568l-102 99q87 61 128 102.5t41 71.5q0 32 -67 32h-65l26 149h75q200 0 200 -128q0 -87 -71 -168t-165 -158z" />
    <glyph glyph-name="uni021B" unicode="&#x21b;" 
d="M649 -20q-184 0 -270.5 78.5t-86.5 244.5q0 42 4 80.5t12.5 86.5t20.5 118l139 792h215l-139 -792q-17 -100 -27.5 -154t-10.5 -111q0 -79 44 -116t138 -37q73 0 128 12t131 43l39 -171q-72 -31 -152.5 -52.5t-184.5 -21.5zM131 874l33 186h934l-33 -186h-934zM468 -568
l-102 99q87 61 128 102.5t41 71.5q0 32 -67 32h-65l26 149h75q200 0 200 -128q0 -87 -71 -168t-165 -158z" />
    <glyph glyph-name="uni021E" unicode="&#x21e;" 
d="M759 0l250 1420h208l-250 -1420h-208zM47 0l250 1420h208l-250 -1420h-208zM197 612l33 190h841l-33 -190h-841zM699 1580l-214 260h217l106 -156h-20l162 156h227l-306 -260h-172z" />
    <glyph glyph-name="uni021F" unicode="&#x21f;" 
d="M723 0l123 705q16 92 -13.5 138.5t-105.5 46.5q-82 0 -152 -47t-125.5 -156.5t-95.5 -296.5l50 429h44q32 125 128.5 193t230.5 68q161 0 224.5 -96.5t29.5 -286.5l-123 -697h-215zM69 0l210 1187q14 77 -8 112t-83 35q-25 0 -49.5 -2.5t-49.5 -8.5l-21 182q38 9 76 12.5
t76 3.5q174 0 238.5 -84t31.5 -270l-206 -1167h-215zM327 1660l-214 260h217l106 -156h-20l162 156h227l-306 -260h-172z" />
    <glyph glyph-name="uni0232" unicode="&#x232;" 
d="M402 0l105 594h208l-105 -594h-208zM495 424l-317 974l212 32l224 -804h18q106 137 192 259.5t158 251.5t136 283h214q-83 -204 -185.5 -377t-227.5 -332.5t-275 -326.5zM400 1580l34 188h773l-34 -188h-773z" />
    <glyph glyph-name="uni0233" unicode="&#x233;" 
d="M3 -472l-89 175q228 99 401.5 227.5t299 292.5t207.5 371.5t127 465.5h214q-75 -389 -221 -678.5t-376.5 -497.5t-562.5 -356zM324 1080q147 -600 388 -909l-185 -120q-125 189 -230.5 440t-193.5 569zM227 1248l34 188h859l-34 -188h-859z" />
    <glyph glyph-name="uni0237" unicode="&#x237;" 
d="M27 -480l-10 188l220 18q128 11 198.5 53.5t106.5 122.5t57 200l115 645q14 77 -8 112t-83 35q-95 0 -191 -13t-191 -30l-21 187q107 20 216.5 31.5t218.5 11.5q174 0 238.5 -84t31.5 -270l-105 -593q-27 -150 -66 -259t-105 -182t-170.5 -112t-261.5 -49z" />
    <glyph glyph-name="uni023A" unicode="&#x23a;" 
d="M364 -338l-129 32l263 726l28 64l270 747l19 65l152 420l128 -32l-209 -577l-51 -113l-186 -515l-9 -51zM-48 0l630 1421h321q26 -113 49.5 -256.5t43 -300.5t34 -313.5t23 -298t9.5 -252.5h-212q1 92 -5.5 217t-18 265t-27 280.5t-32 266.5t-32.5 220h-18l-543 -1249
h-222zM215 346l41 190h720l-41 -190h-720z" />
    <glyph glyph-name="uni023B" unicode="&#x23b;" 
d="M394 -338l-129 32l732 2022l128 -32zM666 -20q-187 0 -311.5 60.5t-187 181t-62.5 301.5q0 203 58.5 371t165.5 290t254.5 189t325.5 67q221 0 344 -159l-143 -147q-97 122 -230 122q-161 0 -288 -94.5t-200 -258.5t-73 -373q0 -122 42 -203.5t125 -122t207 -40.5
q170 0 347 60l14 -176q-192 -68 -388 -68z" />
    <glyph glyph-name="uni023D" unicode="&#x23d;" 
d="M1 647l34 190h836l-34 -190h-836zM67 0l250 1420h209l-250 -1420h-209zM67 0l34 190h939l-33 -190h-940z" />
    <glyph glyph-name="uni023E" unicode="&#x23e;" 
d="M200 -352l-105 57l1100 2023l117 -61zM402 0l251 1420h208l-251 -1420h-208zM204 1230l33 190h1039l-33 -190h-1039z" />
    <glyph glyph-name="uni0245" unicode="&#x245;" 
d="M-16 0l609 1421h321q26 -115 46.5 -258t34.5 -299t23 -311.5t12 -297.5t0 -255h-212q5 111 3.5 249t-8 284t-17 284t-23 250.5t-24.5 181.5h-18l-525 -1249h-222z" />
    <glyph glyph-name="uni0251" unicode="&#x251;" 
d="M596 880q-95 0 -167 -62.5t-112 -170.5t-40 -245q0 -112 43.5 -172.5t121.5 -60.5q134 0 231.5 130.5t139.5 367.5l70 393h214l-130 -743q-14 -80 12.5 -116t114.5 -36h41l-30 -175h-71q-154 0 -208 64.5t-35 222.5l58 -26h-116l48 58q-51 -157 -156.5 -243.5
t-247.5 -86.5q-150 0 -232 104.5t-82 293.5q0 208 64.5 364t180.5 242.5t271 86.5q124 0 178 -44.5t85 -115.5h22l17 -212q-15 28 -46 71t-88 77t-151 34z" />
    <glyph glyph-name="uni0254" unicode="&#x254;" 
d="M634 890q-97 0 -190.5 -18.5t-166.5 -49.5l-35 179q86 36 196 57.5t225 21.5q197 0 305 -102t108 -287q0 -214 -80 -374t-224.5 -248.5t-338.5 -88.5q-112 0 -205 38t-163 112l125 143q61 -51 129.5 -77t141.5 -26q121 0 211 62t140 174.5t50 262.5q-1 105 -60.5 163
t-167.5 58z" />
    <glyph glyph-name="uni0256" unicode="&#x256;" 
d="M305 -21q-115 0 -178.5 78t-63.5 220q0 183 76.5 331t214.5 253.5t323 162t402 56.5h18l-151 -190q-187 -8 -339 -87t-241 -208.5t-89 -292.5q0 -64 36.5 -98.5t103.5 -34.5q140 0 244.5 130t151.5 368l-17 -445h-116l53 57q-49 -136 -161 -218t-267 -82zM1101 -469
l-16 1q-164 11 -258 71.5t-121.5 181t5.5 309.5l98 551h217l-104 -583q-29 -163 13.5 -240t163.5 -96l46 -7zM809 645l94 531q14 77 -14 116t-96 41q-27 2 -54.5 -1.5t-54.5 -9.5l-21 182q44 9 89.5 12.5t90.5 3.5q170 0 236.5 -91t34.5 -273l-88 -511h-217z" />
    <glyph glyph-name="uni0259" unicode="&#x259;" 
d="M629 890q-79 0 -169 -20t-173 -55l-72 161q98 49 209.5 76.5t213.5 27.5q206 0 321 -108t115 -301q0 -208 -78 -363t-219 -241.5t-329 -86.5q-147 0 -229.5 74t-82.5 206q0 191 196.5 301.5t545.5 117.5l41 -170q-268 -4 -418.5 -65.5t-150.5 -170.5q0 -48 33 -75.5
t93 -27.5q120 0 210 61t140.5 171.5t50.5 256.5q-1 109 -66.5 170t-181.5 61z" />
    <glyph glyph-name="uni025B" unicode="&#x25b;" 
d="M529 -20q-413 0 -413 240q0 107 54.5 173t148 100t210.5 43l308 80l-24 -181h-52q-108 0 -188.5 -10.5t-134 -31t-80.5 -51.5t-27 -72q0 -106 238 -106q125 0 210.5 15.5t152.5 29.5l19 -181q-84 -22 -190.5 -35t-231.5 -13zM455 435l21 115q-233 61 -233 226
q0 114 68 180.5t181 95t247 28.5q232 0 389 -72l-88 -167q-144 55 -311 55q-71 0 -133 -13t-100 -43.5t-38 -84.5q0 -61 95 -96t284 -43l-24 -181h-358z" />
    <glyph glyph-name="uni0262" unicode="&#x262;" 
d="M626 -15q-265 0 -406.5 121.5t-141.5 341.5q0 202 94 346.5t260 222t382 77.5q146 0 237.5 -27.5t152.5 -71.5l-131 -170q-66 41 -134 60t-147 19q-146 0 -257.5 -52t-174 -150t-62.5 -236t90 -214.5t256 -76.5q109 0 193 14t139 24l48 -183q-43 -10 -152 -27.5
t-246 -17.5zM809 30l95 540h215l-95 -540h-215zM627 380l33 190h453l-33 -190h-453z" />
    <glyph glyph-name="uni0263" unicode="&#x263;" 
d="M338 0l-165 1060l222 20l127 -894h18q206 164 312.5 381.5t116.5 492.5h214q-13 -342 -159 -606.5t-427 -453.5l-104 50zM391 -480q-126 0 -202.5 68t-76.5 180q0 106 77 187.5t196 150.5l146 -45q-86 -67 -133 -110.5t-65 -75.5t-18 -64q0 -49 30 -78t79 -29zM391 -480
l33 184q57 0 92 39.5t35 104.5q0 35 -19.5 83t-68.5 130l144 45q83 -82 115 -153.5t32 -139.5q0 -132 -99.5 -212.5t-263.5 -80.5z" />
    <glyph glyph-name="uni0269" unicode="&#x269;" 
d="M966 225l69 -161q-61 -35 -129 -59.5t-156 -24.5q-181 0 -269 85t-78 249q5 75 29.5 146t53 138t43.5 129q21 82 -17.5 124t-133.5 42t-183 -23l-21 182q59 17 118 22.5t118 5.5q207 0 291 -94.5t39 -278.5q-17 -71 -44.5 -132.5t-50.5 -121.5t-28 -130
q-11 -153 172 -153q50 0 87.5 12.5t89.5 42.5z" />
    <glyph glyph-name="uni026A" unicode="&#x26a;" 
d="M400 0l186 1060h214l-186 -1060h-214zM75 0l30 174h864l-30 -174h-864zM231 886l30 174h864l-30 -174h-864z" />
    <glyph glyph-name="uni026B" unicode="&#x26b;" 
d="M88 586l17 94q20 109 79 172.5t186 63.5q67 0 122 -22t104 -52q43 -25 76 -35.5t77 -10.5q36 0 55 27t29 86l6 34h215l-15 -84q-20 -115 -75.5 -179.5t-172.5 -64.5q-69 0 -122 15t-105 48q-43 28 -83 42.5t-87 14.5q-36 0 -53.5 -27.5t-28.5 -87.5l-6 -34h-218zM693 -20
q-166 0 -244.5 76.5t-78.5 237.5q0 36 7 80t22 101l155 605q35 136 7.5 194.5t-161.5 58.5q-34 0 -69.5 -5.5t-70.5 -20.5l-31 182q50 14 101 22.5t102 8.5q232 0 314.5 -111t22.5 -341l-155 -593q-16 -59 -23 -101t-7 -71q0 -133 148 -133q61 0 107 15t110 50l69 -161
q-70 -40 -147.5 -67t-177.5 -27z" />
    <glyph glyph-name="uni026C" unicode="&#x26c;" 
d="M373 920q-60 0 -93.5 -28.5t-33.5 -79.5q0 -50 41 -86t118 -55t186 -19q83 0 198 34t236 95l70 -166q-142 -74 -281 -108.5t-246 -34.5q-165 0 -283 38.5t-180.5 111t-62.5 174.5q0 139 86 216.5t238 77.5q112 0 197 -60l-58 -150q-37 19 -71.5 29.5t-60.5 10.5zM693 -20
q-166 0 -244.5 76.5t-78.5 237.5q0 36 7 80t22 101l155 605q35 136 7.5 194.5t-161.5 58.5q-34 0 -69.5 -5.5t-70.5 -20.5l-31 182q50 14 101 22.5t102 8.5q232 0 314.5 -111t22.5 -341l-155 -593q-16 -59 -23 -101t-7 -71q0 -133 148 -133q61 0 107 15t110 50l69 -161
q-70 -40 -147.5 -67t-177.5 -27z" />
    <glyph glyph-name="uni0272" unicode="&#x272;" 
d="M-268 -472l-10 188l70 10q105 15 162.5 58t87.5 120.5t51 197.5l169 958h177l-7 -253l-118 -673q-26 -150 -62 -258t-94.5 -179t-151.5 -111t-234 -54zM723 0l123 705q16 92 -13.5 138.5t-105.5 46.5q-81 0 -150 -47t-124.5 -156.5t-94.5 -296.5l50 429h44
q32 125 127 193t228 68q161 0 224.5 -96.5t29.5 -286.5l-123 -697h-215z" />
    <glyph glyph-name="uni0283" unicode="&#x283;" 
d="M-56 -473l-9 190l73 8q128 14 208 69t121.5 154t52.5 244l74 678q18 223 89.5 366.5t212 213.5t363.5 70q87 0 166 -20l-54 -184q-46 8 -81.5 11t-69.5 3q-204 0 -296.5 -109.5t-112.5 -340.5l-81 -718q-16 -191 -80 -323t-187 -207t-318 -97z" />
    <glyph glyph-name="uni028A" unicode="&#x28a;" 
d="M409 927l184 -44q-91 -22 -159 -88t-106.5 -162.5t-38.5 -210.5q0 -116 65.5 -181.5t182.5 -65.5q104 0 182 54.5t121 152.5t43 228q0 121 -34.5 187.5t-91.5 85.5l176 38v-61q75 -33 120 -123t45 -196q0 -167 -74.5 -292t-208.5 -194.5t-314 -69.5q-134 0 -229.5 48.5
t-146 139.5t-50.5 219q0 108 42 203.5t117 166t175 100.5v65zM196 1059h428l-31 -176h-427zM788 1059h401l-30 -176h-402z" />
    <glyph glyph-name="uni028B" unicode="&#x28b;" 
d="M503 -20q-217 0 -310 109t-58 321l114 650h215l-114 -650q-21 -118 26.5 -179t159.5 -61q230 0 273 240l56 320q14 77 -6 108.5t-82 31.5h-65l33 190h68q322 0 275 -280l-65 -370q-37 -212 -169 -321t-351 -109z" />
    <glyph glyph-name="uni028C" unicode="&#x28c;" 
d="M862 1060l165 -1060h-225l-124 874h-18q-205 -163 -312 -381t-117 -493h-214q14 342 159.5 606.5t426.5 453.5h259z" />
    <glyph glyph-name="uni0292" unicode="&#x292;" 
d="M363 -480q-287 0 -427 199l166 148q65 -82 130 -119.5t165 -37.5q108 0 189.5 39t126.5 109.5t45 163.5q0 121 -75 186t-217 65h-111l19 153h180q205 -4 313 -110t108 -297q0 -149 -76.5 -261.5t-214 -175t-321.5 -62.5zM422 273h-103l-23 124l585 538l26 -49h-667
l30 174h771l17 -201l-514 -475z" />
    <glyph glyph-name="uni0294" unicode="&#x294;" 
d="M375 0l65 369q16 89 52.5 171.5t97.5 162.5t148 161q86 80 129.5 153.5t43.5 157.5q0 74 -52 114.5t-147 40.5l26 190q182 0 284.5 -89.5t102.5 -248.5q0 -75 -28 -148.5t-84 -149.5t-141 -161q-97 -97 -149.5 -181.5t-68.5 -176.5l-64 -365h-215zM347 1165l-93 163
q104 95 226.5 143.5t257.5 48.5l-26 -190q-81 0 -174 -42t-191 -123z" />
    <glyph glyph-name="uni0295" unicode="&#x295;" 
d="M437 0l55 298q16 85 10 151t-33.5 130.5t-78.5 143.5q-68 107 -90 179.5t-22 136.5q0 143 66.5 251.5t185.5 169t276 60.5l-32 -190q-124 0 -199.5 -75t-75.5 -200q0 -65 17 -114t55 -108q66 -101 99.5 -184.5t39.5 -163.5t-11 -173l-57 -312h-205zM1054 1198
q-44 61 -119.5 96.5t-160.5 35.5l32 190q141 0 252.5 -49t158.5 -130z" />
    <glyph glyph-name="uni029F" unicode="&#x29f;" 
d="M66 0l190 1079h213l-190 -1079h-213zM66 0l31 174h943l-31 -174h-943z" />
    <glyph glyph-name="uni02A7" unicode="&#x2a7;" 
d="M265 -477l-7 190l80 12q117 18 194.5 56.5t119.5 102.5t54 156l133 1040q23 182 127.5 271t279.5 89q39 0 71.5 -3t66.5 -10l-55 -184q-52 7 -92 7q-80 0 -129 -39.5t-60 -120.5l-134 -1046q-20 -159 -86 -265t-185 -166t-299 -81zM427 -20q-136 0 -200 64t-64 199
q0 60 7 117t25 158l151 862h215l-151 -862q-16 -96 -24.5 -148t-8.5 -107q0 -93 89 -93q29 0 50.5 4.5t51.5 14.5l36 -171q-37 -16 -80 -27t-97 -11zM71 874l33 186h934l-33 -186h-934z" />
    <glyph glyph-name="uni02B7" unicode="&#x2b7;" 
d="M760 790l-32 301l-36 -76l-30 406l134 6l36 -526h10q51 98 78.5 227.5t29.5 292.5h177q-4 -203 -53.5 -360.5t-144.5 -270.5h-169zM459 790l-84 631l177 6l58 -526h11l125 309l17 -230h-57l48 81l-104 -271h-191z" />
    <glyph glyph-name="uni02B8" unicode="&#x2b8;" 
d="M332 506l-71 139q273 106 449 294.5t234 481.5h181q-57 -242 -170 -418.5t-271.5 -297.5t-351.5 -199zM573 1433q41 -188 94 -328t118 -235l-160 -72q-69 116 -127 271.5t-106 351.5z" />
    <glyph glyph-name="uni02BB" unicode="&#x2bb;" 
d="M778 1515l132 -157l-72 -65q-64 -58 -107 -112t-53 -109q-21 -117 124 -117h58l-33 -185h-88q-156 0 -224 77t-42 225q17 90 75 188.5t163 193.5z" />
    <glyph glyph-name="uni02BC" unicode="&#x2bc;" 
d="M611 675l-132 157l72 65q65 59 107.5 112.5t52.5 108.5q21 117 -124 117h-58l33 185h88q156 0 224 -76.5t42 -225.5q-16 -90 -74.5 -188.5t-163.5 -193.5z" />
    <glyph glyph-name="uni02C0" unicode="&#x2c0;" 
d="M518 790l15 90q13 76 54.5 135t124.5 119q123 87 123 165q0 93 -131 93l29 176q156 0 236 -63t80 -185q0 -75 -54 -151.5t-159 -160.5q-52 -42 -80.5 -75.5t-38.5 -84.5l-11 -58h-188zM469 1310l-82 142q60 56 150 86t196 30l-29 -176q-61 0 -122 -21.5t-113 -60.5z" />
    <glyph glyph-name="circumflex" unicode="&#x2c6;" 
d="M880 1628l173 -380h-207l-77 246h20l-171 -246h-217l307 380h172z" />
    <glyph glyph-name="caron" unicode="&#x2c7;" 
d="M636 1210l-173 380h207l77 -246h-20l171 246h217l-307 -380h-172z" />
    <glyph glyph-name="uni02C9" unicode="&#x2c9;" 
d="M297 1248l34 188h859l-34 -188h-859z" />
    <glyph glyph-name="uni02D0" unicode="&#x2d0;" 
d="M630 700l-137 360h400zM307 0l263 360l137 -360h-400z" />
    <glyph glyph-name="breve" unicode="&#x2d8;" 
d="M706 1220q-131 0 -206.5 66t-75.5 172q0 35 5 70.5t16 75.5l171 -15q-9 -26 -12 -49t-3 -42q0 -62 31 -96.5t97 -34.5q77 0 152.5 73t121.5 175l143 -80q-83 -161 -200 -238t-240 -77z" />
    <glyph glyph-name="dotaccent" unicode="&#x2d9;" 
d="M749 1238q-55 0 -94.5 39.5t-39.5 94.5q0 56 39.5 95t94.5 39q56 0 95 -39t39 -95q0 -55 -39 -94.5t-95 -39.5z" />
    <glyph glyph-name="ring" unicode="&#x2da;" 
d="M717 1198q-92 0 -148.5 49t-56.5 128q0 115 77 185t204 70q92 0 148 -48.5t56 -128.5q0 -115 -77 -185t-203 -70zM738 1314q52 0 83.5 32t31.5 84q0 38 -22 61t-59 23q-52 0 -84 -31.5t-32 -84.5q0 -37 22.5 -60.5t59.5 -23.5z" />
    <glyph glyph-name="ogonek" unicode="&#x2db;" 
d="M514 -423q-215 0 -215 170q0 68 38.5 127.5t134.5 97.5v62h247v-34q-63 0 -125.5 -22t-103.5 -61.5t-41 -92.5q0 -80 78 -80q23 0 42 4.5t32 9.5l26 -163q-22 -9 -51.5 -13.5t-61.5 -4.5z" />
    <glyph glyph-name="tilde" unicode="&#x2dc;" 
d="M372 1256l6 30q26 133 79.5 201.5t174.5 68.5q46 0 85.5 -17t78.5 -34.5t83 -17.5q37 0 59.5 24t29.5 70l10 60h185l-6 -50q-17 -140 -80.5 -210t-179.5 -70q-51 0 -95.5 17.5t-82 34.5t-68.5 17q-38 0 -59 -21.5t-29 -62.5l-8 -40h-183z" />
    <glyph glyph-name="hungarumlaut" unicode="&#x2dd;" 
d="M763 1248l217 380h222l-237 -380h-202zM383 1248l217 380h222l-237 -380h-202z" />
    <glyph glyph-name="gravecomb" unicode="&#x300;" horiz-adv-x="0" 
d="M636 1248l-166 380h203l146 -380h-183z" />
    <glyph glyph-name="acutecomb" unicode="&#x301;" horiz-adv-x="0" 
d="M627 1248l217 380h246l-267 -380h-196z" />
    <glyph glyph-name="uni0302" unicode="&#x302;" horiz-adv-x="0" 
d="M880 1628l173 -380h-207l-77 246h20l-171 -246h-217l307 380h172z" />
    <glyph glyph-name="tildecomb" unicode="&#x303;" horiz-adv-x="0" 
d="M372 1256l6 30q26 133 79.5 201.5t174.5 68.5q46 0 85.5 -17t78.5 -34.5t83 -17.5q37 0 59.5 24t29.5 70l10 60h185l-6 -50q-17 -140 -80.5 -210t-179.5 -70q-51 0 -95.5 17.5t-82 34.5t-68.5 17q-38 0 -59 -21.5t-29 -62.5l-8 -40h-183z" />
    <glyph glyph-name="uni0304" unicode="&#x304;" horiz-adv-x="0" 
d="M297 1248l34 188h859l-34 -188h-859z" />
    <glyph glyph-name="uni0306" unicode="&#x306;" horiz-adv-x="0" 
d="M706 1220q-131 0 -206.5 66t-75.5 172q0 35 5 70.5t16 75.5l171 -15q-9 -26 -12 -49t-3 -42q0 -62 31 -96.5t97 -34.5q77 0 152.5 73t121.5 175l143 -80q-83 -161 -200 -238t-240 -77z" />
    <glyph glyph-name="uni0307" unicode="&#x307;" horiz-adv-x="0" 
d="M749 1238q-55 0 -94.5 39.5t-39.5 94.5q0 56 39.5 95t94.5 39q56 0 95 -39t39 -95q0 -55 -39 -94.5t-95 -39.5z" />
    <glyph glyph-name="uni0308" unicode="&#x308;" horiz-adv-x="0" 
d="M958 1238q-55 0 -94.5 39.5t-39.5 94.5q0 56 39.5 95t94.5 39q56 0 95 -39t39 -95q0 -55 -39 -94.5t-95 -39.5zM538 1238q-55 0 -94.5 39.5t-39.5 94.5q0 56 39.5 95t94.5 39q56 0 95 -39t39 -95q0 -55 -39 -94.5t-95 -39.5z" />
    <glyph glyph-name="hookabovecomb" unicode="&#x309;" horiz-adv-x="0" 
d="M666 1338q83 50 106.5 88.5t23.5 59.5q0 26 -17 40.5t-46 14.5l47 151q88 0 137.5 -49t49.5 -135q0 -59 -42 -136.5t-162 -154.5zM603 1502l-49 129q47 29 103 45t123 16l-47 -151q-31 0 -64.5 -10.5t-65.5 -28.5z" />
    <glyph glyph-name="uni030A" unicode="&#x30a;" horiz-adv-x="0" 
d="M717 1198q-92 0 -148.5 49t-56.5 128q0 115 77 185t204 70q92 0 148 -48.5t56 -128.5q0 -115 -77 -185t-203 -70zM738 1314q52 0 83.5 32t31.5 84q0 38 -22 61t-59 23q-52 0 -84 -31.5t-32 -84.5q0 -37 22.5 -60.5t59.5 -23.5z" />
    <glyph glyph-name="uni030B" unicode="&#x30b;" horiz-adv-x="0" 
d="M763 1248l217 380h222l-237 -380h-202zM383 1248l217 380h222l-237 -380h-202z" />
    <glyph glyph-name="uni030C" unicode="&#x30c;" horiz-adv-x="0" 
d="M636 1210l-173 380h207l77 -246h-20l171 246h217l-307 -380h-172z" />
    <glyph glyph-name="uni0312" unicode="&#x312;" horiz-adv-x="0" 
d="M734 1201q-101 0 -150.5 31t-49.5 107q0 70 57.5 146.5t178.5 169.5l102 -99q-87 -61 -128 -102.5t-41 -71.5q0 -32 67 -32h65l-26 -149h-75z" />
    <glyph glyph-name="uni0313" unicode="&#x313;" horiz-adv-x="0" 
d="M776 1162l-102 99q87 61 128 102.5t41 71.5q0 32 -67 32h-65l26 149h75q200 0 200 -128q0 -87 -71 -168t-165 -158z" />
    <glyph glyph-name="uni0315" unicode="&#x315;" horiz-adv-x="0" 
d="M776 1162l-102 99q87 61 128 102.5t41 71.5q0 32 -67 32h-65l26 149h75q200 0 200 -128q0 -87 -71 -168t-165 -158z" />
    <glyph glyph-name="uni031B" unicode="&#x31b;" horiz-adv-x="0" 
d="M506 895l-21 165l61 10q93 15 149 84.5t76 188.5h220q-33 -190 -139 -299.5t-285 -138.5z" />
    <glyph glyph-name="dotbelowcomb" unicode="&#x323;" horiz-adv-x="0" 
d="M457 -420q-55 0 -94.5 39.5t-39.5 94.5q0 56 39.5 95t94.5 39q56 0 95 -39t39 -95q0 -55 -39 -94.5t-95 -39.5z" />
    <glyph glyph-name="uni0325" unicode="&#x325;" horiz-adv-x="0" 
d="M413 -500q-92 0 -148.5 49t-56.5 128q0 115 77 185t204 70q92 0 148 -48.5t56 -128.5q0 -115 -77 -185t-203 -70zM434 -384q52 0 83.5 32t31.5 84q0 38 -22 61t-59 23q-52 0 -84 -31.5t-32 -84.5q0 -37 22.5 -60.5t59.5 -23.5z" />
    <glyph glyph-name="uni0326" unicode="&#x326;" horiz-adv-x="0" 
d="M388 -568l-102 99q87 61 128 102.5t41 71.5q0 32 -67 32h-65l26 149h75q200 0 200 -128q0 -87 -71 -168t-165 -158z" />
    <glyph glyph-name="uni0327" unicode="&#x327;" horiz-adv-x="0" 
d="M237 -480l27 150q200 0 200 73q0 56 -143 82l125 224l107 -51l-44 -98q73 -19 110 -58t37 -95q0 -112 -106.5 -169.5t-312.5 -57.5z" />
    <glyph glyph-name="uni0328" unicode="&#x328;" horiz-adv-x="0" 
d="M514 -423q-215 0 -215 170q0 68 38.5 127.5t134.5 97.5v62h247v-34q-63 0 -125.5 -22t-103.5 -61.5t-41 -92.5q0 -80 78 -80q23 0 42 4.5t32 9.5l26 -163q-22 -9 -51.5 -13.5t-61.5 -4.5z" />
    <glyph glyph-name="uni0331" unicode="&#x331;" horiz-adv-x="0" 
d="M7 -396l34 188h859l-34 -188h-859z" />
    <glyph glyph-name="uni0332" unicode="&#x332;" horiz-adv-x="0" 
d="M-213 -396l34 188h1299l-34 -188h-1299z" />
    <glyph glyph-name="uni0340" unicode="&#x340;" horiz-adv-x="0" 
d="M636 1248l-166 380h203l146 -380h-183z" />
    <glyph glyph-name="uni0341" unicode="&#x341;" horiz-adv-x="0" 
d="M627 1248l217 380h246l-267 -380h-196z" />
    <glyph glyph-name="uni0342" unicode="&#x342;" horiz-adv-x="0" 
d="M372 1256l6 30q26 133 79.5 201.5t174.5 68.5q46 0 85.5 -17t78.5 -34.5t83 -17.5q37 0 59.5 24t29.5 70l10 60h185l-6 -50q-17 -140 -80.5 -210t-179.5 -70q-51 0 -95.5 17.5t-82 34.5t-68.5 17q-38 0 -59 -21.5t-29 -62.5l-8 -40h-183z" />
    <glyph glyph-name="uni0374" unicode="&#x374;" 
d="M611 675l-132 157l72 65q65 59 107.5 112.5t52.5 108.5q21 117 -124 117h-58l33 185h88q156 0 224 -76.5t42 -225.5q-16 -90 -74.5 -188.5t-163.5 -193.5z" />
    <glyph glyph-name="uni0375" unicode="&#x375;" 
d="M266 -436l177 690h242l-232 -690h-187z" />
    <glyph glyph-name="uni037E" unicode="&#x37e;" 
d="M670 784q-61 0 -104.5 43.5t-43.5 104.5q0 62 43.5 105t104.5 43q62 0 105 -43t43 -105q0 -61 -43 -104.5t-105 -43.5zM266 -436l177 690h242l-232 -690h-187z" />
    <glyph glyph-name="tonos" unicode="&#x384;" 
d="M627 1248l217 380h246l-267 -380h-196z" />
    <glyph glyph-name="dieresistonos" unicode="&#x385;" 
d="M587 1248l167 380h236l-209 -380h-194zM416 1238q-55 0 -94.5 39.5t-39.5 94.5q0 56 39.5 95t94.5 39q56 0 95 -39t39 -95q0 -55 -39 -94.5t-95 -39.5zM1086 1238q-55 0 -94.5 39.5t-39.5 94.5q0 56 39.5 95t94.5 39q56 0 95 -39t39 -95q0 -55 -39 -94.5t-95 -39.5z" />
    <glyph glyph-name="Alphatonos" unicode="&#x386;" 
d="M376 0h-211q46 150 109 335.5t136 381t148.5 378t145.5 326.5h309l49 -1421h-210l-17 1249h-18q-43 -97 -90.5 -221t-96 -261t-95 -275.5t-87.5 -264.5t-72 -227zM403 346l34 190h520l-34 -190h-520zM89 1040l147 380h222l-167 -380h-202z" />
    <glyph glyph-name="anoteleia" unicode="&#x387;" 
d="M671 784q-61 0 -104.5 43.5t-43.5 104.5q0 62 43.5 105t104.5 43q62 0 105 -43t43 -105q0 -61 -43 -104.5t-105 -43.5z" />
    <glyph glyph-name="Epsilontonos" unicode="&#x388;" 
d="M266 0l250 1420h200l-250 -1420h-200zM266 0l33 190h740l-33 -190h-740zM374 616l34 190h560l-34 -190h-560zM483 1230l33 190h740l-33 -190h-740zM84 1040l157 380h212l-177 -380h-192z" />
    <glyph glyph-name="Etatonos" unicode="&#x389;" 
d="M759 0l250 1420h208l-250 -1420h-208zM246 0l250 1420h208l-250 -1420h-208zM396 612l33 190h642l-33 -190h-642zM89 1040l157 380h212l-177 -380h-192z" />
    <glyph glyph-name="Iotatonos" unicode="&#x38a;" 
d="M503 0l250 1420h208l-250 -1420h-208zM275 0l33 190h663l-33 -190h-663zM492 1230l33 190h663l-33 -190h-663zM89 1040l157 380h212l-177 -380h-192z" />
    <glyph glyph-name="Omicrontonos" unicode="&#x38c;" 
d="M613 -20q-157 0 -245 107.5t-88 298.5q0 331 68 567t196 361.5t308 125.5q157 0 244.5 -107t87.5 -299q0 -331 -68 -567t-195.5 -361.5t-307.5 -125.5zM639 164q104 0 178 100.5t113.5 290t39.5 454.5q0 116 -36.5 181.5t-102.5 65.5q-106 0 -181.5 -100.5t-115.5 -289.5
t-40 -455q0 -117 38.5 -182t106.5 -65zM89 1040l157 380h212l-177 -380h-192z" />
    <glyph glyph-name="Upsilontonos" unicode="&#x38e;" 
d="M557 0l123 700h208l-123 -700h-208zM653 490l-175 908l212 32l103 -698h18q67 119 121 225.5t100 218t86 244.5h214q-64 -191 -143 -353t-175 -311.5t-212 -305.5zM89 1040l157 380h212l-177 -380h-192z" />
    <glyph glyph-name="Omegatonos" unicode="&#x38f;" 
d="M89 1040l147 380h222l-167 -380h-202zM457 127l14 76q-178 44 -178 322q0 132 22.5 263.5t67.5 248.5t113.5 208t159.5 143t205 52q331 0 331 -412q0 -100 -14 -208t-43 -211t-74 -189t-106 -143t-140 -71l-12 -71l-121 51q57 25 104.5 90.5t83.5 157t61 194t37.5 201.5
t12.5 179q0 248 -152 248q-69 0 -122.5 -52t-93 -138t-65.5 -190.5t-38.5 -211.5t-12.5 -199q0 -223 101 -279zM211 0l33 186h354l-33 -186h-354zM649 0l33 186h354l-33 -186h-354z" />
    <glyph glyph-name="iotadieresistonos" unicode="&#x390;" 
d="M966 225l69 -161q-61 -35 -129 -59.5t-156 -24.5q-181 0 -269 85t-78 249q5 75 29.5 146t53 138t43.5 129q21 82 -17.5 124t-133.5 42t-183 -23l-21 182q59 17 118 22.5t118 5.5q207 0 291 -94.5t39 -278.5q-17 -71 -44.5 -132.5t-50.5 -121.5t-28 -130
q-11 -153 172 -153q50 0 87.5 12.5t89.5 42.5zM589 1248l167 380h236l-209 -380h-194zM418 1238q-55 0 -94.5 39.5t-39.5 94.5q0 56 39.5 95t94.5 39q56 0 95 -39t39 -95q0 -55 -39 -94.5t-95 -39.5zM1088 1238q-55 0 -94.5 39.5t-39.5 94.5q0 56 39.5 95t94.5 39
q56 0 95 -39t39 -95q0 -55 -39 -94.5t-95 -39.5z" />
    <glyph glyph-name="Alpha" unicode="&#x391;" 
d="M-48 0l630 1421h321q26 -113 49.5 -256.5t43 -300.5t34 -313.5t23 -298t9.5 -252.5h-212q1 92 -5.5 217t-18 265t-27 280.5t-32 266.5t-32.5 220h-18l-543 -1249h-222zM215 346l41 190h720l-41 -190h-720z" />
    <glyph glyph-name="Beta" unicode="&#x392;" 
d="M67 0l250 1420h208l-250 -1420h-208zM285 765l33 81h282q151 0 229 54t78 158q0 192 -335 192q-177 0 -288 -20l33 190q102 20 258 20q271 0 410.5 -86t139.5 -253q0 -166 -126.5 -251t-371.5 -85h-342zM255 0l34 190h162q227 0 334 62.5t107 195.5q0 98 -80.5 153
t-223.5 55h-212l-11 80h336q191 0 298 -83t107 -231q0 -217 -154.5 -319.5t-480.5 -102.5h-216zM308 698l17 98h421l-17 -98h-421z" />
    <glyph glyph-name="Gamma" unicode="&#x393;" 
d="M89 0l248 1420h209l-250 -1420h-207zM304 1230l33 190h909l-33 -190h-909z" />
    <glyph glyph-name="uni0394" unicode="&#x394;" 
d="M-48 0l630 1421h321q26 -113 49.5 -256.5t43 -300.5t34 -313.5t23 -298t9.5 -252.5h-212q1 92 -5.5 217t-18 265t-27 280.5t-32 266.5t-32.5 220h-18l-543 -1249h-222zM103 0l34 190h820l-34 -190h-820z" />
    <glyph glyph-name="Epsilon" unicode="&#x395;" 
d="M67 0l250 1420h209l-250 -1420h-209zM67 0l34 190h938l-33 -190h-939zM176 616l33 190h759l-33 -190h-759zM284 1230l33 190h939l-33 -190h-939z" />
    <glyph glyph-name="Zeta" unicode="&#x396;" 
d="M280 108l-195 52l920 1162l194 -62zM145 0l-60 160l195 30h725l-33 -190h-827zM301 1230l33 190h805l60 -160l-167 -30h-731z" />
    <glyph glyph-name="Eta" unicode="&#x397;" 
d="M759 0l250 1420h208l-250 -1420h-208zM47 0l250 1420h208l-250 -1420h-208zM197 612l33 190h841l-33 -190h-841z" />
    <glyph glyph-name="Theta" unicode="&#x398;" 
d="M197 612l33 190h841l-33 -190h-841zM513 -20q-195 0 -304 128.5t-109 357.5q0 306 77.5 524t223.5 334t351 116q194 0 303 -125.5t109 -349.5q0 -309 -77.5 -529.5t-223 -338t-350.5 -117.5zM539 164q129 0 221 92.5t141 266t49 417.5q0 149 -57.5 232.5t-161.5 83.5
q-131 0 -224.5 -91t-143 -262t-49.5 -412q0 -154 59.5 -240.5t165.5 -86.5z" />
    <glyph glyph-name="Iota" unicode="&#x399;" 
d="M403 0l250 1420h208l-250 -1420h-208zM75 0l33 190h863l-33 -190h-863zM292 1230l33 190h863l-33 -190h-863z" />
    <glyph glyph-name="Kappa" unicode="&#x39a;" 
d="M223 332l13 198q245 37 409 162t259 313.5t133 414.5h214q-46 -284 -178.5 -517.5t-346 -384t-503.5 -186.5zM57 0l250 1420h208l-250 -1420h-208zM837 0l-213 622l183 102l262 -724h-232z" />
    <glyph glyph-name="Lambda" unicode="&#x39b;" 
d="M-16 0l609 1421h321q26 -115 46.5 -258t34.5 -299t23 -311.5t12 -297.5t0 -255h-212q5 111 3.5 249t-8 284t-17 284t-23 250.5t-24.5 181.5h-18l-525 -1249h-222z" />
    <glyph glyph-name="Mu" unicode="&#x39c;" 
d="M577 580l71 230h12l254 610h142l-44 -252h-58l-256 -588h-121zM40 0l245 1420h210l-250 -1420h-205zM527 579l-50 589h-58l44 252h117l64 -610h8l-21 -230zM774 0l250 1420h205l-250 -1420h-205z" />
    <glyph glyph-name="Nu" unicode="&#x39d;" 
d="M716 0l-245 1080h-92l62 340h107l245 -1080h50l-62 -340h-65zM55 0l250 1420h208l-250 -1420h-208zM751 0l250 1420h208l-250 -1420h-208z" />
    <glyph glyph-name="Xi" unicode="&#x39e;" 
d="M224 1230l33 190h999l-33 -190h-999zM7 0l33 190h999l-33 -190h-999zM205 616l34 190h819l-34 -190h-819z" />
    <glyph glyph-name="Omicron" unicode="&#x39f;" 
d="M513 -20q-195 0 -304 128.5t-109 357.5q0 306 77.5 524t223.5 334t351 116q194 0 303 -125.5t109 -349.5q0 -309 -77.5 -529.5t-223 -338t-350.5 -117.5zM539 164q129 0 221 92.5t141 266t49 417.5q0 149 -57.5 232.5t-161.5 83.5q-131 0 -224.5 -91t-143 -262
t-49.5 -412q0 -154 59.5 -240.5t165.5 -86.5z" />
    <glyph glyph-name="Pi" unicode="&#x3a0;" 
d="M759 0l250 1420h208l-250 -1420h-208zM47 0l250 1420h208l-250 -1420h-208zM311 1230l33 190h841l-33 -190h-841z" />
    <glyph glyph-name="Rho" unicode="&#x3a1;" 
d="M67 0l250 1420h208l-250 -1420h-208zM181 360l33 190h112q320 0 485 108.5t165 319.5q0 134 -92.5 203t-271.5 69q-200 0 -328 -20l33 190q128 20 328 20q269 0 407 -114t138 -335q0 -311 -227 -471t-670 -160h-112z" />
    <glyph glyph-name="Sigma" unicode="&#x3a3;" 
d="M240 68l-150 122l529 523l-345 517l160 132l446 -649zM57 0l33 190h920l-33 -190h-920zM274 1230l33 190h900l-33 -190h-900z" />
    <glyph glyph-name="Tau" unicode="&#x3a4;" 
d="M402 0l251 1420h208l-251 -1420h-208zM204 1230l33 190h1039l-33 -190h-1039z" />
    <glyph glyph-name="Upsilon" unicode="&#x3a5;" 
d="M402 0l105 594h208l-105 -594h-208zM495 424l-317 974l212 32l224 -804h18q106 137 192 259.5t158 251.5t136 283h214q-83 -204 -185.5 -377t-227.5 -332.5t-275 -326.5z" />
    <glyph glyph-name="Phi" unicode="&#x3a6;" 
d="M418 -20l40 228l21 63l162 918v59l37 212h169l-37 -212l-20 -59l-162 -918l-1 -63l-40 -228h-169zM551 140q-219 0 -340 107t-121 328q0 166 45.5 300t128.5 229t197.5 145.5t253.5 50.5q220 0 341 -107t121 -328q0 -166 -45.5 -300t-128.5 -229t-198 -145.5t-254 -50.5z
M574 304q90 0 164 38.5t127.5 110t82.5 171t29 220.5q0 148 -69 220t-216 72q-87 0 -160.5 -38.5t-127.5 -110t-84 -171t-30 -220.5q0 -148 69 -220t215 -72z" />
    <glyph glyph-name="Chi" unicode="&#x3a7;" 
d="M161 -40l-156 140l589 680l458 660l166 -140l-579 -702zM824 -20q-113 0 -197.5 73t-87.5 236l-14 803q-1 83 -36.5 120.5t-76.5 37.5q-70 0 -137 -35l-59 171q68 28 122 41t103 13q69 0 128.5 -32t97 -100t39.5 -177l14 -803q2 -82 41.5 -120t91.5 -38q69 0 137 45
l59 -171q-58 -33 -112.5 -48.5t-112.5 -15.5z" />
    <glyph glyph-name="Psi" unicode="&#x3a8;" 
d="M561 310q-523 0 -428 540l100 570h208l-100 -570q-63 -356 253 -356t379 356l100 570h208l-100 -570q-95 -540 -620 -540zM475 410h208l-72 -410h-208zM683 410h-208l178 1010h208z" />
    <glyph glyph-name="uni03A9" unicode="&#x3a9;" 
d="M269 127l14 76q-94 25 -141 118.5t-47 256.5q0 174 41.5 329.5t124.5 275.5t208 188.5t292 68.5q214 0 320 -122t106 -367q0 -113 -23 -236.5t-70 -233t-118.5 -184t-168.5 -91.5l-12 -71l-171 51q86 27 151.5 105.5t109.5 186t66.5 222.5t22.5 215q0 171 -61 256
t-184 85q-113 0 -193.5 -60.5t-132 -161t-75.5 -223t-24 -247.5q0 -153 39 -247.5t117 -130.5zM11 0l33 186h416l-33 -186h-416zM591 0l33 186h412l-33 -186h-412z" />
    <glyph glyph-name="Iotadieresis" unicode="&#x3aa;" 
d="M403 0l250 1420h208l-250 -1420h-208zM75 0l33 190h863l-33 -190h-863zM292 1230l33 190h863l-33 -190h-863zM1017 1580q-55 0 -94.5 39.5t-39.5 94.5q0 56 39.5 95t94.5 39q56 0 95 -39t39 -95q0 -55 -39 -94.5t-95 -39.5zM601 1580q-55 0 -94.5 39.5t-39.5 94.5
q0 56 39.5 95t94.5 39q56 0 95 -39t39 -95q0 -55 -39 -94.5t-95 -39.5z" />
    <glyph glyph-name="Upsilondieresis" unicode="&#x3ab;" 
d="M402 0l105 594h208l-105 -594h-208zM495 424l-317 974l212 32l224 -804h18q106 137 192 259.5t158 251.5t136 283h214q-83 -204 -185.5 -377t-227.5 -332.5t-275 -326.5zM1017 1580q-55 0 -94.5 39.5t-39.5 94.5q0 56 39.5 95t94.5 39q56 0 95 -39t39 -95
q0 -55 -39 -94.5t-95 -39.5zM601 1580q-55 0 -94.5 39.5t-39.5 94.5q0 56 39.5 95t94.5 39q56 0 95 -39t39 -95q0 -55 -39 -94.5t-95 -39.5z" />
    <glyph glyph-name="alphatonos" unicode="&#x3ac;" 
d="M596 880q-95 0 -167 -62.5t-112 -170.5t-40 -245q0 -112 43.5 -172.5t121.5 -60.5q134 0 231.5 130.5t139.5 367.5l70 393h214l-130 -743q-14 -80 12.5 -116t114.5 -36h41l-30 -175h-71q-154 0 -208 64.5t-35 222.5l58 -26h-116l48 58q-51 -157 -156.5 -243.5
t-247.5 -86.5q-150 0 -232 104.5t-82 293.5q0 208 64.5 364t180.5 242.5t271 86.5q124 0 178 -44.5t85 -115.5h22l17 -212q-15 28 -46 71t-88 77t-151 34zM627 1248l217 380h246l-267 -380h-196z" />
    <glyph glyph-name="epsilontonos" unicode="&#x3ad;" 
d="M529 -20q-413 0 -413 240q0 107 54.5 173t148 100t210.5 43l308 80l-24 -181h-52q-108 0 -188.5 -10.5t-134 -31t-80.5 -51.5t-27 -72q0 -106 238 -106q125 0 210.5 15.5t152.5 29.5l19 -181q-84 -22 -190.5 -35t-231.5 -13zM455 435l21 115q-233 61 -233 226
q0 114 68 180.5t181 95t247 28.5q232 0 389 -72l-88 -167q-144 55 -311 55q-71 0 -133 -13t-100 -43.5t-38 -84.5q0 -61 95 -96t284 -43l-24 -181h-358zM695 1248l217 380h246l-267 -380h-196z" />
    <glyph glyph-name="etatonos" unicode="&#x3ae;" 
d="M75 0l187 1060h177l-7 -253l-142 -807h-215zM807 1080q161 0 224 -96.5t30 -286.5l-54 -310q-27 -157 -67 -284t-96.5 -229.5t-132 -186.5t-174.5 -156l-141 155q84 63 148.5 133.5t112 154t80.5 185.5t54 226l55 320q16 92 -13.5 138.5t-105.5 46.5q-81 0 -150 -47
t-124.5 -156.5t-94.5 -296.5l50 429h44q32 125 127 193t228 68zM645 1248l217 380h246l-267 -380h-196z" />
    <glyph glyph-name="iotatonos" unicode="&#x3af;" 
d="M966 225l69 -161q-61 -35 -129 -59.5t-156 -24.5q-181 0 -269 85t-78 249q5 75 29.5 146t53 138t43.5 129q21 82 -17.5 124t-133.5 42t-183 -23l-21 182q59 17 118 22.5t118 5.5q207 0 291 -94.5t39 -278.5q-17 -71 -44.5 -132.5t-50.5 -121.5t-28 -130
q-11 -153 172 -153q50 0 87.5 12.5t89.5 42.5zM591 1248l217 380h246l-267 -380h-196z" />
    <glyph glyph-name="upsilondieresistonos" unicode="&#x3b0;" 
d="M543 -20q-190 0 -277 114t-52 316l56 320q14 77 -5.5 108.5t-81.5 31.5h-118l33 190h118q176 0 238.5 -74t31.5 -246l-58 -330q-42 -240 148 -240q191 0 233 240l114 650h214l-114 -650q-76 -430 -480 -430zM589 1248l167 380h236l-209 -380h-194zM418 1238
q-55 0 -94.5 39.5t-39.5 94.5q0 56 39.5 95t94.5 39q56 0 95 -39t39 -95q0 -55 -39 -94.5t-95 -39.5zM1088 1238q-55 0 -94.5 39.5t-39.5 94.5q0 56 39.5 95t94.5 39q56 0 95 -39t39 -95q0 -55 -39 -94.5t-95 -39.5z" />
    <glyph glyph-name="alpha" unicode="&#x3b1;" 
d="M596 880q-95 0 -167 -62.5t-112 -170.5t-40 -245q0 -112 43.5 -172.5t121.5 -60.5q134 0 231.5 130.5t139.5 367.5l70 393h214l-130 -743q-14 -80 12.5 -116t114.5 -36h41l-30 -175h-71q-154 0 -208 64.5t-35 222.5l58 -26h-116l48 58q-51 -157 -156.5 -243.5
t-247.5 -86.5q-150 0 -232 104.5t-82 293.5q0 208 64.5 364t180.5 242.5t271 86.5q124 0 178 -44.5t85 -115.5h22l17 -212q-15 28 -46 71t-88 77t-151 34z" />
    <glyph glyph-name="beta" unicode="&#x3b2;" 
d="M575 -20q-244 0 -348 169t-50 477l69 397q86 497 548 497q170 0 260.5 -81.5t90.5 -231.5q0 -160 -96.5 -279t-270.5 -184.5t-408 -65.5h-86l7 186h98q163 0 286 40t192 114.5t69 175.5q0 65 -41 100.5t-118 35.5q-136 0 -212.5 -77t-104.5 -233l-80 -444
q-33 -184 24.5 -285t196.5 -101q82 0 146 30.5t101.5 93.5t37.5 158q0 116 -69 179.5t-198 63.5l28 141q64 0 116 -15t101 -43v-34q81 -22 131 -67.5t72.5 -108t22.5 -138.5q0 -158 -66 -262.5t-182 -156t-267 -51.5z" />
    <glyph glyph-name="gamma" unicode="&#x3b3;" 
d="M283 -460q77 421 33.5 785t-220.5 630l193 125q119 -181 184 -424.5t73 -528t-48 -587.5h-215zM431 -13l-36 203q164 74 272 183.5t174.5 276.5t106.5 410h215q-40 -238 -98.5 -414.5t-144.5 -302.5t-206 -212.5t-283 -143.5z" />
    <glyph glyph-name="delta" unicode="&#x3b4;" 
d="M558 -20q-133 0 -233 46.5t-155.5 130.5t-55.5 195q0 136 63.5 240.5t175.5 189t259 159.5l89 -160q-114 -65 -197.5 -128.5t-129.5 -132t-46 -151.5q0 -89 71.5 -144t189.5 -55q144 0 225 67.5t81 187.5q0 79 -32.5 134.5t-84.5 101t-109.5 91.5t-109.5 103.5t-84.5 138
t-32.5 195.5q0 164 100.5 247.5t294.5 83.5q122 0 231.5 -40t200.5 -117l-121 -173q-71 69 -151 104.5t-163 35.5q-89 0 -133.5 -32.5t-44.5 -100.5q0 -72 32.5 -131t84.5 -111.5t109.5 -105t109.5 -111t84.5 -129.5t32.5 -162q0 -220 -145.5 -343.5t-405.5 -123.5z" />
    <glyph glyph-name="epsilon" unicode="&#x3b5;" 
d="M529 -20q-413 0 -413 240q0 107 54.5 173t148 100t210.5 43l308 80l-24 -181h-52q-108 0 -188.5 -10.5t-134 -31t-80.5 -51.5t-27 -72q0 -106 238 -106q125 0 210.5 15.5t152.5 29.5l19 -181q-84 -22 -190.5 -35t-231.5 -13zM455 435l21 115q-233 61 -233 226
q0 114 68 180.5t181 95t247 28.5q232 0 389 -72l-88 -167q-144 55 -311 55q-71 0 -133 -13t-100 -43.5t-38 -84.5q0 -61 95 -96t284 -43l-24 -181h-358z" />
    <glyph glyph-name="zeta" unicode="&#x3b6;" 
d="M485 -479q-51 0 -110.5 7t-145.5 23l49 184q68 -16 116 -23t91 -7q110 0 172 32t62 108q0 53 -43 83t-121 52q-143 41 -228 94.5t-121.5 131t-36.5 191.5q0 100 51 186.5t160 174t282 186.5q99 57 160.5 108t89.5 97t28 87q0 49 -30 71.5t-93 22.5q-124 0 -231.5 -31.5
t-200.5 -71.5l-61 180q119 54 237.5 83.5t237.5 29.5q182 0 268.5 -64t86.5 -201q0 -80 -38 -158t-119 -153.5t-211 -150.5q-141 -81 -230 -144.5t-131 -118.5t-42 -114q0 -90 57.5 -144.5t201.5 -101.5q92 -30 157 -67.5t99.5 -95.5t34.5 -150q0 -168 -118 -252t-330 -84z
" />
    <glyph glyph-name="eta" unicode="&#x3b7;" 
d="M75 0l187 1060h177l-7 -253l-142 -807h-215zM807 1080q161 0 224 -96.5t30 -286.5l-54 -310q-27 -157 -67 -284t-96.5 -229.5t-132 -186.5t-174.5 -156l-141 155q84 63 148.5 133.5t112 154t80.5 185.5t54 226l55 320q16 92 -13.5 138.5t-105.5 46.5q-81 0 -150 -47
t-124.5 -156.5t-94.5 -296.5l50 429h44q32 125 127 193t228 68z" />
    <glyph glyph-name="theta" unicode="&#x3b8;" 
d="M503 -20q-175 0 -272.5 111.5t-97.5 310.5q0 44 3.5 89.5t7.5 91.5h217q-3 -40 -5.5 -80.5t-2.5 -80.5q0 -131 44.5 -191.5t138.5 -60.5q82 0 145.5 53t109.5 144t75.5 205t43.5 237t14 239q0 147 -50 214.5t-154 67.5q-117 0 -183 -73.5t-66 -204.5q0 -144 103.5 -224.5
t288.5 -80.5h140v-190h-140q-287 0 -448 130t-161 361q0 223 129.5 347.5t361.5 124.5q204 0 300 -114.5t96 -357.5q0 -152 -23 -305t-71.5 -290t-124 -243.5t-179.5 -168t-240 -61.5z" />
    <glyph glyph-name="iota" unicode="&#x3b9;" 
d="M966 225l69 -161q-61 -35 -129 -59.5t-156 -24.5q-181 0 -269 85t-78 249q5 75 29.5 146t53 138t43.5 129q21 82 -17.5 124t-133.5 42t-183 -23l-21 182q59 17 118 22.5t118 5.5q207 0 291 -94.5t39 -278.5q-17 -71 -44.5 -132.5t-50.5 -121.5t-28 -130
q-11 -153 172 -153q50 0 87.5 12.5t89.5 42.5z" />
    <glyph glyph-name="kappa" unicode="&#x3ba;" 
d="M257 291l-86 174l870 625l112 -159zM65 0l187 1060h215l-187 -1060h-215zM836 -20q-91 0 -155 41t-117 138l-173 317l200 67l164 -295q23 -42 49 -60t61 -18q37 0 71 11.5t76 37.5l89 -155q-70 -45 -131.5 -64.5t-133.5 -19.5z" />
    <glyph glyph-name="lambda" unicode="&#x3bb;" 
d="M976 -20q-110 0 -178 52t-94 163l-200 1021q-14 61 -52 87.5t-89 26.5q-46 0 -85.5 -12t-77.5 -26l-31 186q41 15 96 28.5t142 13.5q111 0 181.5 -48.5t95.5 -155.5l201 -1032q14 -60 52 -87t93 -27q5 0 20 2t43 6l-9 -186q-28 -6 -54 -9t-54 -3zM-26 0l654 1020
l100 -241l-152 -48q3 -42 1 -84t-12 -81t-32 -73l-318 -493h-241z" />
    <glyph glyph-name="uni03BC" unicode="&#x3bc;" 
d="M478 -469l-16 1q-169 11 -255 70.5t-114 179.5t-22 312q4 129 23.5 272.5t53.5 318t80 395.5l204 -29q-46 -248 -79.5 -430t-51.5 -313.5t-20 -231.5q0 -114 7 -186t47.5 -110.5t140.5 -53.5l46 -7zM292 -21l-56 1l15 189h106q114 0 207 57.5t157 168.5t89 272l-18 -416
h-66l57 48q-31 -98 -88 -171t-154.5 -112t-248.5 -37zM1050 -10q-108 0 -169 24t-82 84t-11 167l8 111l-19 105l103 578h217l-130 -730q-16 -91 14 -127.5t123 -36.5h29l-31 -175h-52z" />
    <glyph glyph-name="nu" unicode="&#x3bd;" 
d="M324 -1l-34 511q-12 177 -57.5 268.5t-137.5 126.5l103 175q88 -31 149 -98t97 -168t46 -234l37 -501zM558 0l-234 -1l180 190q137 74 222.5 184t135.5 277t79 410h222q-32 -230 -79.5 -401t-118 -294.5t-170.5 -211.5t-237 -153z" />
    <glyph glyph-name="xi" unicode="&#x3be;" 
d="M495 -479q-51 0 -110.5 7t-145.5 23l49 184q68 -16 116 -23t91 -7q120 0 187 29.5t67 100.5q0 57 -62.5 85.5t-171.5 59.5q-142 41 -227 88.5t-122 116.5t-37 172q0 65 25.5 133.5t91 132t183.5 113t302 76.5l72 49l225 30l-33 -188l-203 -27q-138 -20 -226 -57
t-136.5 -81.5t-67.5 -87t-19 -74.5q0 -76 58.5 -117.5t200.5 -88.5q112 -36 193 -74.5t124.5 -96t43.5 -152.5q0 -163 -123.5 -244.5t-344.5 -81.5zM672 744v82q-109 0 -190.5 29.5t-127 83t-45.5 124.5q0 134 88.5 226t280.5 150.5t504 90.5l2 -189q-340 -37 -500.5 -104.5
t-160.5 -174.5q0 -70 65 -107t179.5 -50.5t260.5 -13.5z" />
    <glyph glyph-name="omicron" unicode="&#x3bf;" 
d="M502 -20q-177 0 -276.5 101.5t-99.5 282.5q0 338 151 527t419 189q177 0 276.5 -104t99.5 -290q0 -333 -150.5 -519.5t-419.5 -186.5zM539 169q150 0 234.5 125.5t84.5 348.5q0 116 -50 181.5t-141 65.5q-154 0 -240.5 -125t-86.5 -348q0 -117 52.5 -182.5t146.5 -65.5z
" />
    <glyph glyph-name="pi" unicode="&#x3c0;" 
d="M862 -20q-142 0 -194 71.5t-24 228.5l138 780h214l-136 -770q-11 -63 0.5 -91.5t64.5 -28.5q24 0 51 6.5t64 16.5l20 -181q-52 -18 -93.5 -25t-104.5 -7zM120 870l33 190h1040l-33 -190h-1040zM133 0l187 1060h214l-187 -1060h-214z" />
    <glyph glyph-name="rho" unicode="&#x3c1;" 
d="M760 1080q177 0 274.5 -96.5t97.5 -273.5q0 -156 -57.5 -289t-161 -232t-242.5 -154t-303 -55q-50 0 -99.5 5.5t-99.5 15.5l39 195q55 -25 182 -25q150 0 269 69.5t188.5 189.5t69.5 270q0 91 -49 140.5t-138 49.5q-146 0 -231 -93.5t-120 -292.5l-170 -964h-219l171 973
q51 292 196.5 429.5t402.5 137.5z" />
    <glyph glyph-name="uni03C2" unicode="&#x3c2;" 
d="M435 -479q-47 0 -101.5 7t-134.5 23l49 184q68 -16 116 -23t91 -7q110 0 172 32t62 108q0 53 -43.5 81.5t-120.5 53.5q-137 44 -225.5 111.5t-131.5 162.5t-44 220q1 183 75.5 319.5t210 211.5t317.5 75q164 0 261 -52t147 -168l-155 -123q-52 80 -119 116.5t-162 36.5
q-108 0 -189.5 -49t-126 -137.5t-45.5 -207.5q0 -121 66.5 -200.5t207.5 -125.5q92 -30 157 -67.5t99.5 -95.5t34.5 -150q0 -168 -123.5 -252t-344.5 -84z" />
    <glyph glyph-name="sigma" unicode="&#x3c3;" 
d="M515 -20q-205 0 -318 121t-113 341q0 187 78.5 326.5t220 217t330.5 77.5h520l-33 -190h-487q-125 0 -218.5 -54t-145 -152t-51.5 -229q0 -127 61 -197.5t171 -70.5q118 0 182.5 84t64.5 238q0 90 -32 193.5t-104 204.5h226q63 -95 93.5 -196t30.5 -202
q0 -244 -124.5 -378t-351.5 -134z" />
    <glyph glyph-name="tau" unicode="&#x3c4;" 
d="M707 -20q-203 0 -281 102t-40 318l116 660h214l-114 -650q-22 -124 16.5 -182t141.5 -58q76 0 203 38l-9 -186q-112 -42 -247 -42zM170 870l33 190h940l-33 -190h-940z" />
    <glyph glyph-name="upsilon" unicode="&#x3c5;" 
d="M543 -20q-190 0 -277 114t-52 316l56 320q14 77 -5.5 108.5t-81.5 31.5h-118l33 190h118q176 0 238.5 -74t31.5 -246l-58 -330q-42 -240 148 -240q191 0 233 240l114 650h214l-114 -650q-76 -430 -480 -430z" />
    <glyph glyph-name="phi" unicode="&#x3c6;" 
d="M534 -460h-215l89 491h209zM302 1029l174 -122q-105 -114 -150.5 -223.5t-45.5 -246.5q0 -136 66.5 -212t185.5 -76q182 0 284 130.5t102 363.5q0 92 -32 165t-91 73q-39 0 -47 -50l-129 -729h-186l135 759q21 117 78.5 168t169.5 51q149 0 232.5 -114.5t83.5 -319.5
q0 -314 -166.5 -490t-463.5 -176q-210 0 -323 112.5t-113 311.5q0 184 54.5 329t181.5 296z" />
    <glyph glyph-name="chi" unicode="&#x3c7;" 
d="M13 -480l-146 140l654 739l509 681l156 -140l-623 -741zM749 -480q-148 0 -215 71.5t-72 237.5l-30 903q-3 85 -31 121.5t-90 36.5q-85 0 -155 -33l-51 174q74 26 128.5 37.5t106.5 11.5q149 0 215.5 -71.5t71.5 -237.5l30 -903q3 -85 31.5 -121.5t89.5 -36.5
q85 0 173 40l54 -174q-70 -30 -129.5 -43t-126.5 -13z" />
    <glyph glyph-name="psi" unicode="&#x3c8;" 
d="M503 -20q-232 0 -337.5 145.5t-59.5 404.5l93 530h214l-93 -530q-64 -370 215 -370q281 0 345 370l93 530h214l-93 -530q-97 -550 -591 -550zM318 -460l95 535h214l-95 -535h-214zM445 141l162 919h172l-162 -919h-172z" />
    <glyph glyph-name="omega" unicode="&#x3c9;" 
d="M730 -20q-109 0 -148.5 81.5t-21.5 262.5h1l86 -4q-16 -89 -1 -124.5t66 -35.5q45 0 75.5 42t43.5 118l130 740h214l-130 -740q-28 -163 -109 -251.5t-206 -88.5zM264 -20q-124 0 -173.5 88.5t-21.5 251.5l130 740h214l-130 -740q-13 -76 3 -118t60 -42t74.5 36t46.5 124
l83 4h1q-46 -181 -114.5 -262.5t-172.5 -81.5zM467 320l95 540h180l-95 -540h-180z" />
    <glyph glyph-name="iotadieresis" unicode="&#x3ca;" 
d="M966 225l69 -161q-61 -35 -129 -59.5t-156 -24.5q-181 0 -269 85t-78 249q5 75 29.5 146t53 138t43.5 129q21 82 -17.5 124t-133.5 42t-183 -23l-21 182q59 17 118 22.5t118 5.5q207 0 291 -94.5t39 -278.5q-17 -71 -44.5 -132.5t-50.5 -121.5t-28 -130
q-11 -153 172 -153q50 0 87.5 12.5t89.5 42.5zM958 1238q-55 0 -94.5 39.5t-39.5 94.5q0 56 39.5 95t94.5 39q56 0 95 -39t39 -95q0 -55 -39 -94.5t-95 -39.5zM538 1238q-55 0 -94.5 39.5t-39.5 94.5q0 56 39.5 95t94.5 39q56 0 95 -39t39 -95q0 -55 -39 -94.5t-95 -39.5z
" />
    <glyph glyph-name="upsilondieresis" unicode="&#x3cb;" 
d="M543 -20q-190 0 -277 114t-52 316l56 320q14 77 -5.5 108.5t-81.5 31.5h-118l33 190h118q176 0 238.5 -74t31.5 -246l-58 -330q-42 -240 148 -240q191 0 233 240l114 650h214l-114 -650q-76 -430 -480 -430zM958 1238q-55 0 -94.5 39.5t-39.5 94.5q0 56 39.5 95t94.5 39
q56 0 95 -39t39 -95q0 -55 -39 -94.5t-95 -39.5zM538 1238q-55 0 -94.5 39.5t-39.5 94.5q0 56 39.5 95t94.5 39q56 0 95 -39t39 -95q0 -55 -39 -94.5t-95 -39.5z" />
    <glyph glyph-name="omicrontonos" unicode="&#x3cc;" 
d="M502 -20q-177 0 -276.5 101.5t-99.5 282.5q0 338 151 527t419 189q177 0 276.5 -104t99.5 -290q0 -333 -150.5 -519.5t-419.5 -186.5zM539 169q150 0 234.5 125.5t84.5 348.5q0 116 -50 181.5t-141 65.5q-154 0 -240.5 -125t-86.5 -348q0 -117 52.5 -182.5t146.5 -65.5z
M627 1248l217 380h246l-267 -380h-196z" />
    <glyph glyph-name="upsilontonos" unicode="&#x3cd;" 
d="M543 -20q-190 0 -277 114t-52 316l56 320q14 77 -5.5 108.5t-81.5 31.5h-118l33 190h118q176 0 238.5 -74t31.5 -246l-58 -330q-42 -240 148 -240q191 0 233 240l114 650h214l-114 -650q-76 -430 -480 -430zM655 1248l217 380h246l-267 -380h-196z" />
    <glyph glyph-name="omegatonos" unicode="&#x3ce;" 
d="M730 -20q-109 0 -148.5 81.5t-21.5 262.5h1l86 -4q-16 -89 -1 -124.5t66 -35.5q45 0 75.5 42t43.5 118l130 740h214l-130 -740q-28 -163 -109 -251.5t-206 -88.5zM264 -20q-124 0 -173.5 88.5t-21.5 251.5l130 740h214l-130 -740q-13 -76 3 -118t60 -42t74.5 36t46.5 124
l83 4h1q-46 -181 -114.5 -262.5t-172.5 -81.5zM467 320l95 540h180l-95 -540h-180zM654 1248l217 380h246l-267 -380h-196z" />
    <glyph glyph-name="uni03CF" unicode="&#x3cf;" 
d="M223 332l13 198q245 37 409 162t259 313.5t133 414.5h214q-46 -284 -178.5 -517.5t-346 -384t-503.5 -186.5zM57 0l250 1420h208l-250 -1420h-208zM685 -480q-52 0 -111.5 3.5t-145.5 18.5l50 189q92 -21 153 -21q107 0 157 40t50 125q0 39 -10.5 86t-35.5 108l-200 477
l188 117l210 -495q35 -82 49 -153t14 -138q0 -184 -89.5 -270.5t-278.5 -86.5z" />
    <glyph glyph-name="uni03D7" unicode="&#x3d7;" 
d="M257 331l-86 174l870 585l112 -159zM635 -480q-52 0 -111.5 3.5t-145.5 18.5l50 189q92 -21 153 -21q107 0 157 30.5t50 94.5q0 33 -16 71t-53 83l-367 457l176 117l389 -475q45 -55 65.5 -117t20.5 -134q0 -163 -89.5 -240t-278.5 -77zM65 0l187 1060h215l-187 -1060
h-215z" />
    <glyph glyph-name="uni0400" unicode="&#x400;" 
d="M67 0l250 1420h209l-250 -1420h-209zM67 0l34 190h938l-33 -190h-939zM176 616l33 190h759l-33 -190h-759zM284 1230l33 190h939l-33 -190h-939zM699 1580l-216 250h292l166 -250h-242z" />
    <glyph glyph-name="uni0401" unicode="&#x401;" 
d="M67 0l250 1420h209l-250 -1420h-209zM67 0l34 190h938l-33 -190h-939zM176 616l33 190h759l-33 -190h-759zM284 1230l33 190h939l-33 -190h-939zM1057 1580q-55 0 -94.5 39.5t-39.5 94.5q0 56 39.5 95t94.5 39q56 0 95 -39t39 -95q0 -55 -39 -94.5t-95 -39.5zM641 1580
q-55 0 -94.5 39.5t-39.5 94.5q0 56 39.5 95t94.5 39q56 0 95 -39t39 -95q0 -55 -39 -94.5t-95 -39.5z" />
    <glyph glyph-name="uni0402" unicode="&#x402;" 
d="M526 -20l7 190h9h8q84 0 154 41.5t112 119.5t42 187q0 122 -59 178t-166 56q-54 0 -121 -27.5t-141 -80.5l18 197q56 49 138 73.5t152 24.5q121 0 209 -50.5t136 -142.5t48 -218q0 -85 -29.5 -180.5t-92 -179t-162.5 -136t-241 -52.5h-10.5h-10.5zM142 0l250 1420h208
l-250 -1420h-208zM143 1230l34 190h792l-34 -190h-792z" />
    <glyph glyph-name="uni0403" unicode="&#x403;" 
d="M89 0l248 1420h209l-250 -1420h-207zM304 1230l33 190h909l-33 -190h-909zM654 1580l210 251h284l-262 -251h-232z" />
    <glyph glyph-name="uni0404" unicode="&#x404;" 
d="M666 -20q-187 0 -311.5 60.5t-187 181t-62.5 301.5q0 203 58.5 371t165.5 290t254.5 189t325.5 67q221 0 344 -159l-143 -147q-97 122 -230 122q-166 0 -295 -94.5t-202.5 -258.5t-73.5 -373q0 -122 42.5 -203.5t127.5 -122t214 -40.5q170 0 347 60l14 -176
q-192 -68 -388 -68zM188 632l33 190h646l-33 -190h-646z" />
    <glyph glyph-name="uni0405" unicode="&#x405;" 
d="M486 -20q-259 0 -438 88l62 182q205 -86 395 -86q151 0 229 47t78 138q0 56 -22 97.5t-72 81.5l-286 232q-77 63 -112.5 145.5t-35.5 161.5q0 184 116.5 278.5t338.5 94.5q277 0 438 -169l-145 -152q-73 68 -150 102.5t-155 34.5q-110 0 -169.5 -43.5t-59.5 -128.5
q0 -45 24 -98t77 -96l246 -198q95 -77 138 -150.5t43 -169.5q0 -193 -137 -292.5t-403 -99.5z" />
    <glyph glyph-name="uni0406" unicode="&#x406;" 
d="M403 0l250 1420h208l-250 -1420h-208zM75 0l33 190h863l-33 -190h-863zM292 1230l33 190h863l-33 -190h-863z" />
    <glyph glyph-name="uni0407" unicode="&#x407;" 
d="M403 0l250 1420h208l-250 -1420h-208zM75 0l33 190h863l-33 -190h-863zM292 1230l33 190h863l-33 -190h-863zM1017 1580q-55 0 -94.5 39.5t-39.5 94.5q0 56 39.5 95t94.5 39q56 0 95 -39t39 -95q0 -55 -39 -94.5t-95 -39.5zM601 1580q-55 0 -94.5 39.5t-39.5 94.5
q0 56 39.5 95t94.5 39q56 0 95 -39t39 -95q0 -55 -39 -94.5t-95 -39.5z" />
    <glyph glyph-name="uni0408" unicode="&#x408;" 
d="M498 -20q-244 0 -357 130.5t-64 365.5h208q-25 -148 34 -230t195 -82q140 0 221 76t109 236l166 944h208l-166 -944q-45 -255 -178.5 -375.5t-375.5 -120.5zM617 1230l34 190h461l-33 -190h-462z" />
    <glyph glyph-name="uni0409" unicode="&#x409;" 
d="M11 -20q-13 0 -26.5 1.5t-27.5 4.5l36 200q14 -2 21 -2q51 2 89 48.5t68 139t59.5 232.5t64.5 329q23 122 45.5 244t44.5 243h414l-33 -190h-337l101 84l-38 -206t-39 -206q-37 -198 -73 -366t-83.5 -293t-116 -194t-169.5 -69zM480 0l34 192l167 -2q63 -1 110.5 32.5
t80 92t49 133t16.5 156.5q0 92 -42 142t-131 50h-64.5h-64.5l63 190h34h34q117 0 197.5 -41t122 -121t41.5 -197q0 -123 -31.5 -235.5t-93 -200.5t-151.5 -139.5t-207 -51.5h-164zM465 0l250 1420h188l-235 -1338l-15 -82h-188z" />
    <glyph glyph-name="uni040A" unicode="&#x40a;" 
d="M480 0l34 192l167 -2q63 -1 110.5 32.5t80 92t49 133t16.5 156.5q0 92 -42 142t-131 50h-64.5h-64.5l63 190h34h34q117 0 197.5 -41t122 -121t41.5 -197q0 -123 -31.5 -235.5t-93 -200.5t-151.5 -139.5t-207 -51.5h-164zM35 0l250 1420h208l-250 -1420h-208zM185 795
l33 190h531l-33 -190h-531zM465 0l250 1420h188l-89 -506l-3 -17l-139 -788l-19 -109h-188z" />
    <glyph glyph-name="uni040B" unicode="&#x40b;" 
d="M147 0l250 1420h208l-250 -1420h-208zM762 0l29 171q17 98 34.5 191.5t17.5 158.5q0 103 -40.5 160t-141.5 57q-49 0 -95.5 -12t-94 -36t-98.5 -60l18 197q59 49 143 73.5t173 24.5q125 0 200 -48t108.5 -131t33.5 -189q0 -59 -8 -124.5t-19.5 -132t-23.5 -129.5
l-31 -171h-205zM143 1230l34 190h791l-34 -190h-791z" />
    <glyph glyph-name="uni040C" unicode="&#x40c;" 
d="M67 0l250 1420h208l-250 -1420h-208zM253 531l33 190h451l-33 -190h-451zM805 0l-255 660l197 64l292 -724h-234zM711 548l-160 117q75 44 144.5 117t130 161t109.5 177.5t84 168t53 131.5h217q-29 -93 -83.5 -212.5t-130 -243.5t-167.5 -233.5t-197 -182.5zM654 1580
l210 251h284l-262 -251h-232z" />
    <glyph glyph-name="uni040D" unicode="&#x40d;" 
d="M170 0l67 350h102l643 1070h70l-66 -350h-60l-644 -1070h-112zM55 0l250 1420h200l-250 -1420h-200zM759 0l250 1420h200l-250 -1420h-200zM659 1580l-216 250h292l166 -250h-242z" />
    <glyph glyph-name="uni040E" unicode="&#x40e;" 
d="M208 -20q-42 0 -79.5 4t-74.5 16l32 186q23 -6 49 -11t70 -5q124 0 228.5 69t192.5 185q71 93 136.5 210t123.5 248t105.5 267.5t81.5 269.5h214q-40 -151 -94.5 -301t-121 -292t-141 -269t-154.5 -232q-79 -105 -168.5 -182.5t-189 -120t-210.5 -42.5zM556 272
l-343 1126l209 32l251 -915h96zM757 1568q-128 0 -199 58.5t-71 147.5q0 59 30 119l177 -22q-11 -19 -16.5 -37.5t-5.5 -35.5q0 -37 26.5 -62.5t78.5 -25.5q65 0 137.5 45t117.5 126l10 18l141 -79l-14 -22q-56 -88 -126 -138t-144 -71t-142 -21z" />
    <glyph glyph-name="uni040F" unicode="&#x40f;" 
d="M759 0l250 1420h208l-250 -1420h-208zM509 -321l-187 40q33 68 61.5 142.5t41.5 138.5l215 190q-4 -55 -16 -123.5t-29 -139t-39 -135t-47 -113.5zM79 0l33 190h841l-33 -190h-841zM47 0l250 1420h208l-250 -1420h-208z" />
    <glyph glyph-name="uni0410" unicode="&#x410;" 
d="M-48 0l630 1421h321q26 -113 49.5 -256.5t43 -300.5t34 -313.5t23 -298t9.5 -252.5h-212q1 92 -5.5 217t-18 265t-27 280.5t-32 266.5t-32.5 220h-18l-543 -1249h-222zM215 346l41 190h720l-41 -190h-720z" />
    <glyph glyph-name="uni0411" unicode="&#x411;" 
d="M67 0l53 190h358q131 0 224.5 41t143.5 114.5t50 170.5q0 121 -91.5 180t-252.5 52q-83 -4 -151 -20.5t-144 -41.5l31 188q74 29 139 46t153 19q243 6 386.5 -104t143.5 -313q0 -157 -79 -274.5t-230.5 -182.5t-369.5 -65h-364zM67 0l250 1420h208l-240 -1365zM284 1230
l33 190h854l-33 -190h-854z" />
    <glyph glyph-name="uni0412" unicode="&#x412;" 
d="M67 0l250 1420h208l-250 -1420h-208zM285 765l33 81h282q151 0 229 54t78 158q0 192 -335 192q-177 0 -288 -20l33 190q102 20 258 20q271 0 410.5 -86t139.5 -253q0 -166 -126.5 -251t-371.5 -85h-342zM255 0l34 190h162q227 0 334 62.5t107 195.5q0 98 -80.5 153
t-223.5 55h-212l-11 80h336q191 0 298 -83t107 -231q0 -217 -154.5 -319.5t-480.5 -102.5h-216zM308 698l17 98h421l-17 -98h-421z" />
    <glyph glyph-name="uni0413" unicode="&#x413;" 
d="M89 0l248 1420h209l-250 -1420h-207zM304 1230l33 190h909l-33 -190h-909z" />
    <glyph glyph-name="uni0414" unicode="&#x414;" 
d="M761 174l186 1056h-505l35 190h712l-220 -1246h-208zM72 -321l-185 40q18 62 39 147.5t40.5 172.5t31.5 151h1106q-5 -56 -17 -128t-28 -146t-32.5 -136.5t-30.5 -100.5l-183 40q29 82 51.5 171.5t35.5 156.5l76 -47h-911l99 60q-24 -103 -45 -197.5t-47 -183.5zM300 181
l-209 2q55 62 106.5 186.5t97.5 283t82 320.5l100 447h195l-106 -474q-28 -124 -59.5 -239.5t-66 -216t-70 -179.5t-70.5 -130z" />
    <glyph glyph-name="uni0415" unicode="&#x415;" 
d="M67 0l250 1420h209l-250 -1420h-209zM67 0l34 190h938l-33 -190h-939zM176 616l33 190h759l-33 -190h-759zM284 1230l33 190h939l-33 -190h-939z" />
    <glyph glyph-name="uni0416" unicode="&#x416;" 
d="M412 0l251 1420h188l-251 -1420h-188zM-66 0q33 78 64 151t67.5 153.5t86 177.5t118.5 223l167 -65q-66 -118 -114.5 -220t-90.5 -203t-90 -217h-208zM270 561l34 190h630l-34 -190h-630zM879 0l-61 698l183 -15l79 -683h-201zM422 608l-168 61l-58 751h202zM989 655
l-185 14q47 71 94 171.5t90 209.5t78 206.5t57 163.5h188q-23 -81 -59 -182t-80 -207t-91 -203.5t-92 -172.5z" />
    <glyph glyph-name="uni0417" unicode="&#x417;" 
d="M470 -20q-164 0 -283.5 49.5t-193.5 122.5l115 155q33 -35 87.5 -68t129.5 -54t167 -21q97 0 175.5 33t124.5 93.5t46 143.5q0 88 -86 137.5t-236 51.5h-25h-36l-4 118h294q142 -16 224.5 -95.5t82.5 -207.5q0 -132 -76.5 -235.5t-208 -163t-297.5 -59.5zM455 623l-6 174
q44 8 84.5 17.5t68.5 16.5q108 28 178 68t104.5 90.5t34.5 108.5q0 82 -57 120t-153 38q-90 0 -190.5 -39t-187.5 -106l-107 144q122 98 246 141.5t266 43.5q190 0 293.5 -76t103.5 -209q0 -95 -44 -176.5t-131.5 -136.5t-218.5 -70l-5 -94z" />
    <glyph glyph-name="uni0418" unicode="&#x418;" 
d="M170 0l67 350h102l643 1070h70l-66 -350h-60l-644 -1070h-112zM55 0l250 1420h200l-250 -1420h-200zM759 0l250 1420h200l-250 -1420h-200z" />
    <glyph glyph-name="uni0419" unicode="&#x419;" 
d="M170 0l67 350h102l643 1070h70l-66 -350h-60l-644 -1070h-112zM55 0l250 1420h200l-250 -1420h-200zM759 0l250 1420h200l-250 -1420h-200zM757 1568q-128 0 -199 58.5t-71 147.5q0 59 30 119l177 -22q-11 -19 -16.5 -37.5t-5.5 -35.5q0 -37 26.5 -62.5t78.5 -25.5
q65 0 137.5 45t117.5 126l10 18l141 -79l-14 -22q-56 -88 -126 -138t-144 -71t-142 -21z" />
    <glyph glyph-name="uni041A" unicode="&#x41a;" 
d="M67 0l250 1420h208l-250 -1420h-208zM253 531l33 190h451l-33 -190h-451zM805 0l-255 660l197 64l292 -724h-234zM711 548l-160 117q75 44 144.5 117t130 161t109.5 177.5t84 168t53 131.5h217q-29 -93 -83.5 -212.5t-130 -243.5t-167.5 -233.5t-197 -182.5z" />
    <glyph glyph-name="uni041B" unicode="&#x41b;" 
d="M16 -20q-18 0 -36.5 1.5t-38.5 5.5l36 202q17 -4 37 -4q81 0 141 70t105 185t78 252t58 272q14 76 29.5 152l31 152t29.5 152h731l-250 -1420h-208l217 1230h-415l97 60q-12 -58 -23 -114t-21 -109t-20 -103q-27 -143 -60.5 -285t-78 -267.5t-106 -223t-143.5 -153
t-190 -55.5z" />
    <glyph glyph-name="uni041C" unicode="&#x41c;" 
d="M577 580l71 230h12l254 610h142l-44 -252h-58l-256 -588h-121zM40 0l245 1420h210l-250 -1420h-205zM527 579l-50 589h-58l44 252h117l64 -610h8l-21 -230zM774 0l250 1420h205l-250 -1420h-205z" />
    <glyph glyph-name="uni041D" unicode="&#x41d;" 
d="M759 0l250 1420h208l-250 -1420h-208zM47 0l250 1420h208l-250 -1420h-208zM197 612l33 190h841l-33 -190h-841z" />
    <glyph glyph-name="uni041E" unicode="&#x41e;" 
d="M513 -20q-195 0 -304 128.5t-109 357.5q0 306 77.5 524t223.5 334t351 116q194 0 303 -125.5t109 -349.5q0 -309 -77.5 -529.5t-223 -338t-350.5 -117.5zM539 164q129 0 221 92.5t141 266t49 417.5q0 149 -57.5 232.5t-161.5 83.5q-131 0 -224.5 -91t-143 -262
t-49.5 -412q0 -154 59.5 -240.5t165.5 -86.5z" />
    <glyph glyph-name="uni041F" unicode="&#x41f;" 
d="M759 0l250 1420h208l-250 -1420h-208zM47 0l250 1420h208l-250 -1420h-208zM311 1230l33 190h841l-33 -190h-841z" />
    <glyph glyph-name="uni0420" unicode="&#x420;" 
d="M67 0l250 1420h208l-250 -1420h-208zM181 360l33 190h112q320 0 485 108.5t165 319.5q0 134 -92.5 203t-271.5 69q-200 0 -328 -20l33 190q128 20 328 20q269 0 407 -114t138 -335q0 -311 -227 -471t-670 -160h-112z" />
    <glyph glyph-name="uni0421" unicode="&#x421;" 
d="M666 -20q-187 0 -311.5 60.5t-187 181t-62.5 301.5q0 203 58.5 371t165.5 290t254.5 189t325.5 67q221 0 344 -159l-143 -147q-97 122 -230 122q-161 0 -288 -94.5t-200 -258.5t-73 -373q0 -122 42 -203.5t125 -122t207 -40.5q170 0 347 60l14 -176q-192 -68 -388 -68z
" />
    <glyph glyph-name="uni0422" unicode="&#x422;" 
d="M402 0l251 1420h208l-251 -1420h-208zM204 1230l33 190h1039l-33 -190h-1039z" />
    <glyph glyph-name="uni0423" unicode="&#x423;" 
d="M208 -20q-42 0 -79.5 4t-74.5 16l32 186q23 -6 49 -11t70 -5q124 0 228.5 69t192.5 185q71 93 136.5 210t123.5 248t105.5 267.5t81.5 269.5h214q-40 -151 -94.5 -301t-121 -292t-141 -269t-154.5 -232q-79 -105 -168.5 -182.5t-189 -120t-210.5 -42.5zM556 272
l-343 1126l209 32l251 -915h96z" />
    <glyph glyph-name="uni0424" unicode="&#x424;" 
d="M418 -20l40 228l21 63l162 918v59l37 212h169l-37 -212l-20 -59l-162 -918l-1 -63l-40 -228h-169zM551 140q-219 0 -340 107t-121 328q0 166 45.5 300t128.5 229t197.5 145.5t253.5 50.5q220 0 341 -107t121 -328q0 -166 -45.5 -300t-128.5 -229t-198 -145.5t-254 -50.5z
M574 304q90 0 164 38.5t127.5 110t82.5 171t29 220.5q0 148 -69 220t-216 72q-87 0 -160.5 -38.5t-127.5 -110t-84 -171t-30 -220.5q0 -148 69 -220t215 -72z" />
    <glyph glyph-name="uni0425" unicode="&#x425;" 
d="M161 -40l-156 140l589 680l458 660l166 -140l-579 -702zM824 -20q-113 0 -197.5 73t-87.5 236l-14 803q-1 83 -36.5 120.5t-76.5 37.5q-70 0 -137 -35l-59 171q68 28 122 41t103 13q69 0 128.5 -32t97 -100t39.5 -177l14 -803q2 -82 41.5 -120t91.5 -38q69 0 137 45
l59 -171q-58 -33 -112.5 -48.5t-112.5 -15.5z" />
    <glyph glyph-name="uni0426" unicode="&#x426;" 
d="M732 0l250 1420h208l-250 -1420h-208zM963 -321l-187 40q39 81 71.5 170t38.5 157l78 -46h-829l34 190h925q-4 -55 -16 -123.5t-29 -139t-39 -135t-47 -113.5zM47 0l250 1420h208l-250 -1420h-208z" />
    <glyph glyph-name="uni0427" unicode="&#x427;" 
d="M637 493q-202 0 -320.5 115t-118.5 314q0 82 16 186.5t41 204.5l26 107h201l-25 -121q-20 -97 -37 -188t-17 -170q0 -128 64.5 -192t197.5 -64q65 0 118 15.5t106 43t114 63.5l-23 -203q-68 -49 -153.5 -80t-189.5 -31zM759 0l250 1420h208l-250 -1420h-208z" />
    <glyph glyph-name="uni0428" unicode="&#x428;" 
d="M771 0l250 1420h208l-250 -1420h-208zM77 0l32 180h865l-32 -180h-865zM35 0l250 1420h208l-250 -1420h-208zM427 0l250 1420h160l-250 -1420h-160z" />
    <glyph glyph-name="uni0429" unicode="&#x429;" 
d="M779 0l250 1420h200l-250 -1420h-200zM963 -321l-187 40q39 81 70.5 170t38.5 157l78 -46h-794v180h925q-4 -44 -16 -109t-29 -137t-39 -139t-47 -116zM35 0l250 1420h200l-250 -1420h-200zM427 0l250 1420h160l-250 -1420h-160z" />
    <glyph glyph-name="uni042A" unicode="&#x42a;" 
d="M147 0l250 1420h208l-250 -1420h-208zM113 1230l34 190h339l-33 -190h-340zM460 0h-279l33 190h279q26 0 75 6.5t107 26.5t110.5 59.5t86.5 104t34 160.5t-46 149.5t-112 74.5t-125 21q-100 0 -176 -29t-154 -78l33 186q54 35 102 60t102 38.5t125 13.5q64 0 143.5 -18.5
t153 -64t121 -126.5t47.5 -206q0 -165 -62.5 -274.5t-162.5 -174t-215 -92t-220 -27.5z" />
    <glyph glyph-name="uni042B" unicode="&#x42b;" 
d="M74 0l36 192l162 -2q97 -1 160.5 60.5t95 155.5t31.5 191q0 101 -43 148t-115 47q-32 0 -64.5 -5.5t-64.5 -13.5l83 190q17 8 37.5 13.5t60.5 5.5q84 0 151 -40.5t106 -119.5t39 -197q0 -175 -60 -317t-174 -225t-277 -83h-164zM35 0l250 1420h198l-237 -1347l-13 -73
h-198zM771 0l250 1420h208l-250 -1420h-208z" />
    <glyph glyph-name="uni042C" unicode="&#x42c;" 
d="M385 0h-336l64 190h301q141 0 249 41t169 118.5t61 186.5q0 133 -91.5 195.5t-245.5 61.5q-90 -1 -161.5 -15t-114.5 -29l34 187q48 17 116.5 31.5t156.5 14.5q154 0 271 -50t183 -147.5t66 -241.5q0 -168 -87.5 -289.5t-249 -187.5t-385.5 -66zM47 0l250 1420h208
l-250 -1420h-208z" />
    <glyph glyph-name="uni042D" unicode="&#x42d;" 
d="M381 -20q-136 0 -223 38.5t-151 120.5l143 147q50 -63 109.5 -92.5t150.5 -29.5q117 0 216 54t172.5 152t114.5 230.5t41 289.5q0 173 -88.5 267t-255.5 98q-100 3 -180.5 -18t-152.5 -51l-38 168q98 44 196.5 64.5t198.5 20.5q177 0 293.5 -64t173.5 -185.5t57 -292.5
q0 -202 -57 -370.5t-161 -290.5t-246 -189t-313 -67zM410 632l33 190h629l-33 -190h-629z" />
    <glyph glyph-name="uni042E" unicode="&#x42e;" 
d="M688 -20q-95 0 -156 56t-87 164.5t-16 265.5q12 190 39 344t69 271.5t98 197.5t126.5 120.5t155.5 40.5q98 0 160 -56.5t88 -162.5t16 -256q-13 -189 -41 -344t-71 -274.5t-100 -201t-127.5 -123.5t-153.5 -42zM-13 0l250 1420h198l-250 -1420h-198zM177 612l33 190h331
l-33 -190h-331zM707 164q38 0 73 33.5t66 99t56.5 159.5t45 216t31.5 268q13 149 -10.5 232.5t-85.5 83.5q-39 0 -74 -33.5t-66 -97.5t-56.5 -157t-45 -213t-31.5 -264q-9 -103 -1.5 -176t32 -112t66.5 -39z" />
    <glyph glyph-name="uni042F" unicode="&#x42f;" 
d="M755 454q-180 0 -307.5 53.5t-195 154.5t-67.5 244q0 166 88 285.5t246.5 184t368.5 64.5q72 0 132.5 -2.5t110 -6.5t88.5 -11l-36 -189q-41 6 -92 10t-109.5 6.5t-122.5 2.5q-131 0 -235 -33.5t-164.5 -107t-60.5 -195.5q0 -136 97.5 -203t284.5 -67q59 0 125.5 15.5
t140.5 35.5l-32 -203q-70 -18 -135.5 -28t-124.5 -10zM-21 0l472 630h234l-458 -630h-248zM759 0l251 1420h208l-251 -1420h-208z" />
    <glyph glyph-name="uni0430" unicode="&#x430;" 
d="M347 -21q-136 0 -210 78t-74 220q0 180 76.5 326.5t214.5 250.5t323 160t402 56h20l-132 -753q-14 -80 12.5 -116t114.5 -36h41l-30 -175h-71q-77 0 -128.5 15.5t-80 49t-36.5 88.5t2 134l58 -26h-116l53 58q-55 -157 -170 -243.5t-269 -86.5zM412 169q144 0 251 130
t150 368l52 290l81 -77q-140 -6 -261.5 -52t-213 -123.5t-143 -180t-51.5 -222.5q0 -64 35.5 -98.5t99.5 -34.5z" />
    <glyph glyph-name="uni0431" unicode="&#x431;" 
d="M536 -20q-145 0 -235 60t-131.5 170t-41.5 259q0 131 20 255t60 235t101 202q83 122 204.5 201.5t280.5 102.5q55 8 132 14t155.5 15t137.5 25l6 -195q-30 -13 -81 -21t-111.5 -13t-119.5 -10t-104 -12q-194 -31 -304.5 -165.5t-131.5 -334.5h21q35 92 93 144.5t127 74.5
t136 22q98 0 177 -44t124.5 -132.5t41.5 -222.5q-5 -187 -76 -329t-194.5 -221.5t-286.5 -79.5zM566 170q89 0 157.5 52.5t110 147t45.5 220.5q4 111 -46.5 170t-152.5 59q-89 0 -157 -42.5t-111 -97t-58 -89.5q-18 -113 -10.5 -193t37 -130t77 -73.5t108.5 -23.5z" />
    <glyph glyph-name="uni0432" unicode="&#x432;" 
d="M258 508l-19 179q208 11 375.5 69.5t266 160.5t98.5 243q0 60 -22 97t-62.5 54.5t-97.5 17.5q-109 0 -189 -58t-133 -156t-82 -219q-21 -88 -31.5 -186t-10.5 -184q0 -118 25 -197t80 -119t144 -40q84 0 143 36t90 93.5t31 122.5q0 71 -18.5 114.5t-59.5 65.5t-109 28
l206 77v-59q51 -13 87.5 -34t60 -50.5t35 -70.5t11.5 -95q0 -109 -61 -204.5t-172 -154.5t-261 -59q-136 0 -223 43t-135 118t-66.5 171.5t-18.5 203.5q0 135 15 232t34 181q29 125 82.5 232t130.5 187.5t179 125.5t229 45q125 0 210 -43t129 -121.5t44 -185.5
q0 -153 -73.5 -270.5t-202.5 -199.5t-298 -129.5t-361 -61.5z" />
    <glyph glyph-name="uni0433" unicode="&#x433;" 
d="M516 -20q-109 0 -197.5 27t-140.5 85.5t-52 153.5q0 84 39 142.5t103.5 99t141.5 69t153.5 51.5t141 47.5t103.5 56t39 77.5q0 44 -45.5 72.5t-153.5 28.5q-92 0 -185 -37.5t-182 -80.5l-90 162q95 56 218 101t250 45q154 0 242.5 -39.5t126 -103t37.5 -134.5
q0 -82 -39 -139.5t-103.5 -97t-141.5 -67t-153.5 -50.5t-141 -47t-103.5 -55.5t-39 -77.5t45 -72.5t142 -26.5q84 0 193 23.5t212 78.5l61 -162q-65 -50 -151.5 -78.5t-173.5 -40t-156 -11.5z" />
    <glyph glyph-name="uni0434" unicode="&#x434;" 
d="M459 -20q-109 0 -177 33t-104 86.5t-48.5 117.5t-11.5 126q4 189 79.5 339.5t211.5 238.5t320 88q73 0 151.5 -15.5t163.5 -47.5l-96 -151q-52 16 -100.5 23t-92.5 7q-136 0 -230 -61t-143 -162t-50 -222q-1 -112 42.5 -161t125.5 -49q101 0 175.5 60.5t122.5 165.5
t71.5 240t23.5 285q0 146 -26 236t-85 131.5t-159 41.5q-73 0 -137 -20t-146 -56l-53 174q79 36 160 64t199 28q152 0 254 -59.5t154 -193.5t52 -356q0 -164 -27.5 -306.5t-81 -257.5t-131.5 -197t-180 -126t-227 -44z" />
    <glyph glyph-name="uni0435" unicode="&#x435;" 
d="M587 170q80 0 171 25t175 70l69 -171q-98 -54 -210 -84t-214 -30q-206 0 -321.5 108t-115.5 301q0 208 78.5 363t219.5 241.5t329 86.5q148 0 230.5 -74t82.5 -206q0 -196 -200.5 -309t-559.5 -120l-21 160q268 4 417.5 71t149.5 185q0 48 -33 75.5t-94 27.5
q-119 0 -209.5 -61t-141 -171t-51.5 -257q1 -109 67 -170t182 -61z" />
    <glyph glyph-name="uni0436" unicode="&#x436;" 
d="M642 442l32 174h232l-30 -174h-234zM-18 -2q-9 0 -18 0.5t-18 1.5l33 183q50 1 92 41.5t73 114t48 171.5l9 52q20 113 18 182t-26 101t-70 32q-6 0 -12 -0.5t-13 -1.5l34 185q12 2 23.5 2h22.5q161 0 206 -130t4 -370l-13 -75q-20 -114 -55.5 -204.5t-85.5 -154
t-113.5 -97t-138.5 -33.5zM417 0l186 1060h180l-186 -1060h-180zM1022 -2q-160 0 -205.5 130t-4.5 370l13 75q20 114 55.5 204.5t85.5 154t113.5 97t138.5 33.5q9 0 18 -0.5t18 -1.5l-33 -183q-49 0 -91.5 -41t-73.5 -114.5t-48 -171.5l-9 -52q-19 -112 -17.5 -181.5
t25.5 -101.5t70 -32q6 0 12 0.5t13 1.5l-34 -185q-12 -1 -23.5 -1.5t-22.5 -0.5zM281 442l32 174l237 1l-32 -175h-237z" />
    <glyph glyph-name="uni0437" unicode="&#x437;" 
d="M450 -480q-129 0 -222 32.5t-156 92.5t-104 142l162 127q38 -69 88 -115t114.5 -68.5t143.5 -22.5q95 0 163.5 33t105.5 89t37 125q0 80 -46.5 140.5t-125 94t-174.5 33.5h-30.5h-30.5l-3 122l294 -2q98 -18 172.5 -69.5t116 -129.5t41.5 -176q0 -94 -39.5 -175
t-112 -142.5t-172.5 -96t-222 -34.5zM375 223l-4 178q41 8 83 18.5t69 17.5q110 31 181 74.5t105.5 97.5t34.5 114q0 82 -56 125.5t-146 43.5t-186.5 -42t-184.5 -114l-105 147q121 104 243 150.5t256 46.5q188 0 291 -81t103 -222q0 -91 -44.5 -176.5t-133 -146.5
t-221.5 -79l-6 -97z" />
    <glyph glyph-name="uni0438" unicode="&#x438;" 
d="M392 -21q-140 0 -217 83.5t-77 234.5q0 153 49.5 338.5t159.5 444.5l212 -39q-109 -265 -158 -435.5t-49 -283.5q0 -73 38 -113t107 -40q133 0 220 128.5t133 369.5l-18 -416h-66l57 48q-35 -98 -80 -170t-117.5 -111t-193.5 -39zM1058 -10q-108 0 -172 28.5t-87 89.5
t-10 158l-12 215l103 579h217l-128 -721q-17 -96 9.5 -135t114.5 -39h43l-31 -175h-47z" />
    <glyph glyph-name="uni0439" unicode="&#x439;" 
d="M392 -21q-140 0 -217 83.5t-77 234.5q0 153 49.5 338.5t159.5 444.5l212 -39q-109 -265 -158 -435.5t-49 -283.5q0 -73 38 -113t107 -40q133 0 220 128.5t133 369.5l-18 -416h-66l57 48q-35 -98 -80 -170t-117.5 -111t-193.5 -39zM1058 -10q-108 0 -172 28.5t-87 89.5
t-10 158l-12 215l103 579h217l-128 -721q-17 -96 9.5 -135t114.5 -39h43l-31 -175h-47zM704 1220q-84 0 -148.5 31t-101.5 85t-37 122q0 58 28 118l176 -16q-7 -20 -11.5 -39.5t-4.5 -38.5q0 -49 29 -82t90 -33q75 0 152 57t125 166l139 -84q-59 -106 -132.5 -169
t-151.5 -90t-152 -27z" />
    <glyph glyph-name="uni043A" unicode="&#x43a;" 
d="M945 -20q-113 0 -211 59t-170 176t-108 289q145 64 235.5 143t140.5 180t72 232l223 21q-24 -147 -71 -257t-111.5 -189t-140 -133.5t-156.5 -89.5l20 107q25 -128 74 -204.5t109 -110t118 -33.5q33 0 51.5 1.5t40.5 3.5l19 -181q-31 -6 -62.5 -10t-72.5 -4zM65 0
l186 1060h215l-186 -1060h-215z" />
    <glyph glyph-name="uni043B" unicode="&#x43b;" 
d="M731 0q24 88 49 189t42 204.5t17 197.5q0 119 -31.5 181t-98.5 86t-174.5 27.5t-259.5 6.5l32 188q189 1 329 -12t233 -59t138.5 -140.5t45.5 -256.5q0 -97 -15 -205.5t-38.5 -213.5t-49.5 -193h-219zM72 -20q-22 0 -40 3.5t-43 14.5l32 179q15 -4 19 -5.5t16 -1.5
q60 0 110.5 40t92.5 109t75 155t58 179.5t41 182.5l13 70l197 -12l-15 -79q-24 -128 -57.5 -250.5t-78.5 -228t-105.5 -186t-138 -125.5t-176.5 -45z" />
    <glyph glyph-name="uni043C" unicode="&#x43c;" 
d="M511 220l71 230h12l272 610h126l-44 -252h-58l-260 -588h-119zM35 0l186 1060h205l-186 -1060h-205zM460 220l-52 588h-58l44 252h126l58 -610h8l-21 -230h-105zM774 0l186 1060h205l-186 -1060h-205z" />
    <glyph glyph-name="uni043D" unicode="&#x43d;" 
d="M75 0l186 1060h215l-186 -1060h-215zM215 443l30 174h771l-30 -174h-771zM992 -20q-142 0 -195 71.5t-23 228.5l148 780h214l-146 -770q-13 -73 -0.5 -103t65.5 -30q28 0 62 3l-34 -175q-19 -3 -41.5 -4t-49.5 -1z" />
    <glyph glyph-name="uni043E" unicode="&#x43e;" 
d="M502 -20q-177 0 -276.5 101.5t-99.5 282.5q0 338 151 527t419 189q177 0 276.5 -104t99.5 -290q0 -333 -150.5 -519.5t-419.5 -186.5zM539 169q150 0 234.5 125.5t84.5 348.5q0 116 -50 181.5t-141 65.5q-154 0 -240.5 -125t-86.5 -348q0 -117 52.5 -182.5t146.5 -65.5z
" />
    <glyph glyph-name="uni043F" unicode="&#x43f;" 
d="M75 0l187 1060h177l-7 -253l-142 -807h-215zM723 0l123 705q16 92 -13.5 138.5t-105.5 46.5q-81 0 -150 -47t-124.5 -156.5t-94.5 -296.5l50 429h44q32 125 127 193t228 68q161 0 224.5 -96.5t29.5 -286.5l-123 -697h-215z" />
    <glyph glyph-name="uni0440" unicode="&#x440;" 
d="M209 -460h-215l267 1520h179l-7 -251zM365 -20q-73 0 -145 5.5t-145 15.5l100 194q65 -25 212 -25q151 0 271 72t189.5 196.5t69.5 281.5q0 81 -37 125.5t-105 44.5q-83 0 -167 -52t-151 -163t-99 -287l39 431h87l-57 -76q36 161 148 249t280 88q131 0 203.5 -83.5
t72.5 -236.5q0 -167 -57.5 -309t-161.5 -248t-243.5 -164.5t-303.5 -58.5z" />
    <glyph glyph-name="uni0441" unicode="&#x441;" 
d="M556 170q104 0 203.5 34t176.5 89l72 -164q-98 -67 -224 -108t-257 -41q-197 0 -305 102t-108 287q0 215 75 374.5t210.5 248t317.5 88.5q164 0 261 -52t147 -168l-155 -123q-52 80 -119 116.5t-162 36.5q-108 0 -189.5 -62t-126 -174t-45.5 -263q1 -105 60.5 -163
t167.5 -58z" />
    <glyph glyph-name="uni0442" unicode="&#x442;" 
d="M386 1060l-13 -273l-139 -787h-215l187 1060h180zM417 0l146 828q15 82 -52 82q-62 0 -110 -108t-79 -305l24 402h51q25 98 76.5 139.5t124.5 41.5q93 0 130.5 -67t11.5 -213l-143 -800h-180zM1136 800l-141 -800h-215l146 828q7 39 -5 60.5t-44 21.5q-66 0 -113.5 -108
t-77.5 -305l14 402h67q27 99 83.5 140t136.5 41q198 0 149 -280z" />
    <glyph glyph-name="uni0443" unicode="&#x443;" 
d="M3 -472l-89 175q228 99 401.5 227.5t299 292.5t207.5 371.5t127 465.5h214q-75 -389 -221 -678.5t-376.5 -497.5t-562.5 -356zM324 1080q147 -600 388 -909l-185 -120q-125 189 -230.5 440t-193.5 569z" />
    <glyph glyph-name="uni0444" unicode="&#x444;" 
d="M611 -480q-172 0 -236.5 82.5t-11.5 271.5q2 7 12.5 43.5t24.5 87t28.5 100.5t23.5 83l-2 2l135 718l19 97l34 161q17 83 -19 125t-139 42q-24 0 -55 -2.5t-62 -7.5l-22 183q44 8 89 11t79 3q221 0 292 -94.5t28 -279.5q-10 -44 -25.5 -94.5t-31.5 -100.5t-28 -93l2 -10
l-140 -718l-26 -93l-32 -183q-13 -79 8.5 -113t88.5 -34q18 0 43 2.5t50 8.5l21 -182q-37 -9 -75.5 -12.5t-72.5 -3.5zM222 -20q-100 0 -150.5 83t-50.5 239q0 103 22 211.5t65 209.5t106.5 181.5t147.5 128t188 47.5q53 0 115 -12t102 -29l-88 -181q-37 20 -73 29t-65 9
q-64 0 -113.5 -36t-86 -96.5t-60 -134.5t-35 -151t-11.5 -146q0 -94 21 -138t64 -44q40 0 75 41.5t66.5 136t61.5 253.5l-11 -419h-92q-22 -86 -72 -134t-126 -48zM650 -20q-52 0 -114 12t-103 29l88 181q37 -20 73 -29t65 -9q64 0 113.5 36t86 96.5t60 134.5t35 151
t11.5 146q0 94 -21 138t-64 44q-40 0 -75.5 -41.5t-67.5 -136t-63 -253.5l14 419h92q23 86 72.5 134t125.5 48q100 0 150.5 -83t50.5 -239q0 -103 -22 -211.5t-65 -209.5t-106.5 -181.5t-147.5 -128t-188 -47.5z" />
    <glyph glyph-name="uni0445" unicode="&#x445;" 
d="M177 -41l-136 150l535 511l414 480l146 -150l-510 -492zM789 -20q-120 0 -193 72t-84 237l-30 443q-6 83 -39 120.5t-82 37.5q-40 0 -77 -7.5t-78 -25.5l-51 174q138 49 235 49q119 0 192.5 -72t84.5 -237l30 -443q6 -83 38 -120.5t83 -37.5q44 0 85.5 9.5t87.5 30.5
l54 -174q-129 -56 -256 -56z" />
    <glyph glyph-name="uni0446" unicode="&#x446;" 
d="M575 -480l-11 190q140 6 222 54t123 139q13 29 22 62t16 70l23 130h165l-23 -132q-10 -55 -21 -103.5t-27 -89.5q-58 -148 -179.5 -234.5t-309.5 -85.5zM392 -21q-140 0 -217 83.5t-77 234.5q0 153 49.5 338.5t159.5 444.5l212 -39q-109 -265 -158 -435.5t-49 -283.5
q0 -73 38 -113t107 -40q133 0 220 128.5t133 369.5l-18 -416h-66l57 48q-35 -98 -80 -170t-117.5 -111t-193.5 -39zM1058 -10q-108 0 -172 28.5t-87 89.5t-10 158l-12 215l103 579h217l-128 -721q-17 -96 9.5 -135t114.5 -39h43l-31 -175h-47z" />
    <glyph glyph-name="uni0447" unicode="&#x447;" 
d="M463 317q-157 0 -239.5 93t-82.5 242q0 95 27.5 199.5t72.5 228.5l212 -39q-29 -78 -51.5 -143t-34.5 -119t-12 -99q0 -73 43.5 -124t147.5 -49q64 2 120.5 32.5t99 87.5t63.5 137l-21 -265h-52q-21 -42 -60.5 -84t-97.5 -70t-135 -28zM956 -20q-142 0 -195 71.5
t-23 228.5l148 780h214l-146 -770q-13 -73 -0.5 -103t65.5 -30q28 0 62 3l-34 -175q-19 -3 -41.5 -4t-49.5 -1z" />
    <glyph glyph-name="uni0448" unicode="&#x448;" 
d="M254 -20q-58 0 -104 29t-70.5 93.5t-19.5 170.5q5 97 29.5 226t68 278t104.5 303l210 -39q-58 -152 -102 -299t-69 -268.5t-27 -199.5q0 -21 2.5 -50.5t15 -52t39.5 -22.5q24 0 44.5 18t38 50t31.5 73.5t23 88.5q28 141 46.5 231t34 155.5t34 132.5t46.5 162l168 -19
q-4 -21 -24.5 -97.5t-46.5 -183t-49 -220t-34 -208.5q-6 -51 -6 -86t6 -56.5t18 -31t30 -9.5q56 0 99 84t74 256l102 571l217 -1l-128 -720q-17 -96 -3 -135t57 -39h26l-31 -175h-50q-46 0 -85.5 9.5t-66.5 37.5t-35.5 81t6.5 140l76 -98h-191l98 82q-7 -92 -37.5 -150
t-76 -85t-99.5 -27q-97 0 -136 73.5t-44 172.5l92 -66h-158l71 82q-12 -92 -40.5 -150t-72 -85t-101.5 -27z" />
    <glyph glyph-name="uni0449" unicode="&#x449;" 
d="M575 -480l-11 190q146 7 229 58.5t123 151.5q10 26 17.5 54.5t13.5 60.5l23 130h165l-23 -132q-10 -55 -21 -103.5t-27 -89.5q-58 -148 -179.5 -234.5t-309.5 -85.5zM251 -20q-58 0 -104 29t-70.5 93.5t-19.5 170.5q5 97 29.5 226t68 278t104.5 303l210 -39
q-58 -152 -102 -299t-69 -268.5t-27 -199.5q0 -21 2.5 -50.5t15 -52t39.5 -22.5q24 0 44.5 18t38 50t31.5 73.5t23 88.5q28 141 46.5 231t34 155.5t34 132.5t46.5 162l168 -19q-4 -21 -24.5 -97.5t-46.5 -183t-49 -220t-34 -208.5q-6 -51 -6 -86t6 -56.5t18 -31t30 -9.5
q56 0 99 84t74 256l102 571l217 -1l-128 -720q-17 -96 -3 -135t57 -39h26l-31 -175h-50q-46 0 -85.5 9.5t-66.5 37.5t-35.5 81t6.5 140l76 -98h-191l98 82q-7 -92 -37.5 -150t-76 -85t-99.5 -27q-97 0 -136 73.5t-44 172.5l92 -66h-158l71 82q-12 -92 -40.5 -150t-72 -85
t-101.5 -27z" />
    </font>
</defs>
</svg>
